Inter-UI-Regular.ufo
<glyph name="dollar" format="2">
  <advance width="1812"/>
  <unicode hex="0024"/>
  <outline>
    <contour>
      <point x="800" y="-256" type="line"/>
      <point x="1004" y="-256" type="line"/>
      <point x="1036" y="2304" type="line"/>
      <point x="832" y="2304" type="line"/>
    </contour>
    <component base="S"/>
  </outline>
</glyph>
<glyph name="quotesingle" format="2">
  <advance width="624"/>
  <unicode hex="0027"/>
  <outline>
    <contour>
      <point x="420" y="2048" type="line"/>
      <point x="200" y="2048" type="line"/>
      <point x="200" y="1344" type="line"/>
      <point x="420" y="1344" type="line"/>
    </contour>
  </outline>
</glyph>
<glyph name="parenleft" format="2">
  <advance width="928"/>
  <unicode hex="0028"/>
  <guideline x="384" y="-128" angle="90" identifier="j2vsVBca9y"/>
  <guideline x="584" y="4" angle="90" identifier="YAlEFpnThW"/>
  <guideline x="388" y="1752" angle="0" identifier="wCkt1zgNuW"/>
  <guideline x="556" y="1640" angle="0" identifier="52cDvzEPtt"/>
  <outline>
    <contour>
      <point x="828" y="-384" type="line"/>
      <point x="592" y="24"/>
      <point x="492" y="404"/>
      <point x="492" y="832" type="curve" smooth="yes"/>
      <point x="492" y="1276"/>
      <point x="592" y="1640"/>
      <point x="832" y="2048" type="curve"/>
      <point x="612" y="2048" type="line"/>
      <point x="392" y="1752"/>
      <point x="248" y="1304"/>
      <point x="248" y="832" type="curve" smooth="yes"/>
      <point x="248" y="360"/>
      <point x="392" y="-88"/>
      <point x="592" y="-384" type="curve"/>
    </contour>
  </outline>
</glyph>
<glyph name="asterisk" format="2">
  <advance width="1424"/>
  <unicode hex="002A"/>
  <guideline x="792" y="1344" angle="0" identifier="rPeJhw8p5d"/>
  <outline>
    <contour>
      <point x="272" y="1032" type="line"/>
      <point x="448" y="904" type="line"/>
      <point x="712" y="1264" type="line"/>
      <point x="976" y="904" type="line"/>
      <point x="1152" y="1032" type="line"/>
      <point x="896" y="1392" type="line"/>
      <point x="1316" y="1528" type="line"/>
      <point x="1248" y="1740" type="line"/>
      <point x="824" y="1600" type="line"/>
      <point x="824" y="2048" type="line"/>
      <point x="600" y="2048" type="line"/>
      <point x="600" y="1600" type="line"/>
      <point x="176" y="1740" type="line"/>
      <point x="108" y="1528" type="line"/>
      <point x="528" y="1392" type="line"/>
    </contour>
  </outline>
</glyph>
<glyph name="plus" format="2">
  <advance width="1808"/>
  <unicode hex="002B"/>
  <guideline x="268" y="896" angle="0" identifier="g3n07H4PJq"/>
  <outline>
    <contour>
      <point x="1544" y="1008" type="line"/>
      <point x="264" y="1008" type="line"/>
      <point x="264" y="784" type="line"/>
      <point x="1544" y="784" type="line"/>
    </contour>
    <contour>
      <point x="1016" y="1536" type="line"/>
      <point x="792" y="1536" type="line"/>
      <point x="792" y="256" type="line"/>
      <point x="1016" y="256" type="line"/>
    </contour>
  </outline>
</glyph>
<glyph name="hyphen" format="2">
  <advance width="1296"/>
  <unicode hex="002D"/>
  <outline>
    <contour>
      <point x="1096" y="988" type="line"/>
      <point x="200" y="988" type="line"/>
      <point x="200" y="768" type="line"/>
      <point x="1096" y="768" type="line"/>
    </contour>
  </outline>
</glyph>
<glyph name="slash" format="2">
  <advance width="1040"/>
  <unicode hex="002F"/>
  <outline>
    <contour>
      <point x="932" y="2048" type="line"/>
      <point x="700" y="2048" type="line"/>
      <point x="104" y="-308" type="line"/>
      <point x="336" y="-308" type="line"/>
    </contour>
  </outline>
</glyph>
<glyph name="zero" format="2">
  <advance width="1680"/>
  <unicode hex="0030"/>
  <outline>
    <contour>
      <point x="1524" y="1140" type="line" smooth="yes"/>
      <point x="1524" y="1740"/>
      <point x="1288" y="2076"/>
      <point x="844" y="2076" type="curve" smooth="yes"/>
      <point x="396" y="2076"/>
      <point x="156" y="1740"/>
      <point x="156" y="1140" type="curve" smooth="yes"/>
      <point x="156" y="944" type="line" smooth="yes"/>
      <point x="156" y="340"/>
      <point x="400" y="-28"/>
      <point x="848" y="-28" type="curve" smooth="yes"/>
      <point x="1292" y="-28"/>
      <point x="1524" y="340"/>
      <point x="1524" y="944" type="curve" smooth="yes"/>
    </contour>
    <contour>
      <point x="1276" y="900" type="line" smooth="yes"/>
      <point x="1276" y="516"/>
      <point x="1140" y="192"/>
      <point x="848" y="192" type="curve" smooth="yes"/>
      <point x="552" y="192"/>
      <point x="404" y="516"/>
      <point x="404" y="900" type="curve" smooth="yes"/>
      <point x="404" y="1184" type="line" smooth="yes"/>
      <point x="404" y="1572"/>
      <point x="548" y="1856"/>
      <point x="844" y="1856" type="curve" smooth="yes"/>
      <point x="1136" y="1856"/>
      <point x="1276" y="1572"/>
      <point x="1276" y="1184" type="curve" smooth="yes"/>
    </contour>
  </outline>
</glyph>
<glyph name="one" format="2">
  <advance width="1260"/>
  <unicode hex="0031"/>
  <outline>
    <contour>
      <point x="868" y="2048" type="line"/>
      <point x="660" y="2048" type="line"/>
      <point x="636" y="2024"/>
      <point x="504" y="1744"/>
      <point x="184" y="1744" type="curve"/>
      <point x="184" y="1536" type="line"/>
      <point x="420" y="1536"/>
      <point x="588" y="1632"/>
      <point x="616" y="1688" type="curve"/>
      <point x="632" y="1688" type="line"/>
      <point x="632" y="0" type="line"/>
      <point x="868" y="0" type="line"/>
    </contour>
  </outline>
</glyph>
<glyph name="four" format="2">
  <advance width="1680"/>
  <unicode hex="0034"/>
  <outline>
    <contour>
      <point x="1568" y="640" type="line"/>
      <point x="412" y="640" type="line"/>
      <point x="1052" y="1676" type="line"/>
      <point x="1152" y="1676" type="line"/>
      <point x="1152" y="2048" type="line"/>
      <point x="1028" y="2048" type="line"/>
      <point x="104" y="576" type="line"/>
      <point x="104" y="420" type="line"/>
      <point x="1568" y="420" type="line"/>
    </contour>
    <contour>
      <point x="1288" y="2048" type="line"/>
      <point x="1068" y="2048" type="line"/>
      <point x="1068" y="0" type="line"/>
      <point x="1288" y="0" type="line"/>
    </contour>
  </outline>
</glyph>
<glyph name="seven" format="2">
  <advance width="1552"/>
  <unicode hex="0037"/>
  <outline>
    <contour>
      <point x="1416" y="2048" type="line"/>
      <point x="136" y="2048" type="line"/>
      <point x="136" y="1816" type="line"/>
      <point x="1176" y="1816" type="line"/>
      <point x="328" y="0" type="line"/>
      <point x="600" y="0" type="line"/>
      <point x="1416" y="1792" type="line"/>
    </contour>
  </outline>
</glyph>
<glyph name="less" format="2">
  <advance width="1296"/>
  <unicode hex="003C"/>
  <guideline x="256" y="896" angle="41.9872124958" identifier="u04uQ0do89"/>
  <guideline x="256" y="896" angle="318.0497604693" identifier="SgUdomYl82"/>
  <guideline x="1060" y="176" angle="0" identifier="B8iL0yHhxL"/>
  <guideline x="1296" y="1616" angle="0" identifier="TNA4m2Ecoa"/>
  <guideline x="256" y="896" angle="0" identifier="a143lRUZoY"/>
  <outline>
    <contour>
      <point x="1088" y="328" type="line"/>
      <point x="456" y="892" type="line"/>
      <point x="456" y="900" type="line"/>
      <point x="1088" y="1464" type="line"/>
      <point x="932" y="1616" type="line"/>
      <point x="132" y="896" type="line"/>
      <point x="932" y="176" type="line"/>
    </contour>
  </outline>
</glyph>
<glyph name="equal" format="2">
  <advance width="1808"/>
  <unicode hex="003D"/>
  <guideline x="256" y="896" angle="0" identifier="G7EVmBhk8L"/>
  <outline>
    <contour>
      <point x="328" y="732" type="line"/>
      <point x="328" y="512" type="line"/>
      <point x="1480" y="512" type="line"/>
      <point x="1480" y="732" type="line"/>
    </contour>
    <contour>
      <point x="328" y="1280" type="line"/>
      <point x="328" y="1060" type="line"/>
      <point x="1480" y="1060" type="line"/>
      <point x="1480" y="1280" type="line"/>
    </contour>
  </outline>
</glyph>
<glyph name="A" format="2">
  <advance width="1904"/>
  <unicode hex="0041"/>
  <guideline x="944" y="1828" angle="90" identifier="02ITZrVQlW"/>
  <anchor x="952" y="2304" name="top"/>
  <anchor x="952" y="0" name="bottom"/>
  <anchor x="1832" y="0" name="right"/>
  <anchor x="680" y="2048" name="tonos"/>
  <anchor x="1776" y="0" name="ogonek"/>
  <anchor x="1896" y="2200" name="top_dd"/>
  <anchor x="1848" y="-560" name="bottom_dd"/>
  <anchor x="1896" y="2200" name="top0315"/>
  <outline>
    <contour>
      <point x="1460" y="768" type="line"/>
      <point x="448" y="768" type="line"/>
      <point x="448" y="548" type="line"/>
      <point x="1460" y="548" type="line"/>
    </contour>
    <component base="Lambda"/>
  </outline>
</glyph>
<glyph name="B" format="2">
  <advance width="1832"/>
  <unicode hex="0042"/>
  <guideline x="924" y="1772" angle="90" identifier="jhjy5hrNbs"/>
  <guideline x="1612" y="1340" angle="90" identifier="mZDGJlxAlp"/>
  <anchor x="876" y="2304" name="top"/>
  <anchor x="888" y="16" name="bottom"/>
  <anchor x="1796" y="2200" name="top_dd"/>
  <anchor x="1796" y="-560" name="bottom_dd"/>
  <anchor x="1796" y="2216" name="top0315"/>
  <outline>
    <contour>
      <point x="1000" y="932" type="line"/>
      <point x="1000" y="1044" type="line"/>
      <point x="1236" y="1044"/>
      <point x="1592" y="1104"/>
      <point x="1592" y="1504" type="curve"/>
      <point x="1592" y="1804"/>
      <point x="1392" y="2048"/>
      <point x="964" y="2048" type="curve"/>
      <point x="248" y="2048" type="line"/>
      <point x="248" y="0" type="line"/>
      <point x="496" y="0" type="line"/>
      <point x="496" y="1828" type="line"/>
      <point x="964" y="1828" type="line"/>
      <point x="1236" y="1828"/>
      <point x="1356" y="1684"/>
      <point x="1356" y="1504" type="curve"/>
      <point x="1356" y="1288"/>
      <point x="1180" y="1148"/>
      <point x="956" y="1148" type="curve"/>
      <point x="448" y="1148" type="line"/>
      <point x="448" y="932" type="line"/>
    </contour>
    <contour>
      <point x="988" y="0" type="line"/>
      <point x="1472" y="0"/>
      <point x="1672" y="236"/>
      <point x="1672" y="544" type="curve" smooth="yes"/>
      <point x="1672" y="868"/>
      <point x="1448" y="1044"/>
      <point x="1260" y="1056" type="curve"/>
      <point x="1260" y="1148" type="line"/>
      <point x="560" y="1148" type="line"/>
      <point x="560" y="932" type="line"/>
      <point x="1000" y="932" type="line" smooth="yes"/>
      <point x="1268" y="932"/>
      <point x="1436" y="752"/>
      <point x="1436" y="544" type="curve" smooth="yes"/>
      <point x="1436" y="364"/>
      <point x="1312" y="220"/>
      <point x="988" y="220" type="curve" smooth="yes"/>
      <point x="368" y="220" type="line"/>
      <point x="368" y="0" type="line"/>
    </contour>
  </outline>
</glyph>
<glyph name="C" format="2">
  <advance width="2048"/>
  <unicode hex="0043"/>
  <guideline x="1064" y="1432" angle="90" identifier="5aLFHoQNBL"/>
  <anchor x="1072" y="2304" name="top"/>
  <anchor x="1072" y="-16" name="bottom"/>
  <anchor x="1940" y="2200" name="top_dd"/>
  <anchor x="1940" y="-560" name="bottom_dd"/>
  <anchor x="1940" y="2244" name="top0315"/>
  <outline>
    <contour>
      <point x="1896" y="1408" type="line"/>
      <point x="1820" y="1828"/>
      <point x="1484" y="2076"/>
      <point x="1072" y="2076" type="curve" smooth="yes"/>
      <point x="548" y="2076"/>
      <point x="168" y="1672"/>
      <point x="168" y="1024" type="curve"/>
      <point x="168" y="376"/>
      <point x="548" y="-28"/>
      <point x="1072" y="-28" type="curve" smooth="yes"/>
      <point x="1484" y="-28"/>
      <point x="1820" y="220"/>
      <point x="1896" y="640" type="curve"/>
      <point x="1648" y="640" type="line"/>
      <point x="1588" y="356"/>
      <point x="1344" y="204"/>
      <point x="1072" y="204" type="curve" smooth="yes"/>
      <point x="700" y="204"/>
      <point x="408" y="492"/>
      <point x="408" y="1024" type="curve"/>
      <point x="408" y="1556"/>
      <point x="700" y="1844"/>
      <point x="1072" y="1844" type="curve" smooth="yes"/>
      <point x="1344" y="1844"/>
      <point x="1588" y="1692"/>
      <point x="1648" y="1408" type="curve"/>
    </contour>
  </outline>
</glyph>
<glyph name="D" format="2">
  <advance width="2024"/>
  <unicode hex="0044"/>
  <anchor x="848" y="2304" name="top"/>
  <anchor x="444" y="1016" name="cross"/>
  <anchor x="856" y="16" name="bottom"/>
  <anchor x="1856" y="2200" name="top_dd"/>
  <anchor x="1856" y="-560" name="bottom_dd"/>
  <anchor x="1856" y="2216" name="top0315"/>
  <outline>
    <contour>
      <point x="880" y="0" type="line"/>
      <point x="1504" y="0"/>
      <point x="1856" y="388"/>
      <point x="1856" y="1028" type="curve"/>
      <point x="1856" y="1664"/>
      <point x="1504" y="2048"/>
      <point x="908" y="2048" type="curve"/>
      <point x="376" y="2048" type="line"/>
      <point x="376" y="1828" type="line"/>
      <point x="892" y="1828" type="line"/>
      <point x="1372" y="1828"/>
      <point x="1616" y="1524"/>
      <point x="1616" y="1028" type="curve"/>
      <point x="1616" y="528"/>
      <point x="1372" y="220"/>
      <point x="864" y="220" type="curve"/>
      <point x="388" y="220" type="line"/>
      <point x="388" y="0" type="line"/>
    </contour>
    <contour>
      <point x="496" y="2048" type="line"/>
      <point x="248" y="2048" type="line"/>
      <point x="248" y="0" type="line"/>
      <point x="496" y="0" type="line"/>
    </contour>
  </outline>
</glyph>
<glyph name="E" format="2">
  <advance width="1684"/>
  <unicode hex="0045"/>
  <anchor x="888" y="2304" name="top"/>
  <anchor x="888" y="16" name="bottom"/>
  <anchor x="8" y="2048" name="tonos"/>
  <anchor x="1440" y="0" name="ogonek"/>
  <anchor x="1636" y="2200" name="top_dd"/>
  <anchor x="1636" y="-560" name="bottom_dd"/>
  <anchor x="1636" y="2216" name="top0315"/>
  <outline>
    <contour>
      <point x="1500" y="220" type="line"/>
      <point x="432" y="220" type="line"/>
      <point x="432" y="0" type="line"/>
      <point x="1500" y="0" type="line"/>
    </contour>
    <contour>
      <point x="496" y="2048" type="line"/>
      <point x="248" y="2048" type="line"/>
      <point x="248" y="0" type="line"/>
      <point x="496" y="0" type="line"/>
    </contour>
    <contour>
      <point x="1380" y="1136" type="line"/>
      <point x="432" y="1136" type="line"/>
      <point x="432" y="916" type="line"/>
      <point x="1380" y="916" type="line"/>
    </contour>
    <contour>
      <point x="1484" y="2048" type="line"/>
      <point x="432" y="2048" type="line"/>
      <point x="432" y="1828" type="line"/>
      <point x="1484" y="1828" type="line"/>
    </contour>
  </outline>
</glyph>
<glyph name="F" format="2">
  <advance width="1652"/>
  <unicode hex="0046"/>
  <anchor x="496" y="464" name="cross"/>
  <anchor x="888" y="2304" name="top"/>
  <anchor x="768" y="16" name="bottom"/>
  <anchor x="1588" y="2200" name="top_dd"/>
  <anchor x="1588" y="-560" name="bottom_dd"/>
  <anchor x="1588" y="2216" name="top0315"/>
  <outline>
    <contour>
      <point x="496" y="2048" type="line"/>
      <point x="248" y="2048" type="line"/>
      <point x="248" y="0" type="line"/>
      <point x="496" y="0" type="line"/>
    </contour>
    <contour>
      <point x="1344" y="1136" type="line"/>
      <point x="468" y="1136" type="line"/>
      <point x="468" y="916" type="line"/>
      <point x="1344" y="916" type="line"/>
    </contour>
    <contour>
      <point x="1476" y="2048" type="line"/>
      <point x="468" y="2048" type="line"/>
      <point x="468" y="1828" type="line"/>
      <point x="1476" y="1828" type="line"/>
    </contour>
  </outline>
</glyph>
<glyph name="G" format="2">
  <advance width="2092"/>
  <unicode hex="0047"/>
  <guideline x="1880" y="1408" angle="0" identifier="pnmxphPXfp"/>
  <guideline x="1892" y="1304" angle="90" identifier="TW3x0fxE3L"/>
  <guideline x="1056" y="1644" angle="90" identifier="PcMy50SDbw"/>
  <anchor x="1064" y="2304" name="top"/>
  <anchor x="1064" y="-16" name="bottom"/>
  <anchor x="2024" y="2200" name="top_dd"/>
  <anchor x="2024" y="-560" name="bottom_dd"/>
  <anchor x="2024" y="2244" name="top0315"/>
  <outline>
    <contour>
      <point x="1916" y="1016" type="line"/>
      <point x="1176" y="1016" type="line"/>
      <point x="1176" y="796" type="line"/>
      <point x="1916" y="796" type="line"/>
    </contour>
    <contour>
      <point x="1900" y="1408" type="line"/>
      <point x="1780" y="1828"/>
      <point x="1472" y="2076"/>
      <point x="1064" y="2076" type="curve" smooth="yes"/>
      <point x="548" y="2076"/>
      <point x="168" y="1672"/>
      <point x="168" y="1024" type="curve"/>
      <point x="168" y="376"/>
      <point x="548" y="-28"/>
      <point x="1080" y="-28" type="curve" smooth="yes"/>
      <point x="1556" y="-28"/>
      <point x="1916" y="292"/>
      <point x="1916" y="796" type="curve"/>
      <point x="1676" y="796" type="line"/>
      <point x="1676" y="448"/>
      <point x="1428" y="204"/>
      <point x="1080" y="204" type="curve" smooth="yes"/>
      <point x="700" y="204"/>
      <point x="408" y="492"/>
      <point x="408" y="1024" type="curve"/>
      <point x="408" y="1556"/>
      <point x="700" y="1844"/>
      <point x="1064" y="1844" type="curve" smooth="yes"/>
      <point x="1328" y="1844"/>
      <point x="1552" y="1692"/>
      <point x="1648" y="1408" type="curve"/>
    </contour>
  </outline>
</glyph>
<glyph name="H" format="2">
  <advance width="2084"/>
  <unicode hex="0048"/>
  <anchor x="1040" y="2304" name="top"/>
  <anchor x="1816" y="0" name="right"/>
  <anchor x="8" y="2048" name="tonos"/>
  <anchor x="1020" y="16" name="bottom"/>
  <anchor x="2048" y="2200" name="top_dd"/>
  <anchor x="2048" y="-560" name="bottom_dd"/>
  <anchor x="2048" y="2216" name="top0315"/>
  <outline>
    <contour>
      <point x="1624" y="1136" type="line"/>
      <point x="452" y="1136" type="line"/>
      <point x="452" y="916" type="line"/>
      <point x="1624" y="916" type="line"/>
    </contour>
    <contour>
      <point x="496" y="2048" type="line"/>
      <point x="248" y="2048" type="line"/>
      <point x="248" y="0" type="line"/>
      <point x="496" y="0" type="line"/>
    </contour>
    <contour>
      <point x="1836" y="2048" type="line"/>
      <point x="1588" y="2048" type="line"/>
      <point x="1588" y="0" type="line"/>
      <point x="1836" y="0" type="line"/>
    </contour>
  </outline>
</glyph>
<glyph name="I" format="2">
  <advance width="744"/>
  <unicode hex="0049"/>
  <anchor x="356" y="2304" name="top"/>
  <anchor x="376" y="16" name="bottom"/>
  <anchor x="-8" y="2048" name="tonos"/>
  <anchor x="516" y="0" name="right"/>
  <anchor x="468" y="0" name="ogonek"/>
  <anchor x="764" y="2200" name="top_dd"/>
  <anchor x="764" y="-560" name="bottom_dd"/>
  <anchor x="764" y="2216" name="top0315"/>
  <outline>
    <contour>
      <point x="496" y="2048" type="line"/>
      <point x="248" y="2048" type="line"/>
      <point x="248" y="0" type="line"/>
      <point x="496" y="0" type="line"/>
    </contour>
  </outline>
</glyph>
<glyph name="J" format="2">
  <advance width="1424"/>
  <unicode hex="004A"/>
  <anchor x="1076" y="2304" name="top"/>
  <anchor x="712" y="-16" name="bottom"/>
  <anchor x="1564" y="2200" name="top_dd"/>
  <anchor x="1564" y="-560" name="bottom_dd"/>
  <anchor x="1564" y="2200" name="top0315"/>
  <outline>
    <contour>
      <point x="952" y="584" type="line"/>
      <point x="952" y="272"/>
      <point x="772" y="192"/>
      <point x="612" y="192" type="curve" smooth="yes"/>
      <point x="416" y="192"/>
      <point x="248" y="308"/>
      <point x="248" y="512" type="curve"/>
      <point x="8" y="512" type="line"/>
      <point x="8" y="180"/>
      <point x="272" y="-28"/>
      <point x="596" y="-28" type="curve" smooth="yes"/>
      <point x="964" y="-28"/>
      <point x="1200" y="188"/>
      <point x="1200" y="584" type="curve"/>
      <point x="1200" y="2048" type="line"/>
      <point x="952" y="2048" type="line"/>
    </contour>
  </outline>
</glyph>
<glyph name="K" format="2">
  <advance width="1836"/>
  <unicode hex="004B"/>
  <guideline x="1748" y="2048" angle="227.6707533916" identifier="eyUwaprUbQ"/>
  <anchor x="920" y="120" name="bottom"/>
  <anchor x="1696" y="0" name="right"/>
  <anchor x="388" y="1692" name="cross"/>
  <anchor x="840" y="2304" name="top"/>
  <anchor x="1772" y="2200" name="top_dd"/>
  <anchor x="1772" y="-560" name="bottom_dd"/>
  <anchor x="1772" y="2200" name="top0315"/>
  <outline>
    <contour>
      <point x="496" y="2048" type="line"/>
      <point x="248" y="2048" type="line"/>
      <point x="248" y="0" type="line"/>
      <point x="496" y="0" type="line"/>
    </contour>
    <contour>
      <point x="1764" y="2048" type="line"/>
      <point x="1440" y="2048" type="line"/>
      <point x="520" y="1032" type="line"/>
      <point x="448" y="1032" type="line"/>
      <point x="448" y="612" type="line"/>
      <point x="760" y="960" type="line"/>
      <point x="772" y="980" type="line"/>
    </contour>
    <contour>
      <point x="1464" y="0" type="line"/>
      <point x="1764" y="0" type="line"/>
      <point x="872" y="1168" type="line"/>
      <point x="736" y="976" type="line"/>
    </contour>
  </outline>
</glyph>
<glyph name="L" format="2">
  <advance width="1584"/>
  <unicode hex="004C"/>
  <anchor x="376" y="2304" name="top"/>
  <anchor x="860" y="16" name="bottom"/>
  <anchor x="844" y="2000" name="caron"/>
  <anchor x="832" y="1092" name="dot"/>
  <anchor x="1532" y="2200" name="top_dd"/>
  <anchor x="1532" y="-560" name="bottom_dd"/>
  <anchor x="1532" y="2200" name="top0315"/>
  <outline>
    <contour>
      <point x="1448" y="220" type="line"/>
      <point x="440" y="220" type="line"/>
      <point x="440" y="0" type="line"/>
      <point x="1448" y="0" type="line"/>
    </contour>
    <contour>
      <point x="496" y="2048" type="line"/>
      <point x="248" y="2048" type="line"/>
      <point x="248" y="0" type="line"/>
      <point x="496" y="0" type="line"/>
    </contour>
  </outline>
</glyph>
<glyph name="M" format="2">
  <advance width="2464"/>
  <unicode hex="004D"/>
  <guideline x="1224" y="152" angle="90" identifier="49auTbqe6n"/>
  <guideline x="516" y="2056" angle="90" identifier="djasGyrQW8"/>
  <guideline x="1932" y="2060" angle="90" identifier="W829E9ydiA"/>
  <anchor x="1232" y="2304" name="top"/>
  <anchor x="2208" y="0" name="right"/>
  <anchor x="1232" y="0" name="bottom"/>
  <anchor x="2456" y="2200" name="top_dd"/>
  <anchor x="2456" y="-560" name="bottom_dd"/>
  <anchor x="2456" y="2200" name="top0315"/>
  <outline>
    <contour>
      <point x="248" y="2048" type="line"/>
      <point x="248" y="0" type="line"/>
      <point x="480" y="0" type="line"/>
      <point x="480" y="1536" type="line"/>
      <point x="500" y="1536" type="line"/>
      <point x="1120" y="16" type="line"/>
      <point x="1344" y="16" type="line"/>
      <point x="1964" y="1536" type="line"/>
      <point x="1984" y="1536" type="line"/>
      <point x="1984" y="0" type="line"/>
      <point x="2216" y="0" type="line"/>
      <point x="2216" y="2048" type="line"/>
      <point x="1940" y="2048" type="line"/>
      <point x="1248" y="376" type="line"/>
      <point x="1224" y="376" type="line"/>
      <point x="524" y="2048" type="line"/>
    </contour>
  </outline>
</glyph>
<glyph name="N" format="2">
  <advance width="2080"/>
  <unicode hex="004E"/>
  <anchor x="1032" y="2304" name="top"/>
  <anchor x="996" y="16" name="bottom"/>
  <anchor x="1784" y="0" name="right"/>
  <anchor x="2020" y="2200" name="top_dd"/>
  <anchor x="2020" y="-560" name="bottom_dd"/>
  <anchor x="2020" y="2200" name="top0315"/>
  <outline>
    <contour>
      <point x="1832" y="2048" type="line"/>
      <point x="1588" y="2048" type="line"/>
      <point x="1588" y="436" type="line"/>
      <point x="1568" y="436" type="line"/>
      <point x="488" y="2048" type="line"/>
      <point x="248" y="2048" type="line"/>
      <point x="248" y="0" type="line"/>
      <point x="496" y="0" type="line"/>
      <point x="496" y="1604" type="line"/>
      <point x="516" y="1604" type="line"/>
      <point x="1592" y="0" type="line"/>
      <point x="1832" y="0" type="line"/>
    </contour>
  </outline>
</glyph>
<glyph name="O" format="2">
  <advance width="2144"/>
  <unicode hex="004F"/>
  <guideline x="1064" y="1652" angle="90" identifier="Z1iERRbo6e"/>
  <anchor x="1072" y="2304" name="top"/>
  <anchor x="1072" y="0" name="bottom"/>
  <anchor x="272" y="2048" name="tonos"/>
  <anchor x="1984" y="2200" name="top_dd"/>
  <anchor x="2048" y="-560" name="bottom_dd"/>
  <anchor x="1984" y="2200" name="top0315"/>
  <outline>
    <contour>
      <point x="1976" y="1024" type="curve"/>
      <point x="1976" y="1672"/>
      <point x="1596" y="2076"/>
      <point x="1072" y="2076" type="curve" smooth="yes"/>
      <point x="548" y="2076"/>
      <point x="168" y="1672"/>
      <point x="168" y="1024" type="curve"/>
      <point x="168" y="376"/>
      <point x="548" y="-28"/>
      <point x="1072" y="-28" type="curve" smooth="yes"/>
      <point x="1596" y="-28"/>
      <point x="1976" y="376"/>
    </contour>
    <contour>
      <point x="1736" y="1024" type="curve"/>
      <point x="1736" y="492"/>
      <point x="1444" y="204"/>
      <point x="1072" y="204" type="curve" smooth="yes"/>
      <point x="700" y="204"/>
      <point x="408" y="492"/>
      <point x="408" y="1024" type="curve"/>
      <point x="408" y="1556"/>
      <point x="700" y="1844"/>
      <point x="1072" y="1844" type="curve" smooth="yes"/>
      <point x="1444" y="1844"/>
      <point x="1736" y="1556"/>
    </contour>
  </outline>
</glyph>
<glyph name="P" format="2">
  <advance width="1784"/>
  <unicode hex="0050"/>
  <guideline x="1396" y="1760" angle="90" identifier="rFtlxztSzt"/>
  <guideline x="1248" y="1804" angle="90" identifier="P9oWSu7LGn"/>
  <anchor x="44" y="2000" name="tonos"/>
  <anchor x="904" y="2304" name="top"/>
  <anchor x="736" y="0" name="bottom"/>
  <anchor x="1796" y="2200" name="top_dd"/>
  <anchor x="1796" y="-560" name="bottom_dd"/>
  <anchor x="1796" y="2216" name="top0315"/>
  <outline>
    <contour>
      <point x="936" y="740" type="line"/>
      <point x="1412" y="740"/>
      <point x="1620" y="1032"/>
      <point x="1620" y="1400" type="curve"/>
      <point x="1620" y="1768"/>
      <point x="1412" y="2048"/>
      <point x="932" y="2048" type="curve"/>
      <point x="248" y="2048" type="line"/>
      <point x="248" y="0" type="line"/>
      <point x="496" y="0" type="line"/>
      <point x="496" y="1828" type="line"/>
      <point x="932" y="1828" type="line"/>
      <point x="1264" y="1828"/>
      <point x="1376" y="1652"/>
      <point x="1376" y="1400" type="curve"/>
      <point x="1376" y="1148"/>
      <point x="1264" y="960"/>
      <point x="936" y="960" type="curve"/>
      <point x="448" y="960" type="line"/>
      <point x="448" y="740" type="line"/>
    </contour>
  </outline>
</glyph>
<glyph name="Q" format="2">
  <advance width="2144"/>
  <unicode hex="0051"/>
  <anchor x="1020" y="2304" name="top"/>
  <anchor x="1032" y="-28" name="bottom"/>
  <anchor x="1952" y="2200" name="top_dd"/>
  <anchor x="1952" y="-560" name="bottom_dd"/>
  <anchor x="1952" y="2200" name="top0315"/>
  <outline>
    <contour>
      <point x="992" y="640" type="line"/>
      <point x="1340" y="184" type="line"/>
      <point x="1396" y="108" type="line"/>
      <point x="1620" y="-192" type="line"/>
      <point x="1892" y="-192" type="line"/>
      <point x="1552" y="260" type="line"/>
      <point x="1492" y="340" type="line"/>
      <point x="1264" y="640" type="line"/>
    </contour>
    <component base="O"/>
  </outline>
</glyph>
<glyph name="R" format="2">
  <advance width="1784"/>
  <unicode hex="0052"/>
  <guideline x="924" y="2112" angle="90" identifier="QqwQyJXFJH"/>
  <anchor x="904" y="2304" name="top"/>
  <anchor x="848" y="0" name="bottom"/>
  <anchor x="1732" y="2200" name="top_dd"/>
  <anchor x="1732" y="-560" name="bottom_dd"/>
  <anchor x="1732" y="2200" name="top0315"/>
  <outline>
    <contour>
      <point x="248" y="2048" type="line"/>
      <point x="248" y="0" type="line"/>
      <point x="496" y="0" type="line"/>
      <point x="496" y="1828" type="line"/>
      <point x="932" y="1828" type="line" smooth="yes"/>
      <point x="1296" y="1828"/>
      <point x="1376" y="1612"/>
      <point x="1376" y="1420" type="curve" smooth="yes"/>
      <point x="1376" y="1192"/>
      <point x="1264" y="1024"/>
      <point x="904" y="1024" type="curve" smooth="yes"/>
      <point x="440" y="1024" type="line"/>
      <point x="440" y="796" type="line"/>
      <point x="1068" y="796" type="line"/>
      <point x="1144" y="816" type="line"/>
      <point x="1448" y="896"/>
      <point x="1620" y="1100"/>
      <point x="1620" y="1420" type="curve" smooth="yes"/>
      <point x="1620" y="1760"/>
      <point x="1420" y="2048"/>
      <point x="932" y="2048" type="curve"/>
    </contour>
    <contour>
      <point x="1404" y="0" type="line"/>
      <point x="1692" y="0" type="line"/>
      <point x="1224" y="900" type="line"/>
      <point x="944" y="900" type="line"/>
    </contour>
  </outline>
</glyph>
<glyph name="S" format="2">
  <advance width="1788"/>
  <unicode hex="0053"/>
  <guideline x="52" y="528" angle="0" identifier="3uZajRksZz"/>
  <anchor x="888" y="2304" name="top"/>
  <anchor x="888" y="-36" name="bottom"/>
  <anchor x="1648" y="2200" name="top_dd"/>
  <anchor x="1648" y="-560" name="bottom_dd"/>
  <anchor x="1648" y="2200" name="top0315"/>
  <outline>
    <contour>
      <point x="1360" y="1520" type="curve"/>
      <point x="1600" y="1520" type="line"/>
      <point x="1580" y="1844"/>
      <point x="1304" y="2076"/>
      <point x="908" y="2076" type="curve" smooth="yes"/>
      <point x="516" y="2076"/>
      <point x="208" y="1848"/>
      <point x="208" y="1504" type="curve" smooth="yes"/>
      <point x="208" y="1228"/>
      <point x="408" y="1064"/>
      <point x="728" y="972" type="curve" smooth="yes"/>
      <point x="980" y="900" type="line" smooth="yes"/>
      <point x="1256" y="820"/>
      <point x="1388" y="744"/>
      <point x="1388" y="560" type="curve" smooth="yes"/>
      <point x="1388" y="336"/>
      <point x="1172" y="188"/>
      <point x="888" y="188" type="curve" smooth="yes"/>
      <point x="644" y="188"/>
      <point x="428" y="296"/>
      <point x="408" y="528" type="curve"/>
      <point x="152" y="528" type="line"/>
      <point x="176" y="192"/>
      <point x="448" y="-36"/>
      <point x="888" y="-36" type="curve" smooth="yes"/>
      <point x="1360" y="-36"/>
      <point x="1628" y="224"/>
      <point x="1628" y="560" type="curve" smooth="yes"/>
      <point x="1628" y="844"/>
      <point x="1440" y="1016"/>
      <point x="1052" y="1120" type="curve" smooth="yes"/>
      <point x="844" y="1176" type="line" smooth="yes"/>
      <point x="572" y="1248"/>
      <point x="448" y="1348"/>
      <point x="448" y="1512" type="curve" smooth="yes"/>
      <point x="448" y="1712"/>
      <point x="628" y="1856"/>
      <point x="900" y="1856" type="curve" smooth="yes"/>
      <point x="1148" y="1856"/>
      <point x="1324" y="1740"/>
    </contour>
  </outline>
</glyph>
<glyph name="T" format="2">
  <advance width="1808"/>
  <unicode hex="0054"/>
  <anchor x="904" y="2304" name="top"/>
  <anchor x="904" y="0" name="bottom"/>
  <anchor x="960" y="0" name="right"/>
  <anchor x="836" y="1232" name="cross"/>
  <anchor x="1664" y="2200" name="top_dd"/>
  <anchor x="1664" y="-560" name="bottom_dd"/>
  <anchor x="1664" y="2200" name="top0315"/>
  <outline>
    <contour>
      <point x="1028" y="2048" type="line"/>
      <point x="780" y="2048" type="line"/>
      <point x="780" y="0" type="line"/>
      <point x="1028" y="0" type="line"/>
    </contour>
    <contour>
      <point x="1672" y="2048" type="line"/>
      <point x="136" y="2048" type="line"/>
      <point x="136" y="1828" type="line"/>
      <point x="1672" y="1828" type="line"/>
    </contour>
  </outline>
</glyph>
<glyph name="U" format="2">
  <advance width="2088"/>
  <unicode hex="0055"/>
  <guideline x="1036" y="2084" angle="90" identifier="Bd6YD35pum"/>
  <anchor x="1044" y="2304" name="top"/>
  <anchor x="1044" y="-28" name="bottom"/>
  <anchor x="1160" y="0" name="right"/>
  <anchor x="1304" y="64" name="ogonek"/>
  <anchor x="1828" y="2200" name="top_dd"/>
  <anchor x="1828" y="-560" name="bottom_dd"/>
  <anchor x="1828" y="2200" name="top0315"/>
  <outline>
    <contour>
      <point x="1592" y="2048" type="line"/>
      <point x="1592" y="692" type="line" smooth="yes"/>
      <point x="1592" y="372"/>
      <point x="1336" y="196"/>
      <point x="1044" y="196" type="curve" smooth="yes"/>
      <point x="752" y="196"/>
      <point x="496" y="372"/>
      <point x="496" y="692" type="curve" smooth="yes"/>
      <point x="496" y="2048" type="line"/>
      <point x="248" y="2048" type="line"/>
      <point x="248" y="692" type="line"/>
      <point x="248" y="232"/>
      <point x="612" y="-36"/>
      <point x="1044" y="-36" type="curve" smooth="yes"/>
      <point x="1476" y="-36"/>
      <point x="1840" y="232"/>
      <point x="1840" y="692" type="curve"/>
      <point x="1840" y="2048" type="line"/>
    </contour>
  </outline>
</glyph>
<glyph name="V" format="2">
  <advance width="1904"/>
  <unicode hex="0056"/>
  <guideline x="944" y="476" angle="90" identifier="XvnUexvp9S"/>
  <guideline x="312" y="2088" angle="90" identifier="cpWpHMNyFI"/>
  <guideline x="1552" y="2196" angle="90" identifier="ESFwDblcZX"/>
  <anchor x="952" y="2304" name="top"/>
  <anchor x="952" y="16" name="bottom"/>
  <anchor x="1924" y="2200" name="top_dd"/>
  <anchor x="1924" y="-560" name="bottom_dd"/>
  <anchor x="1924" y="2216" name="top0315"/>
  <outline>
    <contour>
      <point x="332" y="2048" type="line"/>
      <point x="72" y="2048" type="line"/>
      <point x="824" y="0" type="line"/>
      <point x="1080" y="0" type="line"/>
      <point x="1832" y="2048" type="line"/>
      <point x="1572" y="2048" type="line"/>
      <point x="964" y="324" type="line"/>
      <point x="940" y="324" type="line"/>
    </contour>
  </outline>
</glyph>
<glyph name="W" format="2">
  <advance width="2672"/>
  <unicode hex="0057"/>
  <guideline x="1128" y="360" angle="0" identifier="KLXkqRuPpt"/>
  <guideline x="1328" y="2096" angle="90" identifier="WDyAG9XR6H"/>
  <guideline x="740" y="332" angle="90" identifier="w0H3zbbTKU"/>
  <guideline x="1916" y="356" angle="90" identifier="SVyLyMrnwf"/>
  <anchor x="1336" y="2304" name="top"/>
  <anchor x="1336" y="16" name="bottom"/>
  <anchor x="2500" y="2200" name="top_dd"/>
  <anchor x="2500" y="-560" name="bottom_dd"/>
  <anchor x="2500" y="2200" name="top0315"/>
  <outline>
    <contour>
      <point x="312" y="2048" type="line"/>
      <point x="60" y="2048" type="line"/>
      <point x="620" y="0" type="line"/>
      <point x="876" y="0" type="line"/>
      <point x="1328" y="1632" type="line"/>
      <point x="1344" y="1632" type="line"/>
      <point x="1796" y="0" type="line"/>
      <point x="2052" y="0" type="line"/>
      <point x="2612" y="2048" type="line"/>
      <point x="2360" y="2048" type="line"/>
      <point x="1932" y="380" type="line"/>
      <point x="1912" y="380" type="line"/>
      <point x="1476" y="2048" type="line"/>
      <point x="1196" y="2048" type="line"/>
      <point x="760" y="380" type="line"/>
      <point x="740" y="380" type="line"/>
    </contour>
  </outline>
</glyph>
<glyph name="X" format="2">
  <advance width="1808"/>
  <unicode hex="0058"/>
  <guideline x="1724" y="2180" angle="90" identifier="I7zf49OQ8M"/>
  <guideline x="896" y="1372" angle="90" identifier="eEF6tjGRxN"/>
  <guideline x="68" y="2060" angle="90" identifier="gItW6E0kWC"/>
  <guideline x="944" y="1196" angle="0" identifier="MEzV3Ef25x"/>
  <guideline x="1352" y="852" angle="0" identifier="C3XUvqvVmP"/>
  <anchor x="904" y="16" name="bottom"/>
  <anchor x="1596" y="0" name="right"/>
  <anchor x="964" y="1020" name="cross"/>
  <anchor x="904" y="2304" name="top"/>
  <anchor x="1848" y="2200" name="top_dd"/>
  <anchor x="1848" y="-560" name="bottom_dd"/>
  <anchor x="1848" y="2216" name="top0315"/>
  <outline>
    <contour>
      <point x="368" y="2048" type="line"/>
      <point x="76" y="2048" type="line"/>
      <point x="736" y="1024" type="line"/>
      <point x="76" y="0" type="line"/>
      <point x="368" y="0" type="line"/>
      <point x="896" y="836" type="line"/>
      <point x="912" y="836" type="line"/>
      <point x="1440" y="0" type="line"/>
      <point x="1732" y="0" type="line"/>
      <point x="1088" y="1024" type="line"/>
      <point x="1732" y="2048" type="line"/>
      <point x="1440" y="2048" type="line"/>
      <point x="912" y="1196" type="line"/>
      <point x="896" y="1196" type="line"/>
    </contour>
  </outline>
</glyph>
<glyph name="Y" format="2">
  <advance width="1880"/>
  <unicode hex="0059"/>
  <guideline x="932" y="1360" angle="90" identifier="jhVvL0ZjtU"/>
  <guideline x="336" y="2092" angle="90" identifier="8mkb7tfxea"/>
  <guideline x="1496" y="2100" angle="90" identifier="my0PDr165Z"/>
  <anchor x="940" y="2304" name="top"/>
  <anchor x="940" y="0" name="bottom"/>
  <anchor x="920" y="816" name="cross"/>
  <anchor x="28" y="2048" name="tonos"/>
  <anchor x="1912" y="2200" name="top_dd"/>
  <anchor x="1912" y="-560" name="bottom_dd"/>
  <anchor x="1912" y="2200" name="top0315"/>
  <outline>
    <contour>
      <point x="360" y="2048" type="line"/>
      <point x="76" y="2048" type="line"/>
      <point x="816" y="844" type="line"/>
      <point x="816" y="0" type="line"/>
      <point x="1064" y="0" type="line"/>
      <point x="1064" y="844" type="line"/>
      <point x="1804" y="2048" type="line"/>
      <point x="1520" y="2048" type="line"/>
      <point x="940" y="1072" type="line"/>
    </contour>
    <contour>
      <point x="916" y="1044" type="line"/>
      <point x="964" y="1044" type="line"/>
      <point x="964" y="1092" type="line"/>
      <point x="916" y="1092" type="line"/>
    </contour>
  </outline>
</glyph>
<glyph name="Z" format="2">
  <advance width="1760"/>
  <unicode hex="005A"/>
  <guideline x="1584" y="248" angle="90" identifier="sqLhGyq09S"/>
  <guideline x="160" y="1280" angle="90" identifier="CAf9KqNaVj"/>
  <guideline x="872" y="2156" angle="90" identifier="Uy7A5HfBp6"/>
  <anchor x="880" y="2304" name="top"/>
  <anchor x="880" y="16" name="bottom"/>
  <anchor x="1744" y="2200" name="top_dd"/>
  <anchor x="1680" y="-560" name="bottom_dd"/>
  <anchor x="1744" y="2200" name="top0315"/>
  <outline>
    <contour>
      <point x="1592" y="220" type="line"/>
      <point x="284" y="220" type="line"/>
      <point x="284" y="0" type="line"/>
      <point x="1592" y="0" type="line"/>
    </contour>
    <contour>
      <point x="1580" y="1868" type="line"/>
      <point x="1580" y="2048" type="line"/>
      <point x="1432" y="2048" type="line"/>
      <point x="180" y="180" type="line"/>
      <point x="180" y="0" type="line"/>
      <point x="328" y="0" type="line"/>
    </contour>
    <contour>
      <point x="1456" y="2048" type="line"/>
      <point x="168" y="2048" type="line"/>
      <point x="168" y="1828" type="line"/>
      <point x="1456" y="1828" type="line"/>
    </contour>
  </outline>
</glyph>
<glyph name="bracketleft" format="2">
  <advance width="928"/>
  <unicode hex="005B"/>
  <outline>
    <contour>
      <point x="776" y="2240" type="line"/>
      <point x="264" y="2240" type="line"/>
      <point x="264" y="-448" type="line"/>
      <point x="776" y="-448" type="line"/>
      <point x="776" y="-228" type="line"/>
      <point x="496" y="-228" type="line"/>
      <point x="496" y="2020" type="line"/>
      <point x="776" y="2020" type="line"/>
    </contour>
  </outline>
</glyph>
<glyph name="backslash" format="2">
  <advance width="1008"/>
  <unicode hex="005C"/>
  <outline>
    <contour>
      <point x="88" y="2048" type="line"/>
      <point x="684" y="-308" type="line"/>
      <point x="916" y="-308" type="line"/>
      <point x="320" y="2048" type="line"/>
    </contour>
  </outline>
</glyph>
<glyph name="bracketright" format="2">
  <advance width="928"/>
  <unicode hex="005D"/>
  <outline>
    <contour>
      <point x="152" y="2240" type="line"/>
      <point x="152" y="2020" type="line"/>
      <point x="432" y="2020" type="line"/>
      <point x="432" y="-228" type="line"/>
      <point x="152" y="-228" type="line"/>
      <point x="152" y="-448" type="line"/>
      <point x="664" y="-448" type="line"/>
      <point x="664" y="2240" type="line"/>
    </contour>
  </outline>
</glyph>
<glyph name="asciicircum" format="2">
  <advance width="1264"/>
  <unicode hex="005E"/>
  <outline>
    <contour>
      <point x="648" y="1688" type="line"/>
      <point x="704" y="2004" type="line"/>
      <point x="540" y="2004" type="line"/>
      <point x="128" y="1004" type="line"/>
      <point x="384" y="1004" type="line"/>
    </contour>
    <contour>
      <point x="884" y="1004" type="line"/>
      <point x="1136" y="1004" type="line"/>
      <point x="728" y="2004" type="line"/>
      <point x="560" y="2004" type="line"/>
      <point x="616" y="1688" type="line"/>
    </contour>
  </outline>
</glyph>
<glyph name="underscore" format="2">
  <advance width="1272"/>
  <unicode hex="005F"/>
  <anchor x="632" y="216" name="_bottom"/>
  <outline>
    <contour>
      <point x="1276" y="0" type="line"/>
      <point x="-4" y="0" type="line"/>
      <point x="-4" y="-220" type="line"/>
      <point x="1276" y="-220" type="line"/>
    </contour>
  </outline>
</glyph>
<glyph name="grave" format="2">
  <advance width="752"/>
  <unicode hex="0060"/>
  <anchor x="500" y="1776" name="_top"/>
  <anchor x="500" y="2268" name="mkmktop_acc"/>
  <outline>
    <contour>
      <point x="388" y="2112" type="line"/>
      <point x="56" y="2112" type="line"/>
      <point x="420" y="1704" type="line"/>
      <point x="656" y="1704" type="line"/>
    </contour>
  </outline>
</glyph>
<glyph name="a" format="2">
  <advance width="1588"/>
  <unicode hex="0061"/>
  <guideline x="796" y="1160" angle="90" identifier="pUxU45bVZA"/>
  <anchor x="804" y="1792" name="top"/>
  <anchor x="764" y="0" name="bottom"/>
  <anchor x="1372" y="0" name="ogonek"/>
  <anchor x="804" y="1792" name="rhalfring"/>
  <anchor x="1512" y="2176" name="top_dd"/>
  <anchor x="1512" y="-560" name="bottom_dd"/>
  <anchor x="1280" y="908" name="rhotichook"/>
  <anchor x="1280" y="1792" name="top0315"/>
  <outline>
    <contour>
      <point x="1136" y="556" type="line" smooth="yes"/>
      <point x="1136" y="364"/>
      <point x="984" y="176"/>
      <point x="704" y="176" type="curve" smooth="yes"/>
      <point x="516" y="176"/>
      <point x="380" y="260"/>
      <point x="380" y="424" type="curve" smooth="yes"/>
      <point x="380" y="604"/>
      <point x="544" y="660"/>
      <point x="728" y="684" type="curve" smooth="yes"/>
      <point x="828" y="696"/>
      <point x="1096" y="724"/>
      <point x="1136" y="772" type="curve"/>
    </contour>
    <contour>
      <point x="1136" y="0" type="line"/>
      <point x="1372" y="0" type="line"/>
      <point x="1372" y="1012" type="line" smooth="yes"/>
      <point x="1372" y="1500"/>
      <point x="1000" y="1556"/>
      <point x="804" y="1556" type="curve" smooth="yes"/>
      <point x="572" y="1556"/>
      <point x="308" y="1476"/>
      <point x="188" y="1196" type="curve"/>
      <point x="412" y="1116" type="line"/>
      <point x="464" y="1228"/>
      <point x="588" y="1348"/>
      <point x="816" y="1348" type="curve" smooth="yes"/>
      <point x="1000" y="1348"/>
      <point x="1136" y="1268"/>
      <point x="1136" y="1012" type="curve" smooth="yes"/>
      <point x="1136" y="1008" type="line"/>
      <point x="1136" y="908"/>
      <point x="952" y="916"/>
      <point x="740" y="888" type="curve" smooth="yes"/>
      <point x="452" y="852"/>
      <point x="144" y="784"/>
      <point x="144" y="436" type="curve" smooth="yes"/>
      <point x="144" y="136"/>
      <point x="376" y="-36"/>
      <point x="668" y="-36" type="curve" smooth="yes"/>
      <point x="936" y="-36"/>
      <point x="1076" y="108"/>
      <point x="1124" y="208" type="curve"/>
      <point x="1136" y="208" type="line"/>
    </contour>
  </outline>
</glyph>
<glyph name="b" format="2">
  <advance width="1716"/>
  <unicode hex="0062"/>
  <anchor x="900" y="2304" name="top"/>
  <anchor x="904" y="0" name="bottom"/>
  <anchor x="1700" y="2200" name="top_dd"/>
  <anchor x="1700" y="-560" name="bottom_dd"/>
  <anchor x="1700" y="2216" name="top0315"/>
  <outline>
    <contour>
      <point x="216" y="2048" type="line"/>
      <point x="216" y="0" type="line"/>
      <point x="444" y="0" type="line"/>
      <point x="444" y="288" type="line"/>
      <point x="372" y="784" type="line"/>
      <point x="452" y="1172" type="line"/>
      <point x="452" y="2048" type="line"/>
    </contour>
    <component base="rightloop.cn" xOffset="52"/>
  </outline>
</glyph>
<glyph name="c" format="2">
  <advance width="1572"/>
  <unicode hex="0063"/>
  <guideline x="832" y="1472" angle="90" identifier="YbyuE92O2Q"/>
  <anchor x="832" y="1792" name="top"/>
  <anchor x="832" y="0" name="bottom"/>
  <anchor x="832" y="1792" name="marktop"/>
  <anchor x="1464" y="2200" name="top_dd"/>
  <anchor x="1464" y="-560" name="bottom_dd"/>
  <anchor x="1464" y="1776" name="top0315"/>
  <outline>
    <contour>
      <point x="1444" y="1076" type="line"/>
      <point x="1404" y="1364"/>
      <point x="1160" y="1556"/>
      <point x="836" y="1556" type="curve" smooth="yes"/>
      <point x="420" y="1556"/>
      <point x="144" y="1228"/>
      <point x="144" y="768" type="curve" smooth="yes"/>
      <point x="144" y="296"/>
      <point x="412" y="-32"/>
      <point x="840" y="-32" type="curve" smooth="yes"/>
      <point x="1180" y="-32"/>
      <point x="1404" y="176"/>
      <point x="1444" y="448" type="curve"/>
      <point x="1208" y="448" type="line"/>
      <point x="1164" y="280"/>
      <point x="1024" y="180"/>
      <point x="840" y="180" type="curve" smooth="yes"/>
      <point x="560" y="180"/>
      <point x="380" y="412"/>
      <point x="380" y="768" type="curve" smooth="yes"/>
      <point x="380" y="1116"/>
      <point x="564" y="1344"/>
      <point x="840" y="1344" type="curve" smooth="yes"/>
      <point x="1048" y="1344"/>
      <point x="1172" y="1216"/>
      <point x="1208" y="1076" type="curve"/>
    </contour>
  </outline>
</glyph>
<glyph name="d" format="2">
  <advance width="1716"/>
  <unicode hex="0064"/>
  <anchor x="1560" y="2112" name="caron"/>
  <anchor x="1236" y="1796" name="cross"/>
  <anchor x="820" y="0" name="bottom"/>
  <anchor x="820" y="2304" name="top"/>
  <anchor x="1620" y="2200" name="top_dd"/>
  <anchor x="1620" y="-560" name="bottom_dd"/>
  <anchor x="1620" y="2216" name="top0315"/>
  <outline>
    <contour>
      <point x="1500" y="0" type="line"/>
      <point x="1500" y="2048" type="line"/>
      <point x="1264" y="2048" type="line"/>
      <point x="1264" y="1156" type="line"/>
      <point x="1336" y="748" type="line"/>
      <point x="1272" y="344" type="line"/>
      <point x="1272" y="0" type="line"/>
    </contour>
    <component base="leftloop.cn" xOffset="8"/>
  </outline>
</glyph>
<glyph name="e" format="2">
  <advance width="1644"/>
  <unicode hex="0065"/>
  <guideline x="832" y="1764" angle="90" identifier="cUpThhMIvx"/>
  <anchor x="836" y="1792" name="top"/>
  <anchor x="840" y="0" name="bottom"/>
  <anchor x="1260" y="92" name="ogonek"/>
  <anchor x="1496" y="2176" name="top_dd"/>
  <anchor x="1496" y="-560" name="bottom_dd"/>
  <anchor x="1204" y="788" name="rhotichook"/>
  <anchor x="1424" y="1792" name="top0315"/>
  <outline>
    <contour>
      <point x="860" y="-32" type="curve"/>
      <point x="1172" y="-32"/>
      <point x="1400" y="124"/>
      <point x="1472" y="356" type="curve"/>
      <point x="1244" y="420" type="line"/>
      <point x="1184" y="260"/>
      <point x="1048" y="180"/>
      <point x="860" y="180" type="curve" smooth="yes"/>
      <point x="560" y="180"/>
      <point x="380" y="384"/>
      <point x="380" y="768" type="curve"/>
      <point x="380" y="1132"/>
      <point x="568" y="1344"/>
      <point x="836" y="1344" type="curve"/>
      <point x="1092" y="1344"/>
      <point x="1256" y="1152"/>
      <point x="1256" y="892" type="curve"/>
      <point x="312" y="892" type="line"/>
      <point x="312" y="688" type="line"/>
      <point x="1496" y="688" type="line"/>
      <point x="1496" y="788" type="line" smooth="yes"/>
      <point x="1496" y="1360"/>
      <point x="1156" y="1556"/>
      <point x="836" y="1556" type="curve" smooth="yes"/>
      <point x="420" y="1556"/>
      <point x="144" y="1228"/>
      <point x="144" y="756" type="curve"/>
      <point x="144" y="284"/>
      <point x="416" y="-32"/>
    </contour>
  </outline>
</glyph>
<glyph name="f" format="2">
  <advance width="1008"/>
  <unicode hex="0066"/>
  <anchor x="544" y="2304" name="top"/>
  <anchor x="440" y="0" name="bottom"/>
  <anchor x="764" y="1484" name="top_dd"/>
  <anchor x="980" y="-560" name="bottom_dd"/>
  <anchor x="924" y="2116" name="top0315"/>
  <outline>
    <contour>
      <point x="900" y="1536" type="line"/>
      <point x="72" y="1536" type="line"/>
      <point x="72" y="1316" type="line"/>
      <point x="900" y="1316" type="line"/>
    </contour>
    <contour>
      <point x="320" y="0" type="line"/>
      <point x="556" y="0" type="line"/>
      <point x="556" y="1624" type="line"/>
      <point x="556" y="1776"/>
      <point x="620" y="1856"/>
      <point x="776" y="1856" type="curve" smooth="yes"/>
      <point x="844" y="1856"/>
      <point x="884" y="1840"/>
      <point x="908" y="1832" type="curve"/>
      <point x="976" y="2036" type="line"/>
      <point x="940" y="2052"/>
      <point x="868" y="2076"/>
      <point x="752" y="2076" type="curve" smooth="yes"/>
      <point x="532" y="2076"/>
      <point x="320" y="1944"/>
      <point x="320" y="1680" type="curve"/>
    </contour>
  </outline>
</glyph>
<glyph name="g" format="2">
  <advance width="1716"/>
  <unicode hex="0067"/>
  <anchor x="888" y="1792" name="top"/>
  <anchor x="828" y="-588" name="bottom"/>
  <anchor x="1644" y="2200" name="top_dd"/>
  <anchor x="1644" y="-560" name="bottom_dd"/>
  <anchor x="1644" y="1776" name="top0315"/>
  <outline>
    <contour>
      <point x="1272" y="1536" type="line"/>
      <point x="1272" y="1200" type="line"/>
      <point x="1348" y="768" type="line"/>
      <point x="1264" y="360" type="line"/>
      <point x="1264" y="280" type="line"/>
      <point x="1264" y="12" type="line"/>
      <point x="1268" y="-244"/>
      <point x="1064" y="-364"/>
      <point x="828" y="-364" type="curve" smooth="yes"/>
      <point x="564" y="-364"/>
      <point x="456" y="-212"/>
      <point x="396" y="-136" type="curve"/>
      <point x="208" y="-268" type="line"/>
      <point x="304" y="-432"/>
      <point x="500" y="-576"/>
      <point x="828" y="-576" type="curve" smooth="yes"/>
      <point x="1184" y="-576"/>
      <point x="1500" y="-408"/>
      <point x="1500" y="-12" type="curve" smooth="yes"/>
      <point x="1500" y="1536" type="line"/>
    </contour>
    <contour>
      <point x="1360" y="1292" type="line"/>
      <point x="1248" y="1292" type="line"/>
      <point x="1196" y="1372"/>
      <point x="1100" y="1556"/>
      <point x="800" y="1556" type="curve" smooth="yes"/>
      <point x="412" y="1556"/>
      <point x="144" y="1248"/>
      <point x="144" y="776" type="curve" smooth="yes"/>
      <point x="144" y="296"/>
      <point x="424" y="24"/>
      <point x="796" y="24" type="curve" smooth="yes"/>
      <point x="1096" y="24"/>
      <point x="1192" y="200"/>
      <point x="1244" y="284" type="curve"/>
      <point x="1360" y="284" type="line"/>
    </contour>
    <contour>
      <point x="380" y="780" type="curve" smooth="yes"/>
      <point x="380" y="1092"/>
      <point x="528" y="1344"/>
      <point x="828" y="1344" type="curve" smooth="yes"/>
      <point x="1116" y="1344"/>
      <point x="1268" y="1112"/>
      <point x="1268" y="780" type="curve" smooth="yes"/>
      <point x="1268" y="440"/>
      <point x="1112" y="236"/>
      <point x="828" y="236" type="curve" smooth="yes"/>
      <point x="532" y="236"/>
      <point x="380" y="460"/>
    </contour>
  </outline>
</glyph>
<glyph name="h" format="2">
  <advance width="1636"/>
  <unicode hex="0068"/>
  <anchor x="884" y="2304" name="top"/>
  <anchor x="364" y="1796" name="cross"/>
  <anchor x="820" y="0" name="bottom"/>
  <anchor x="1348" y="0" name="right"/>
  <anchor x="1528" y="2200" name="top_dd"/>
  <anchor x="1528" y="-560" name="bottom_dd"/>
  <anchor x="1528" y="2216" name="top0315"/>
  <outline>
    <contour>
      <point x="452" y="928" type="line" smooth="yes"/>
      <point x="452" y="1216"/>
      <point x="660" y="1328"/>
      <point x="848" y="1328" type="curve" smooth="yes"/>
      <point x="1052" y="1328"/>
      <point x="1184" y="1200"/>
      <point x="1184" y="976" type="curve" smooth="yes"/>
      <point x="1184" y="0" type="line"/>
      <point x="1420" y="0" type="line"/>
      <point x="1420" y="976" type="line" smooth="yes"/>
      <point x="1420" y="1356"/>
      <point x="1212" y="1556"/>
      <point x="924" y="1556" type="curve" smooth="yes"/>
      <point x="692" y="1556"/>
      <point x="544" y="1436"/>
      <point x="468" y="1320" type="curve"/>
      <point x="452" y="1320" type="line"/>
      <point x="452" y="2048" type="line"/>
      <point x="216" y="2048" type="line"/>
      <point x="216" y="0" type="line"/>
      <point x="452" y="0" type="line"/>
    </contour>
  </outline>
</glyph>
<glyph name="i" format="2">
  <advance width="668"/>
  <unicode hex="0069"/>
  <guideline x="324" y="1660" angle="90" identifier="Vu2hZUZUoo"/>
  <anchor x="332" y="0" name="bottom"/>
  <anchor x="440" y="0" name="ogonek"/>
  <anchor x="328" y="2304" name="top"/>
  <anchor x="672" y="2200" name="top_dd"/>
  <anchor x="672" y="-560" name="bottom_dd"/>
  <anchor x="368" y="900" name="rhotichook"/>
  <anchor x="672" y="2200" name="top0315"/>
  <outline>
    <contour>
      <point x="332" y="1756" type="curve"/>
      <point x="436" y="1756"/>
      <point x="500" y="1828"/>
      <point x="500" y="1916" type="curve"/>
      <point x="500" y="1996"/>
      <point x="436" y="2076"/>
      <point x="332" y="2076" type="curve"/>
      <point x="228" y="2076"/>
      <point x="164" y="1996"/>
      <point x="164" y="1916" type="curve" smooth="yes"/>
      <point x="164" y="1828"/>
      <point x="228" y="1756"/>
    </contour>
    <component base="dotlessi"/>
  </outline>
</glyph>
<glyph name="j" format="2">
  <advance width="668"/>
  <unicode hex="006A"/>
  <guideline x="324" y="1584" angle="90" identifier="7ptclrJAfo"/>
  <anchor x="380" y="2304" name="top"/>
  <anchor x="256" y="-632" name="bottom"/>
  <anchor x="676" y="2200" name="top_dd"/>
  <anchor x="676" y="-560" name="bottom_dd"/>
  <anchor x="676" y="2200" name="top0315"/>
  <outline>
    <contour>
      <point x="332" y="1756" type="curve"/>
      <point x="436" y="1756"/>
      <point x="500" y="1828"/>
      <point x="500" y="1916" type="curve"/>
      <point x="500" y="1996"/>
      <point x="436" y="2076"/>
      <point x="332" y="2076" type="curve"/>
      <point x="228" y="2076"/>
      <point x="164" y="1996"/>
      <point x="164" y="1916" type="curve" smooth="yes"/>
      <point x="164" y="1828"/>
      <point x="228" y="1756"/>
    </contour>
    <component base="dotlessj"/>
  </outline>
</glyph>
<glyph name="k" format="2">
  <advance width="1500"/>
  <unicode hex="006B"/>
  <anchor x="744" y="0" name="bottom"/>
  <anchor x="308" y="1772" name="cross"/>
  <anchor x="732" y="2304" name="top"/>
  <anchor x="732" y="2304" name="marktop"/>
  <anchor x="1416" y="2200" name="top_dd"/>
  <anchor x="1416" y="-560" name="bottom_dd"/>
  <anchor x="1236" y="2216" name="top0315"/>
  <outline>
    <contour>
      <point x="452" y="2048" type="line"/>
      <point x="216" y="2048" type="line"/>
      <point x="216" y="0" type="line"/>
      <point x="452" y="0" type="line"/>
    </contour>
    <contour>
      <point x="1396" y="1536" type="line"/>
      <point x="1104" y="1536" type="line"/>
      <point x="480" y="844" type="line"/>
      <point x="432" y="844" type="line"/>
      <point x="436" y="520" type="line"/>
      <point x="708" y="812" type="line"/>
      <point x="728" y="812" type="line"/>
    </contour>
    <contour>
      <point x="1184" y="0" type="line"/>
      <point x="1460" y="0" type="line"/>
      <point x="760" y="924" type="line"/>
      <point x="624" y="744" type="line"/>
    </contour>
  </outline>
</glyph>
<glyph name="l" format="2">
  <advance width="668"/>
  <unicode hex="006C"/>
  <anchor x="332" y="2304" name="top"/>
  <anchor x="300" y="16" name="bottom"/>
  <anchor x="616" y="2112" name="caron"/>
  <anchor x="608" y="1064" name="dot"/>
  <anchor x="740" y="2124" name="marktop"/>
  <anchor x="648" y="2200" name="top_dd"/>
  <anchor x="648" y="-560" name="bottom_dd"/>
  <anchor x="648" y="2336" name="top0315"/>
  <outline>
    <contour>
      <point x="452" y="2048" type="line"/>
      <point x="216" y="2048" type="line"/>
      <point x="216" y="0" type="line"/>
      <point x="452" y="0" type="line"/>
    </contour>
  </outline>
</glyph>
<glyph name="m" format="2">
  <advance width="2404"/>
  <unicode hex="006D"/>
  <anchor x="1272" y="1792" name="top"/>
  <anchor x="1204" y="0" name="bottom"/>
  <anchor x="1272" y="1792" name="marktop"/>
  <anchor x="2440" y="2200" name="top_dd"/>
  <anchor x="2440" y="-560" name="bottom_dd"/>
  <anchor x="2440" y="1776" name="top0315"/>
  <outline>
    <contour>
      <point x="1324" y="964" type="line" smooth="yes"/>
      <point x="1324" y="1180"/>
      <point x="1444" y="1328"/>
      <point x="1652" y="1328" type="curve" smooth="yes"/>
      <point x="1780" y="1328"/>
      <point x="1952" y="1252"/>
      <point x="1952" y="1012" type="curve" smooth="yes"/>
      <point x="1952" y="0" type="line"/>
      <point x="2188" y="0" type="line"/>
      <point x="2188" y="1004" type="line" smooth="yes"/>
      <point x="2188" y="1380"/>
      <point x="1980" y="1556"/>
      <point x="1724" y="1556" type="curve" smooth="yes"/>
      <point x="1500" y="1556"/>
      <point x="1324" y="1408"/>
      <point x="1280" y="1280" type="curve"/>
      <point x="1264" y="1280" type="line"/>
      <point x="1196" y="1432"/>
      <point x="1060" y="1556"/>
      <point x="868" y="1556" type="curve" smooth="yes"/>
      <point x="672" y="1556"/>
      <point x="512" y="1408"/>
      <point x="468" y="1276" type="curve"/>
      <point x="452" y="1276" type="line"/>
      <point x="452" y="1536" type="line"/>
      <point x="216" y="1536" type="line"/>
      <point x="216" y="0" type="line"/>
      <point x="452" y="0" type="line"/>
      <point x="452" y="916" type="line" smooth="yes"/>
      <point x="452" y="1168"/>
      <point x="624" y="1328"/>
      <point x="804" y="1328" type="curve" smooth="yes"/>
      <point x="976" y="1328"/>
      <point x="1084" y="1236"/>
      <point x="1084" y="1004" type="curve" smooth="yes"/>
      <point x="1084" y="0" type="line"/>
      <point x="1324" y="0" type="line"/>
    </contour>
  </outline>
</glyph>
<glyph name="n" format="2">
  <advance width="1636"/>
  <unicode hex="006E"/>
  <anchor x="824" y="1792" name="top"/>
  <anchor x="820" y="0" name="bottom"/>
  <anchor x="-192" y="2120" name="caron"/>
  <anchor x="1216" y="0" name="right"/>
  <anchor x="824" y="1792" name="marktop"/>
  <anchor x="1408" y="2200" name="top_dd"/>
  <anchor x="1408" y="-560" name="bottom_dd"/>
  <anchor x="1408" y="1776" name="top0315"/>
  <outline>
    <contour>
      <point x="452" y="908" type="line" smooth="yes"/>
      <point x="452" y="1196"/>
      <point x="672" y="1328"/>
      <point x="848" y="1328" type="curve" smooth="yes"/>
      <point x="1044" y="1328"/>
      <point x="1184" y="1184"/>
      <point x="1184" y="960" type="curve" smooth="yes"/>
      <point x="1184" y="0" type="line"/>
      <point x="1420" y="0" type="line"/>
      <point x="1420" y="976" type="line" smooth="yes"/>
      <point x="1420" y="1368"/>
      <point x="1212" y="1556"/>
      <point x="924" y="1556" type="curve" smooth="yes"/>
      <point x="692" y="1556"/>
      <point x="540" y="1432"/>
      <point x="468" y="1276" type="curve"/>
      <point x="452" y="1276" type="line"/>
      <point x="452" y="1536" type="line"/>
      <point x="216" y="1536" type="line"/>
      <point x="216" y="0" type="line"/>
      <point x="452" y="0" type="line"/>
    </contour>
  </outline>
</glyph>
<glyph name="o" format="2">
  <advance width="1680"/>
  <unicode hex="006F"/>
  <guideline x="832" y="1208" angle="90" identifier="ta2XqGBTSx"/>
  <anchor x="840" y="1792" name="top"/>
  <anchor x="840" y="0" name="bottom"/>
  <anchor x="1616" y="2176" name="top_dd"/>
  <anchor x="1616" y="-560" name="bottom_dd"/>
  <anchor x="1368" y="896" name="rhotichook"/>
  <anchor x="1552" y="1792" name="top0315"/>
  <outline>
    <contour>
      <point x="840" y="-32" type="curve" smooth="yes"/>
      <point x="1256" y="-32"/>
      <point x="1536" y="284"/>
      <point x="1536" y="760" type="curve" smooth="yes"/>
      <point x="1536" y="1240"/>
      <point x="1256" y="1556"/>
      <point x="840" y="1556" type="curve" smooth="yes"/>
      <point x="424" y="1556"/>
      <point x="144" y="1240"/>
      <point x="144" y="760" type="curve" smooth="yes"/>
      <point x="144" y="284"/>
      <point x="424" y="-32"/>
    </contour>
    <contour>
      <point x="840" y="180" type="curve" smooth="yes"/>
      <point x="524" y="180"/>
      <point x="380" y="452"/>
      <point x="380" y="760" type="curve" smooth="yes"/>
      <point x="380" y="1068"/>
      <point x="524" y="1344"/>
      <point x="840" y="1344" type="curve" smooth="yes"/>
      <point x="1156" y="1344"/>
      <point x="1300" y="1068"/>
      <point x="1300" y="760" type="curve" smooth="yes"/>
      <point x="1300" y="452"/>
      <point x="1156" y="180"/>
    </contour>
  </outline>
</glyph>
<glyph name="p" format="2">
  <advance width="1716"/>
  <unicode hex="0070"/>
  <anchor x="904" y="1792" name="top"/>
  <anchor x="332" y="-576" name="bottom"/>
  <anchor x="904" y="1792" name="marktop"/>
  <anchor x="1560" y="2200" name="top_dd"/>
  <anchor x="1560" y="-560" name="bottom_dd"/>
  <anchor x="1560" y="1760" name="top0315"/>
  <outline>
    <contour>
      <point x="216" y="-576" type="line"/>
      <point x="452" y="-576" type="line"/>
      <point x="452" y="392" type="line"/>
      <point x="384" y="728" type="line"/>
      <point x="444" y="1148" type="line"/>
      <point x="444" y="1244" type="line"/>
      <point x="444" y="1536" type="line"/>
      <point x="216" y="1536" type="line"/>
    </contour>
    <component base="rightloop.cn" xOffset="52"/>
  </outline>
</glyph>
<glyph name="q" format="2">
  <advance width="1716"/>
  <unicode hex="0071"/>
  <anchor x="820" y="1792" name="top"/>
  <anchor x="1380" y="-576" name="bottom"/>
  <anchor x="820" y="1792" name="marktop"/>
  <anchor x="1624" y="2200" name="top_dd"/>
  <anchor x="1624" y="-560" name="bottom_dd"/>
  <anchor x="1428" y="1792" name="top0315"/>
  <outline>
    <contour>
      <point x="1500" y="1536" type="line"/>
      <point x="1272" y="1536" type="line"/>
      <point x="1272" y="1244" type="line"/>
      <point x="1272" y="1148" type="line"/>
      <point x="1336" y="728" type="line"/>
      <point x="1264" y="392" type="line"/>
      <point x="1264" y="-576" type="line"/>
      <point x="1500" y="-576" type="line"/>
    </contour>
    <component base="leftloop.cn" xOffset="8"/>
  </outline>
</glyph>
<glyph name="r" format="2">
  <advance width="1088"/>
  <unicode hex="0072"/>
  <anchor x="552" y="1792" name="top"/>
  <anchor x="332" y="0" name="bottom"/>
  <anchor x="932" y="2200" name="top_dd"/>
  <anchor x="932" y="-560" name="bottom_dd"/>
  <anchor x="932" y="1792" name="top0315"/>
  <outline>
    <contour>
      <point x="1064" y="1504" type="line"/>
      <point x="1016" y="1532"/>
      <point x="940" y="1560"/>
      <point x="860" y="1560" type="curve"/>
      <point x="680" y="1560"/>
      <point x="512" y="1420"/>
      <point x="468" y="1272" type="curve"/>
      <point x="452" y="1272" type="line"/>
      <point x="452" y="1536" type="line"/>
      <point x="216" y="1536" type="line"/>
      <point x="216" y="0" type="line"/>
      <point x="452" y="0" type="line"/>
      <point x="452" y="868" type="line"/>
      <point x="456" y="1076"/>
      <point x="600" y="1316"/>
      <point x="852" y="1316" type="curve"/>
      <point x="920" y="1316"/>
      <point x="960" y="1296"/>
      <point x="984" y="1284" type="curve"/>
    </contour>
  </outline>
</glyph>
<glyph name="s" format="2">
  <advance width="1460"/>
  <unicode hex="0073"/>
  <guideline x="796" y="1024" angle="19.9588902175" identifier="AxTrc0SlvW"/>
  <guideline x="1264" y="784" angle="20.0339231645" identifier="LhRIS0PLV9"/>
  <guideline x="732" y="328" angle="90" identifier="ovY5Qo9JcN"/>
  <anchor x="740" y="1792" name="top"/>
  <anchor x="740" y="0" name="bottom"/>
  <anchor x="1436" y="2200" name="top_dd"/>
  <anchor x="1436" y="-560" name="bottom_dd"/>
  <anchor x="1436" y="1776" name="top0315"/>
  <outline>
    <contour>
      <point x="1276" y="1192" type="line"/>
      <point x="1196" y="1416"/>
      <point x="1024" y="1556"/>
      <point x="740" y="1556" type="curve" smooth="yes"/>
      <point x="416" y="1556"/>
      <point x="176" y="1372"/>
      <point x="176" y="1112" type="curve" smooth="yes"/>
      <point x="176" y="924"/>
      <point x="300" y="756"/>
      <point x="580" y="684" type="curve" smooth="yes"/>
      <point x="836" y="620" type="line" smooth="yes"/>
      <point x="988" y="584"/>
      <point x="1056" y="516"/>
      <point x="1056" y="416" type="curve" smooth="yes"/>
      <point x="1056" y="288"/>
      <point x="928" y="172"/>
      <point x="708" y="172" type="curve" smooth="yes"/>
      <point x="480" y="172"/>
      <point x="372" y="296"/>
      <point x="316" y="436" type="curve"/>
      <point x="100" y="356" type="line"/>
      <point x="176" y="164"/>
      <point x="344" y="-32"/>
      <point x="712" y="-32" type="curve" smooth="yes"/>
      <point x="1092" y="-32"/>
      <point x="1296" y="188"/>
      <point x="1296" y="424" type="curve" smooth="yes"/>
      <point x="1296" y="600"/>
      <point x="1180" y="760"/>
      <point x="900" y="828" type="curve" smooth="yes"/>
      <point x="672" y="884" type="line" smooth="yes"/>
      <point x="496" y="928"/>
      <point x="412" y="1020"/>
      <point x="412" y="1124" type="curve" smooth="yes"/>
      <point x="412" y="1256"/>
      <point x="552" y="1356"/>
      <point x="740" y="1356" type="curve" smooth="yes"/>
      <point x="976" y="1356"/>
      <point x="1036" y="1200"/>
      <point x="1064" y="1132" type="curve"/>
    </contour>
  </outline>
</glyph>
<glyph name="t" format="2">
  <advance width="1000"/>
  <unicode hex="0074"/>
  <guideline x="852" y="1332" angle="90" identifier="OLW7H9HAHz"/>
  <anchor x="596" y="0" name="bottom"/>
  <anchor x="720" y="2288" name="caron"/>
  <anchor x="380" y="932" name="cross"/>
  <anchor x="412" y="2048" name="top"/>
  <anchor x="736" y="1876" name="marktop"/>
  <anchor x="892" y="2200" name="top_dd"/>
  <anchor x="892" y="-560" name="bottom_dd"/>
  <anchor x="892" y="2032" name="top0315"/>
  <outline>
    <contour>
      <point x="860" y="1536" type="line"/>
      <point x="64" y="1536" type="line"/>
      <point x="64" y="1316" type="line"/>
      <point x="860" y="1316" type="line"/>
    </contour>
    <contour>
      <point x="296" y="1864" type="line"/>
      <point x="296" y="376" type="line"/>
      <point x="296" y="108"/>
      <point x="512" y="-20"/>
      <point x="712" y="-20" type="curve" smooth="yes"/>
      <point x="800" y="-20"/>
      <point x="856" y="-4"/>
      <point x="888" y="8" type="curve"/>
      <point x="840" y="220" type="line"/>
      <point x="820" y="216"/>
      <point x="788" y="208"/>
      <point x="736" y="208" type="curve" smooth="yes"/>
      <point x="632" y="208"/>
      <point x="532" y="240"/>
      <point x="532" y="440" type="curve"/>
      <point x="532" y="1864" type="line"/>
    </contour>
  </outline>
</glyph>
<glyph name="u" format="2">
  <advance width="1636"/>
  <unicode hex="0075"/>
  <guideline x="812" y="1476" angle="90" identifier="h7iAHD7iVL"/>
  <anchor x="820" y="1792" name="top"/>
  <anchor x="1272" y="0" name="ogonek"/>
  <anchor x="788" y="0" name="bottomu"/>
  <anchor x="1476" y="2200" name="top_dd"/>
  <anchor x="1476" y="-560" name="bottom_dd"/>
  <anchor x="1184" y="900" name="rhotichook"/>
  <anchor x="1440" y="1776" name="top0315"/>
  <anchor x="788" y="0" name="bottom"/>
  <outline>
    <contour>
      <point x="1184" y="608" type="line" smooth="yes"/>
      <point x="1184" y="320"/>
      <point x="964" y="208"/>
      <point x="788" y="208" type="curve" smooth="yes"/>
      <point x="592" y="208"/>
      <point x="452" y="336"/>
      <point x="452" y="560" type="curve" smooth="yes"/>
      <point x="452" y="1536" type="line"/>
      <point x="216" y="1536" type="line"/>
      <point x="216" y="560" type="line" smooth="yes"/>
      <point x="216" y="156"/>
      <point x="488" y="-20"/>
      <point x="712" y="-20" type="curve" smooth="yes"/>
      <point x="944" y="-20"/>
      <point x="1092" y="100"/>
      <point x="1168" y="216" type="curve"/>
      <point x="1184" y="216" type="line"/>
      <point x="1184" y="0" type="line"/>
      <point x="1420" y="0" type="line"/>
      <point x="1420" y="1536" type="line"/>
      <point x="1184" y="1536" type="line"/>
    </contour>
  </outline>
</glyph>
<glyph name="v" format="2">
  <advance width="1568"/>
  <unicode hex="0076"/>
  <guideline x="776" y="360" angle="90" identifier="h1yrn56hNZ"/>
  <anchor x="760" y="1792" name="top"/>
  <anchor x="760" y="0" name="bottom"/>
  <anchor x="1360" y="2200" name="top_dd"/>
  <anchor x="1360" y="-560" name="bottom_dd"/>
  <anchor x="1400" y="1792" name="top0315"/>
  <outline>
    <contour>
      <point x="1472" y="1536" type="line"/>
      <point x="1216" y="1536" type="line"/>
      <point x="792" y="312" type="line"/>
      <point x="776" y="312" type="line"/>
      <point x="352" y="1536" type="line"/>
      <point x="96" y="1536" type="line"/>
      <point x="664" y="0" type="line"/>
      <point x="904" y="0" type="line"/>
    </contour>
  </outline>
</glyph>
<glyph name="w" format="2">
  <advance width="2288"/>
  <unicode hex="0077"/>
  <guideline x="1136" y="1108" angle="90" identifier="brGBjyiyhP"/>
  <anchor x="1144" y="1792" name="top"/>
  <anchor x="1144" y="0" name="bottom"/>
  <anchor x="1144" y="1792" name="marktop"/>
  <anchor x="2108" y="2200" name="top_dd"/>
  <anchor x="2108" y="-560" name="bottom_dd"/>
  <anchor x="2108" y="1776" name="top0315"/>
  <outline>
    <contour>
      <point x="2192" y="1536" type="line"/>
      <point x="1944" y="1536" type="line" smooth="yes"/>
      <point x="1612" y="364" type="line"/>
      <point x="1596" y="364" type="line"/>
      <point x="1272" y="1536" type="line"/>
      <point x="1020" y="1536" type="line"/>
      <point x="692" y="360" type="line"/>
      <point x="676" y="360" type="line"/>
      <point x="344" y="1536" type="line" smooth="yes"/>
      <point x="96" y="1536" type="line"/>
      <point x="564" y="0" type="line"/>
      <point x="796" y="0" type="line"/>
      <point x="1132" y="1180" type="line"/>
      <point x="1156" y="1180" type="line"/>
      <point x="1492" y="0" type="line"/>
      <point x="1724" y="0" type="line"/>
    </contour>
  </outline>
</glyph>
<glyph name="x" format="2">
  <advance width="1520"/>
  <unicode hex="0078"/>
  <guideline x="752" y="868" angle="90" identifier="eIkzqYzFqS"/>
  <anchor x="760" y="0" name="bottom"/>
  <anchor x="1184" y="0" name="right"/>
  <anchor x="692" y="760" name="cross"/>
  <anchor x="760" y="1792" name="top"/>
  <anchor x="1396" y="2200" name="top_dd"/>
  <anchor x="1396" y="-560" name="bottom_dd"/>
  <anchor x="1396" y="1760" name="top0315"/>
  <outline>
    <contour>
      <point x="392" y="1536" type="line"/>
      <point x="120" y="1536" type="line"/>
      <point x="608" y="768" type="line"/>
      <point x="120" y="0" type="line"/>
      <point x="392" y="0" type="line"/>
      <point x="760" y="596" type="line"/>
      <point x="1128" y="0" type="line"/>
      <point x="1400" y="0" type="line"/>
      <point x="904" y="768" type="line"/>
      <point x="1400" y="1536" type="line"/>
      <point x="1128" y="1536" type="line"/>
      <point x="760" y="908" type="line"/>
    </contour>
  </outline>
</glyph>
<glyph name="y" format="2">
  <advance width="1568"/>
  <unicode hex="0079"/>
  <guideline x="776" y="1488" angle="90" identifier="RFBVcEUvJb"/>
  <anchor x="780" y="1792" name="top"/>
  <anchor x="564" y="-576" name="bottom"/>
  <anchor x="780" y="1792" name="marktop"/>
  <anchor x="1164" y="2176" name="top_dd"/>
  <anchor x="1088" y="-576" name="bottom_dd"/>
  <anchor x="780" y="896" name="rhotichook"/>
  <anchor x="1356" y="1792" name="top0315"/>
  <outline>
    <contour>
      <point x="612" y="-152" type="line" smooth="yes"/>
      <point x="524" y="-380"/>
      <point x="416" y="-400"/>
      <point x="248" y="-360" type="curve"/>
      <point x="188" y="-568" type="line"/>
      <point x="212" y="-580"/>
      <point x="280" y="-596"/>
      <point x="360" y="-596" type="curve" smooth="yes"/>
      <point x="572" y="-596"/>
      <point x="724" y="-484"/>
      <point x="812" y="-248" type="curve" smooth="yes"/>
      <point x="1472" y="1536" type="line"/>
      <point x="1216" y="1536" type="line"/>
      <point x="748" y="184" type="line"/>
      <point x="676" y="16" type="line"/>
    </contour>
    <contour>
      <point x="352" y="1536" type="line"/>
      <point x="96" y="1536" type="line"/>
      <point x="680" y="-48" type="line"/>
      <point x="864" y="56" type="line"/>
    </contour>
    <contour>
      <point x="760" y="260" type="line"/>
      <point x="808" y="260" type="line"/>
      <point x="808" y="312" type="line"/>
      <point x="760" y="312" type="line"/>
    </contour>
  </outline>
</glyph>
<glyph name="z" format="2">
  <advance width="1524"/>
  <unicode hex="007A"/>
  <guideline x="752" y="500" angle="90" identifier="Q3zGe0A3YU"/>
  <anchor x="760" y="1792" name="top"/>
  <anchor x="760" y="0" name="bottom"/>
  <anchor x="1396" y="2200" name="top_dd"/>
  <anchor x="1396" y="-560" name="bottom_dd"/>
  <anchor x="1396" y="1776" name="top0315"/>
  <outline>
    <contour>
      <point x="1364" y="220" type="line"/>
      <point x="280" y="220" type="line"/>
      <point x="280" y="0" type="line"/>
      <point x="1364" y="0" type="line"/>
    </contour>
    <contour>
      <point x="1344" y="1348" type="line"/>
      <point x="1344" y="1536" type="line"/>
      <point x="1208" y="1536" type="line"/>
      <point x="176" y="200" type="line"/>
      <point x="176" y="0" type="line"/>
      <point x="316" y="0" type="line"/>
    </contour>
    <contour>
      <point x="1224" y="1536" type="line"/>
      <point x="160" y="1536" type="line"/>
      <point x="160" y="1316" type="line"/>
      <point x="1224" y="1316" type="line"/>
    </contour>
  </outline>
</glyph>
<glyph name="bar" format="2">
  <advance width="748"/>
  <unicode hex="007C"/>
  <outline>
    <contour>
      <point x="484" y="2048" type="line"/>
      <point x="264" y="2048" type="line"/>
      <point x="264" y="-384" type="line"/>
      <point x="484" y="-384" type="line"/>
    </contour>
  </outline>
</glyph>
<glyph name="asciitilde" format="2">
  <advance width="1680"/>
  <unicode hex="007E"/>
  <guideline x="784" y="880" angle="315.3603460634" identifier="0kBtwIPaWO"/>
  <guideline x="904" y="1068" angle="315.5305013167" identifier="MEkY32mVO6"/>
  <outline>
    <contour>
      <point x="1320" y="1172" type="line"/>
      <point x="1320" y="996"/>
      <point x="1236" y="928"/>
      <point x="1132" y="928" type="curve" smooth="yes"/>
      <point x="1044" y="928"/>
      <point x="988" y="976"/>
      <point x="900" y="1064" type="curve" smooth="yes"/>
      <point x="780" y="1184"/>
      <point x="668" y="1236"/>
      <point x="544" y="1236" type="curve" smooth="yes"/>
      <point x="316" y="1236"/>
      <point x="144" y="1060"/>
      <point x="140" y="768" type="curve"/>
      <point x="360" y="768" type="line"/>
      <point x="372" y="936"/>
      <point x="448" y="1008"/>
      <point x="556" y="1008" type="curve" smooth="yes"/>
      <point x="636" y="1008"/>
      <point x="700" y="968"/>
      <point x="780" y="876" type="curve" smooth="yes"/>
      <point x="884" y="760"/>
      <point x="1004" y="700"/>
      <point x="1140" y="700" type="curve" smooth="yes"/>
      <point x="1372" y="700"/>
      <point x="1544" y="880"/>
      <point x="1540" y="1172" type="curve"/>
    </contour>
  </outline>
</glyph>
<glyph name="cent" format="2">
  <advance width="1572"/>
  <unicode hex="00A2"/>
  <guideline x="832" y="1440" angle="90" identifier="wuMSBoHJV1"/>
  <outline>
    <contour>
      <point x="948" y="1812" type="line"/>
      <point x="728" y="1812" type="line"/>
      <point x="728" y="1412" type="line"/>
      <point x="948" y="1412" type="line"/>
    </contour>
    <contour>
      <point x="948" y="64" type="line"/>
      <point x="728" y="64" type="line"/>
      <point x="728" y="-336" type="line"/>
      <point x="948" y="-336" type="line"/>
    </contour>
    <component base="c"/>
  </outline>
</glyph>
<glyph name="currency" format="2">
  <advance width="2036"/>
  <unicode hex="00A4"/>
  <guideline x="1004" y="1696" angle="90" identifier="3sikumsExN"/>
  <guideline x="176" y="836" angle="0" identifier="7bzQC7INah"/>
  <outline>
    <contour>
      <point x="416" y="836" type="curve"/>
      <point x="416" y="1192"/>
      <point x="684" y="1480"/>
      <point x="1012" y="1480" type="curve" smooth="yes"/>
      <point x="1340" y="1480"/>
      <point x="1604" y="1192"/>
      <point x="1604" y="836" type="curve" smooth="yes"/>
      <point x="1604" y="484"/>
      <point x="1340" y="192"/>
      <point x="1012" y="192" type="curve" smooth="yes"/>
      <point x="684" y="192"/>
      <point x="416" y="484"/>
    </contour>
    <contour>
      <point x="196" y="836" type="curve"/>
      <point x="196" y="348"/>
      <point x="560" y="-28"/>
      <point x="1012" y="-28" type="curve" smooth="yes"/>
      <point x="1464" y="-28"/>
      <point x="1832" y="348"/>
      <point x="1832" y="836" type="curve" smooth="yes"/>
      <point x="1832" y="1324"/>
      <point x="1464" y="1696"/>
      <point x="1012" y="1696" type="curve" smooth="yes"/>
      <point x="560" y="1696"/>
      <point x="196" y="1324"/>
    </contour>
    <contour>
      <point x="1872" y="1556" type="line"/>
      <point x="1708" y="1724" type="line"/>
      <point x="1432" y="1440" type="line"/>
      <point x="1592" y="1272" type="line"/>
    </contour>
    <contour>
      <point x="604" y="264" type="line"/>
      <point x="440" y="428" type="line"/>
      <point x="164" y="148" type="line"/>
      <point x="324" y="-20" type="line"/>
    </contour>
    <contour>
      <point x="1708" y="-20" type="line"/>
      <point x="1872" y="148" type="line"/>
      <point x="1592" y="428" type="line"/>
      <point x="1432" y="264" type="line"/>
    </contour>
    <contour>
      <point x="440" y="1272" type="line"/>
      <point x="604" y="1440" type="line"/>
      <point x="324" y="1724" type="line"/>
      <point x="164" y="1556" type="line"/>
    </contour>
  </outline>
</glyph>
<glyph name="yen" format="2">
  <advance width="1544"/>
  <unicode hex="00A5"/>
  <guideline x="768" y="48" angle="90" identifier="SchC2YkpPJ"/>
  <outline>
    <contour>
      <point x="1344" y="1020" type="line"/>
      <point x="200" y="1020" type="line"/>
      <point x="200" y="840" type="line"/>
      <point x="1344" y="840" type="line"/>
    </contour>
    <contour>
      <point x="1344" y="624" type="line"/>
      <point x="200" y="624" type="line"/>
      <point x="200" y="444" type="line"/>
      <point x="1344" y="444" type="line"/>
    </contour>
    <contour>
      <point x="704" y="908" type="line"/>
      <point x="732" y="828" type="line"/>
      <point x="896" y="828" type="line"/>
      <point x="1504" y="2048" type="line"/>
      <point x="1228" y="2048" type="line"/>
    </contour>
    <contour>
      <point x="316" y="2048" type="line"/>
      <point x="40" y="2048" type="line"/>
      <point x="648" y="828" type="line"/>
      <point x="812" y="828" type="line"/>
      <point x="840" y="908" type="line"/>
    </contour>
    <contour>
      <point x="896" y="1076" type="line"/>
      <point x="648" y="1076" type="line"/>
      <point x="648" y="0" type="line"/>
      <point x="896" y="0" type="line"/>
    </contour>
  </outline>
</glyph>
<glyph name="brokenbar" format="2">
  <advance width="748"/>
  <unicode hex="00A6"/>
  <guideline x="500" y="832" angle="0" identifier="3124TJ90j7"/>
  <guideline x="752" y="1116" angle="0" identifier="g5LM7IfvNn"/>
  <guideline x="752" y="552" angle="0" identifier="6QeJOfLNCw"/>
  <outline>
    <contour>
      <point x="264" y="552" type="line"/>
      <point x="264" y="-384" type="line"/>
      <point x="484" y="-384" type="line"/>
      <point x="484" y="552" type="line"/>
    </contour>
    <contour>
      <point x="484" y="2048" type="line"/>
      <point x="264" y="2048" type="line"/>
      <point x="264" y="1116" type="line"/>
      <point x="484" y="1116" type="line"/>
    </contour>
  </outline>
</glyph>
<glyph name="dieresis" format="2">
  <advance width="1648"/>
  <unicode hex="00A8"/>
  <anchor x="824" y="1792" name="_top"/>
  <anchor x="824" y="2172" name="mkmktop_acc"/>
  <outline>
    <contour>
      <point x="540" y="1756" type="curve" smooth="yes"/>
      <point x="632" y="1756"/>
      <point x="700" y="1832"/>
      <point x="700" y="1916" type="curve" smooth="yes"/>
      <point x="700" y="2008"/>
      <point x="632" y="2076"/>
      <point x="540" y="2076" type="curve" smooth="yes"/>
      <point x="456" y="2076"/>
      <point x="380" y="2008"/>
      <point x="380" y="1916" type="curve" smooth="yes"/>
      <point x="380" y="1832"/>
      <point x="456" y="1756"/>
    </contour>
    <contour>
      <point x="1108" y="1756" type="curve" smooth="yes"/>
      <point x="1200" y="1756"/>
      <point x="1268" y="1832"/>
      <point x="1268" y="1916" type="curve" smooth="yes"/>
      <point x="1268" y="2008"/>
      <point x="1200" y="2076"/>
      <point x="1108" y="2076" type="curve" smooth="yes"/>
      <point x="1024" y="2076"/>
      <point x="948" y="2008"/>
      <point x="948" y="1916" type="curve" smooth="yes"/>
      <point x="948" y="1832"/>
      <point x="1024" y="1756"/>
    </contour>
  </outline>
</glyph>
<glyph name="logicalnot" format="2">
  <advance width="1520"/>
  <unicode hex="00AC"/>
  <outline>
    <contour>
      <point x="1336" y="1108" type="line"/>
      <point x="188" y="1108" type="line"/>
      <point x="188" y="872" type="line"/>
      <point x="1336" y="872" type="line"/>
    </contour>
    <contour>
      <point x="1336" y="1000" type="line"/>
      <point x="1060" y="1000" type="line"/>
      <point x="1060" y="516" type="line"/>
      <point x="1336" y="516" type="line"/>
    </contour>
  </outline>
</glyph>
<glyph name="macron" format="2">
  <advance width="1264"/>
  <unicode hex="00AF"/>
  <anchor x="624" y="1764" name="_top"/>
  <anchor x="624" y="2172" name="mkmktop_acc"/>
  <outline>
    <contour>
      <point x="1104" y="1988" type="line"/>
      <point x="164" y="1988" type="line"/>
      <point x="164" y="1784" type="line"/>
      <point x="1104" y="1784" type="line"/>
    </contour>
  </outline>
</glyph>
<glyph name="plusminus" format="2">
  <advance width="1808"/>
  <unicode hex="00B1"/>
  <outline>
    <contour>
      <point x="1544" y="220" type="line"/>
      <point x="264" y="220" type="line"/>
      <point x="264" y="0" type="line"/>
      <point x="1544" y="0" type="line"/>
    </contour>
    <contour>
      <point x="1544" y="1096" type="line"/>
      <point x="1020" y="1096" type="line"/>
      <point x="1020" y="1536" type="line"/>
      <point x="788" y="1536" type="line"/>
      <point x="788" y="1096" type="line"/>
      <point x="264" y="1096" type="line"/>
      <point x="264" y="872" type="line"/>
      <point x="788" y="872" type="line"/>
      <point x="788" y="432" type="line"/>
      <point x="1020" y="432" type="line"/>
      <point x="1020" y="872" type="line"/>
      <point x="1544" y="872" type="line"/>
    </contour>
  </outline>
</glyph>
<glyph name="acute" format="2">
  <advance width="768"/>
  <unicode hex="00B4"/>
  <anchor x="312" y="1776" name="_top"/>
  <anchor x="312" y="2268" name="mkmktop_acc"/>
  <outline>
    <contour>
      <point x="188" y="1704" type="line"/>
      <point x="364" y="1704" type="line"/>
      <point x="672" y="2112" type="line"/>
      <point x="428" y="2112" type="line"/>
    </contour>
  </outline>
</glyph>
<glyph name="mu" format="2">
  <advance width="1636"/>
  <unicode hex="00B5"/>
  <guideline x="1300" y="692" angle="0" identifier="ljZ0L1j7iQ"/>
  <guideline x="1300" y="304" angle="0" identifier="YNfsT8soN6"/>
  <guideline x="1204" y="400" angle="0" identifier="WJ9CZulunU"/>
  <outline>
    <contour>
      <point x="1196" y="1536" type="line"/>
      <point x="1196" y="344" type="line"/>
      <point x="1224" y="0" type="line"/>
      <point x="1420" y="0" type="line"/>
      <point x="1420" y="1536" type="line"/>
    </contour>
    <contour>
      <point x="1196" y="692" type="line"/>
      <point x="1196" y="360"/>
      <point x="1012" y="212"/>
      <point x="824" y="212" type="curve" smooth="yes"/>
      <point x="636" y="212"/>
      <point x="452" y="360"/>
      <point x="452" y="692" type="curve"/>
      <point x="340" y="692" type="line"/>
      <point x="340" y="240"/>
      <point x="544" y="-28"/>
      <point x="828" y="-28" type="curve" smooth="yes"/>
      <point x="1112" y="-28"/>
      <point x="1308" y="240"/>
      <point x="1308" y="692" type="curve"/>
    </contour>
    <contour>
      <point x="216" y="1536" type="line"/>
      <point x="216" y="-572" type="line"/>
      <point x="452" y="-572" type="line"/>
      <point x="452" y="1536" type="line"/>
    </contour>
  </outline>
</glyph>
<glyph name="multiply" format="2">
  <advance width="1808"/>
  <unicode hex="00D7"/>
  <outline>
    <contour>
      <point x="452" y="280" type="line"/>
      <point x="1524" y="1372" type="line"/>
      <point x="1372" y="1528" type="line"/>
      <point x="300" y="436" type="line"/>
    </contour>
    <contour>
      <point x="1356" y="280" type="line"/>
      <point x="1508" y="436" type="line"/>
      <point x="436" y="1528" type="line"/>
      <point x="284" y="1372" type="line"/>
    </contour>
  </outline>
</glyph>
<glyph name="Oslash" format="2">
  <advance width="2144"/>
  <unicode hex="00D8"/>
  <guideline x="396" y="-96" angle="145.6539025999" identifier="XG1F7RgTZr"/>
  <guideline x="1016" y="1852" angle="90" identifier="OyBYzEuBSd"/>
  <guideline x="1016" y="1024" angle="56.0077423462" identifier="r16FkrlpHU"/>
  <anchor x="1068" y="2304" name="top"/>
  <anchor x="2020" y="2200" name="top_dd"/>
  <anchor x="2020" y="2304" name="top0315"/>
  <outline>
    <contour>
      <point x="432" y="-84" type="line"/>
      <point x="1856" y="2024" type="line"/>
      <point x="1704" y="2128" type="line"/>
      <point x="280" y="20" type="line"/>
    </contour>
    <component base="O"/>
  </outline>
</glyph>
<glyph name="eth" format="2">
  <advance width="1632"/>
  <unicode hex="00F0"/>
  <outline>
    <contour>
      <point x="1328" y="1948" type="line"/>
      <point x="1260" y="2096" type="line"/>
      <point x="440" y="1700" type="line"/>
      <point x="508" y="1552" type="line"/>
    </contour>
    <contour>
      <point x="816" y="-32" type="curve" smooth="yes"/>
      <point x="1220" y="-32"/>
      <point x="1488" y="256"/>
      <point x="1488" y="752" type="curve" smooth="yes"/>
      <point x="1488" y="1452"/>
      <point x="1008" y="1944"/>
      <point x="560" y="2176" type="curve"/>
      <point x="456" y="2008" type="line"/>
      <point x="932" y="1764"/>
      <point x="1132" y="1428"/>
      <point x="1220" y="1180" type="curve"/>
      <point x="1200" y="1180" type="line"/>
      <point x="1132" y="1300"/>
      <point x="988" y="1440"/>
      <point x="756" y="1440" type="curve" smooth="yes"/>
      <point x="416" y="1440"/>
      <point x="144" y="1140"/>
      <point x="144" y="704" type="curve" smooth="yes"/>
      <point x="144" y="276"/>
      <point x="404" y="-32"/>
    </contour>
    <contour>
      <point x="816" y="180" type="curve" smooth="yes"/>
      <point x="508" y="180"/>
      <point x="380" y="432"/>
      <point x="380" y="704" type="curve" smooth="yes"/>
      <point x="380" y="992"/>
      <point x="524" y="1244"/>
      <point x="816" y="1244" type="curve" smooth="yes"/>
      <point x="1132" y="1244"/>
      <point x="1260" y="948"/>
      <point x="1260" y="688" type="curve" smooth="yes"/>
      <point x="1260" y="404"/>
      <point x="1108" y="180"/>
    </contour>
  </outline>
</glyph>
<glyph name="divide" format="2">
  <advance width="1808"/>
  <unicode hex="00F7"/>
  <outline>
    <contour>
      <point x="1544" y="1008" type="line"/>
      <point x="264" y="1008" type="line"/>
      <point x="264" y="788" type="line"/>
      <point x="1544" y="788" type="line"/>
    </contour>
    <contour>
      <point x="736" y="1408" type="curve" smooth="yes"/>
      <point x="736" y="1320"/>
      <point x="792" y="1252"/>
      <point x="904" y="1252" type="curve" smooth="yes"/>
      <point x="1012" y="1252"/>
      <point x="1072" y="1320"/>
      <point x="1072" y="1408" type="curve" smooth="yes"/>
      <point x="1072" y="1500"/>
      <point x="1012" y="1568"/>
      <point x="904" y="1568" type="curve" smooth="yes"/>
      <point x="792" y="1568"/>
      <point x="736" y="1500"/>
    </contour>
    <contour>
      <point x="736" y="380" type="curve" smooth="yes"/>
      <point x="736" y="292"/>
      <point x="792" y="224"/>
      <point x="904" y="224" type="curve" smooth="yes"/>
      <point x="1012" y="224"/>
      <point x="1072" y="292"/>
      <point x="1072" y="380" type="curve" smooth="yes"/>
      <point x="1072" y="472"/>
      <point x="1012" y="544"/>
      <point x="904" y="544" type="curve" smooth="yes"/>
      <point x="792" y="544"/>
      <point x="736" y="472"/>
    </contour>
  </outline>
</glyph>
<glyph name="oslash" format="2">
  <advance width="1680"/>
  <unicode hex="00F8"/>
  <guideline x="832" y="1232" angle="90" identifier="RPZnk4yqqa"/>
  <guideline x="832" y="768" angle="55.9902048803" identifier="lcbgR51Zr4"/>
  <guideline x="948" y="1556" angle="0" identifier="kyd7Q6J7Bg"/>
  <guideline x="1040" y="-32" angle="0" identifier="YLuZmRyAzq"/>
  <anchor x="852" y="1792" name="top"/>
  <anchor x="1612" y="2200" name="top_dd"/>
  <anchor x="1596" y="1792" name="top0315"/>
  <outline>
    <contour>
      <point x="380" y="-84" type="line"/>
      <point x="1452" y="1504" type="line"/>
      <point x="1300" y="1608" type="line"/>
      <point x="228" y="20" type="line"/>
    </contour>
    <component base="o"/>
  </outline>
</glyph>
<glyph name="thorn" format="2">
  <advance width="1716"/>
  <unicode hex="00FE"/>
  <outline>
    <contour>
      <point x="216" y="2048" type="line"/>
      <point x="216" y="-576" type="line"/>
      <point x="452" y="-576" type="line"/>
      <point x="452" y="288" type="line"/>
      <point x="392" y="784" type="line"/>
      <point x="452" y="1172" type="line"/>
      <point x="452" y="2048" type="line"/>
    </contour>
    <component base="rightloop.cn" xOffset="52"/>
  </outline>
</glyph>
<glyph name="Hbar" format="2">
  <advance width="2032"/>
  <unicode hex="0126"/>
  <anchor x="1032" y="2304" name="top"/>
  <anchor x="1016" y="16" name="bottom"/>
  <anchor x="1996" y="2216" name="top0315"/>
  <outline>
    <contour>
      <point x="2000" y="1616" type="line"/>
      <point x="84" y="1616" type="line"/>
      <point x="84" y="1408" type="line"/>
      <point x="2000" y="1408" type="line"/>
    </contour>
    <component base="H" xOffset="4"/>
  </outline>
</glyph>
<glyph name="dotlessi" format="2">
  <advance width="668"/>
  <unicode hex="0131"/>
  <anchor x="344" y="1796" name="top"/>
  <anchor x="332" y="0" name="bottom"/>
  <anchor x="352" y="900" name="rhotichook"/>
  <anchor x="672" y="1776" name="top0315"/>
  <outline>
    <contour>
      <point x="452" y="1536" type="line"/>
      <point x="216" y="1536" type="line"/>
      <point x="216" y="0" type="line"/>
      <point x="452" y="0" type="line"/>
    </contour>
  </outline>
</glyph>
<glyph name="kgreenlandic" format="2">
  <advance width="1776"/>
  <unicode hex="0138"/>
  <anchor x="848" y="1776" name="top"/>
  <anchor x="848" y="16" name="bottom"/>
  <anchor x="1608" y="1776" name="top0315"/>
  <outline>
    <contour>
      <point x="516" y="1488" type="line"/>
      <point x="240" y="1488" type="line"/>
      <point x="240" y="0" type="line"/>
      <point x="516" y="0" type="line"/>
    </contour>
    <contour>
      <point x="1492" y="1488" type="line"/>
      <point x="1160" y="1488" type="line"/>
      <point x="628" y="864" type="line"/>
      <point x="380" y="864" type="line"/>
      <point x="424" y="628" type="line"/>
      <point x="752" y="628" type="line"/>
    </contour>
    <contour>
      <point x="1188" y="0" type="line"/>
      <point x="1536" y="0" type="line"/>
      <point x="792" y="864" type="line"/>
      <point x="616" y="668" type="line"/>
    </contour>
  </outline>
</glyph>
<glyph name="L_slash" format="2">
  <advance width="1584"/>
  <unicode hex="0141"/>
  <anchor x="372" y="2304" name="top"/>
  <anchor x="860" y="16" name="bottom"/>
  <anchor x="1532" y="2200" name="top0315"/>
  <outline>
    <contour>
      <point x="872" y="1280" type="line"/>
      <point x="60" y="1024" type="line"/>
      <point x="60" y="844" type="line"/>
      <point x="872" y="1100" type="line"/>
    </contour>
    <component base="L"/>
  </outline>
</glyph>
<glyph name="lslash" format="2">
  <advance width="668"/>
  <unicode hex="0142"/>
  <anchor x="376" y="2304" name="top"/>
  <anchor x="388" y="16" name="bottom"/>
  <anchor x="768" y="2336" name="top0315"/>
  <outline>
    <contour>
      <point x="672" y="1280" type="line"/>
      <point x="-4" y="1024" type="line"/>
      <point x="-4" y="848" type="line"/>
      <point x="672" y="1104" type="line"/>
    </contour>
    <component base="l"/>
  </outline>
</glyph>
<glyph name="Eng" format="2">
  <advance width="2080"/>
  <unicode hex="014A"/>
  <anchor x="1036" y="2200" name="top"/>
  <anchor x="1028" y="16" name="bottom"/>
  <anchor x="1984" y="2200" name="top0315"/>
  <outline>
    <contour>
      <point x="1584" y="36" type="line"/>
      <point x="1584" y="-160" type="line" smooth="yes"/>
      <point x="1584" y="-320"/>
      <point x="1492" y="-368"/>
      <point x="1364" y="-368" type="curve" smooth="yes"/>
      <point x="1336" y="-368"/>
      <point x="1308" y="-364"/>
      <point x="1288" y="-360" type="curve"/>
      <point x="1288" y="-564" type="line"/>
      <point x="1324" y="-576"/>
      <point x="1376" y="-576"/>
      <point x="1424" y="-576" type="curve" smooth="yes"/>
      <point x="1648" y="-576"/>
      <point x="1832" y="-428"/>
      <point x="1832" y="-164" type="curve" smooth="yes"/>
      <point x="1832" y="36" type="line"/>
    </contour>
    <component base="N"/>
  </outline>
</glyph>
<glyph name="eng" format="2">
  <advance width="1636"/>
  <unicode hex="014B"/>
  <anchor x="752" y="1776" name="top"/>
  <anchor x="736" y="16" name="bottom"/>
  <anchor x="1068" y="-420" name="parenthesses.w1"/>
  <anchor x="736" y="16" name="markbottom"/>
  <anchor x="1568" y="1776" name="top0315"/>
  <outline>
    <contour>
      <point x="1184" y="36" type="line"/>
      <point x="1184" y="-164" type="line" smooth="yes"/>
      <point x="1184" y="-324"/>
      <point x="1088" y="-372"/>
      <point x="960" y="-372" type="curve" smooth="yes"/>
      <point x="932" y="-372"/>
      <point x="904" y="-368"/>
      <point x="884" y="-364" type="curve"/>
      <point x="884" y="-564" type="line"/>
      <point x="920" y="-576"/>
      <point x="972" y="-576"/>
      <point x="1020" y="-576" type="curve" smooth="yes"/>
      <point x="1244" y="-576"/>
      <point x="1420" y="-428"/>
      <point x="1420" y="-164" type="curve" smooth="yes"/>
      <point x="1420" y="36" type="line"/>
    </contour>
    <component base="n"/>
  </outline>
</glyph>
<glyph name="longs" format="2">
  <advance width="752"/>
  <unicode hex="017F"/>
  <anchor x="420" y="2420" name="top"/>
  <anchor x="168" y="16" name="bottom"/>
  <anchor x="532" y="2420" name="top0315"/>
  <outline>
    <contour>
      <point x="316" y="0" type="line"/>
      <point x="316" y="1640" type="line" smooth="yes"/>
      <point x="316" y="1816"/>
      <point x="400" y="1920"/>
      <point x="560" y="1920" type="curve" smooth="yes"/>
      <point x="608" y="1920"/>
      <point x="648" y="1916"/>
      <point x="680" y="1908" type="curve"/>
      <point x="712" y="2112" type="line"/>
      <point x="648" y="2128"/>
      <point x="580" y="2140"/>
      <point x="516" y="2140" type="curve" smooth="yes"/>
      <point x="220" y="2140"/>
      <point x="40" y="1964"/>
      <point x="40" y="1640" type="curve" smooth="yes"/>
      <point x="40" y="0" type="line"/>
    </contour>
  </outline>
</glyph>
<glyph name="Khook" format="2">
  <advance width="1892"/>
  <unicode hex="0198"/>
  <guideline x="1244" y="1840" angle="227.6988134215" identifier="S7eiXxBirM"/>
  <guideline x="1436" y="1704" angle="227.6400104191" identifier="xgAQJrAhy0"/>
  <outline>
    <contour>
      <point x="1444" y="1704" type="line"/>
      <point x="1488" y="1752" type="line" smooth="yes"/>
      <point x="1592" y="1868"/>
      <point x="1680" y="1868"/>
      <point x="1768" y="1812" type="curve"/>
      <point x="1868" y="1996" type="line"/>
      <point x="1704" y="2112"/>
      <point x="1492" y="2104"/>
      <point x="1332" y="1928" type="curve" smooth="yes"/>
      <point x="1252" y="1840" type="line"/>
    </contour>
    <contour>
      <point x="496" y="2048" type="line"/>
      <point x="248" y="2048" type="line"/>
      <point x="248" y="0" type="line"/>
      <point x="496" y="0" type="line"/>
    </contour>
    <contour>
      <point x="1464" y="0" type="line"/>
      <point x="1764" y="0" type="line"/>
      <point x="872" y="1168" type="line"/>
      <point x="736" y="976" type="line"/>
    </contour>
    <contour>
      <point x="1252" y="1840" type="line"/>
      <point x="520" y="1032" type="line"/>
      <point x="448" y="1032" type="line"/>
      <point x="448" y="612" type="line"/>
      <point x="760" y="960" type="line"/>
      <point x="772" y="980" type="line"/>
      <point x="1444" y="1704" type="line"/>
    </contour>
  </outline>
</glyph>
<glyph name="lambdabar" format="2">
  <advance width="1776"/>
  <unicode hex="019B"/>
  <anchor x="1336" y="2216" name="top0315"/>
  <outline>
    <contour>
      <point x="944" y="1952" type="line"/>
      <point x="268" y="1692" type="line"/>
      <point x="268" y="1460" type="line"/>
      <point x="944" y="1716" type="line"/>
    </contour>
    <component base="lambda" xOffset="-16"/>
  </outline>
</glyph>
<glyph name="Ohorn" format="2">
  <advance width="2180"/>
  <unicode hex="01A0"/>
  <anchor x="1020" y="2304" name="top"/>
  <anchor x="988" y="0" name="bottom"/>
  <anchor x="1964" y="2192" name="top0315"/>
  <outline>
    <contour>
      <point x="1904" y="2196" type="line"/>
      <point x="1904" y="1964"/>
      <point x="1812" y="1828"/>
      <point x="1604" y="1828" type="curve"/>
      <point x="1604" y="1632" type="line"/>
      <point x="1960" y="1632"/>
      <point x="2140" y="1836"/>
      <point x="2140" y="2196" type="curve"/>
    </contour>
    <component base="O"/>
  </outline>
</glyph>
<glyph name="ohorn" format="2">
  <advance width="1700"/>
  <unicode hex="01A1"/>
  <anchor x="912" y="1792" name="top"/>
  <anchor x="812" y="-16" name="bottom"/>
  <anchor x="1628" y="1776" name="top0315"/>
  <outline>
    <contour>
      <point x="1464" y="1652" type="line"/>
      <point x="1464" y="1456"/>
      <point x="1436" y="1324"/>
      <point x="1236" y="1324" type="curve"/>
      <point x="1236" y="1156" type="line"/>
      <point x="1568" y="1156"/>
      <point x="1684" y="1348"/>
      <point x="1684" y="1652" type="curve"/>
    </contour>
    <component base="o"/>
  </outline>
</glyph>
<glyph name="Uhorn" format="2">
  <advance width="2404"/>
  <unicode hex="01AF"/>
  <guideline x="1036" y="244" angle="90" identifier="ruBntSmSbL"/>
  <anchor x="1044" y="2304" name="top"/>
  <anchor x="1044" y="-28" name="bottom"/>
  <anchor x="1976" y="2216" name="top0315"/>
  <outline>
    <contour>
      <point x="2068" y="2172" type="line"/>
      <point x="2068" y="1908"/>
      <point x="1992" y="1768"/>
      <point x="1712" y="1768" type="curve"/>
      <point x="1712" y="1572" type="line"/>
      <point x="2136" y="1572"/>
      <point x="2300" y="1780"/>
      <point x="2300" y="2172" type="curve"/>
    </contour>
    <component base="U"/>
  </outline>
</glyph>
<glyph name="uhorn" format="2">
  <advance width="1752"/>
  <unicode hex="01B0"/>
  <anchor x="832" y="1792" name="top"/>
  <anchor x="1412" y="0" name="right"/>
  <anchor x="1772" y="1744" name="top0315"/>
  <anchor x="708" y="0" name="bottomu"/>
  <anchor x="784" y="0" name="bottom"/>
  <outline>
    <contour>
      <point x="1600" y="1604" type="line"/>
      <point x="1600" y="1396"/>
      <point x="1596" y="1308"/>
      <point x="1348" y="1308" type="curve"/>
      <point x="1348" y="1144" type="line"/>
      <point x="1708" y="1144"/>
      <point x="1808" y="1300"/>
      <point x="1808" y="1604" type="curve"/>
    </contour>
    <component base="u"/>
  </outline>
</glyph>
<glyph name="Yhook" format="2">
  <advance width="1988"/>
  <unicode hex="01B3"/>
  <guideline x="1496" y="1588" angle="238.60308775139998" identifier="ijQGnPqtOm"/>
  <guideline x="1304" y="1724" angle="239.3276742177" identifier="tsgciMzQNw"/>
  <outline>
    <contour>
      <point x="1572" y="1672" type="line"/>
      <point x="1612" y="1740" type="line" smooth="yes"/>
      <point x="1684" y="1864"/>
      <point x="1772" y="1872"/>
      <point x="1868" y="1832" type="curve"/>
      <point x="1932" y="2032" type="line"/>
      <point x="1736" y="2124"/>
      <point x="1532" y="2064"/>
      <point x="1400" y="1844" type="curve" smooth="yes"/>
      <point x="1356" y="1772" type="line"/>
    </contour>
    <contour>
      <point x="916" y="1044" type="line"/>
      <point x="964" y="1044" type="line"/>
      <point x="964" y="1092" type="line"/>
      <point x="916" y="1092" type="line"/>
    </contour>
    <contour>
      <point x="360" y="2048" type="line"/>
      <point x="76" y="2048" type="line"/>
      <point x="816" y="844" type="line"/>
      <point x="816" y="0" type="line"/>
      <point x="1064" y="0" type="line"/>
      <point x="1064" y="844" type="line"/>
      <point x="1572" y="1672" type="line"/>
      <point x="1356" y="1772" type="line"/>
      <point x="940" y="1072" type="line"/>
    </contour>
  </outline>
</glyph>
<glyph name="Gbar" format="2">
  <advance width="2164"/>
  <unicode hex="01E4"/>
  <guideline x="1168" y="744" angle="90" identifier="ZQyUIufVEe"/>
  <guideline x="1072" y="148" angle="90" identifier="vhfPNvYz3M"/>
  <anchor x="1080" y="2304" name="top"/>
  <anchor x="1080" y="-16" name="bottom"/>
  <anchor x="1928" y="2244" name="top0315"/>
  <outline>
    <contour>
      <point x="2124" y="632" type="line"/>
      <point x="1176" y="632" type="line"/>
      <point x="1176" y="412" type="line"/>
      <point x="2124" y="412" type="line"/>
    </contour>
    <contour>
      <point x="1916" y="1016" type="line"/>
      <point x="1176" y="1016" type="line"/>
      <point x="1176" y="800" type="line"/>
      <point x="1676" y="800" type="line"/>
      <point x="1676" y="796" type="line"/>
      <point x="1916" y="796" type="line"/>
    </contour>
    <contour>
      <point x="1900" y="1408" type="line"/>
      <point x="1780" y="1828"/>
      <point x="1472" y="2076"/>
      <point x="1064" y="2076" type="curve" smooth="yes"/>
      <point x="548" y="2076"/>
      <point x="168" y="1672"/>
      <point x="168" y="1024" type="curve"/>
      <point x="168" y="376"/>
      <point x="548" y="-28"/>
      <point x="1080" y="-28" type="curve" smooth="yes"/>
      <point x="1556" y="-28"/>
      <point x="1916" y="292"/>
      <point x="1916" y="796" type="curve"/>
      <point x="1676" y="796" type="line"/>
      <point x="1676" y="448"/>
      <point x="1428" y="204"/>
      <point x="1080" y="204" type="curve" smooth="yes"/>
      <point x="700" y="204"/>
      <point x="408" y="492"/>
      <point x="408" y="1024" type="curve"/>
      <point x="408" y="1556"/>
      <point x="700" y="1844"/>
      <point x="1064" y="1844" type="curve" smooth="yes"/>
      <point x="1328" y="1844"/>
      <point x="1552" y="1692"/>
      <point x="1648" y="1408" type="curve"/>
    </contour>
  </outline>
</glyph>
<glyph name="uni0224" format="2">
  <advance width="1760"/>
  <unicode hex="0224"/>
  <outline>
    <contour>
      <point x="728" y="220" type="line"/>
      <point x="728" y="0" type="line"/>
      <point x="1200" y="0" type="line" smooth="yes"/>
      <point x="1340" y="0"/>
      <point x="1384" y="-112"/>
      <point x="1384" y="-228" type="curve"/>
      <point x="1384" y="-304" type="line"/>
      <point x="1608" y="-304" type="line"/>
      <point x="1608" y="-184" type="line"/>
      <point x="1608" y="56"/>
      <point x="1452" y="220"/>
      <point x="1200" y="220" type="curve" smooth="yes"/>
    </contour>
    <contour>
      <point x="1016" y="220" type="line"/>
      <point x="476" y="220" type="line"/>
      <point x="1580" y="1868" type="line"/>
      <point x="1580" y="2048" type="line"/>
      <point x="168" y="2048" type="line"/>
      <point x="168" y="1828" type="line"/>
      <point x="1284" y="1828" type="line"/>
      <point x="180" y="180" type="line"/>
      <point x="180" y="0" type="line"/>
      <point x="1016" y="0" type="line"/>
    </contour>
  </outline>
</glyph>
<glyph name="dotlessj" format="2">
  <advance width="668"/>
  <unicode hex="0237"/>
  <guideline x="320" y="1516" angle="90" identifier="VsTlZ5z5d6"/>
  <anchor x="336" y="1716" name="top"/>
  <anchor x="652" y="0" name="_right"/>
  <anchor x="688" y="1716" name="top0315"/>
  <outline>
    <contour>
      <point x="216" y="1536" type="line"/>
      <point x="216" y="-112" type="line"/>
      <point x="216" y="-268"/>
      <point x="152" y="-360"/>
      <point x="8" y="-360" type="curve"/>
      <point x="-36" y="-360" type="line"/>
      <point x="-36" y="-580" type="line"/>
      <point x="12" y="-580" type="line"/>
      <point x="308" y="-580"/>
      <point x="452" y="-396"/>
      <point x="452" y="-112" type="curve"/>
      <point x="452" y="1536" type="line"/>
    </contour>
  </outline>
</glyph>
<glyph name="uni023B" format="2">
  <advance width="2048"/>
  <unicode hex="023B"/>
  <guideline x="1016" y="1756" angle="90" identifier="tWn8Wy8qWV"/>
  <outline>
    <contour>
      <point x="636" y="-192" type="line"/>
      <point x="1600" y="2164" type="line"/>
      <point x="1428" y="2236" type="line"/>
      <point x="464" y="-120" type="line"/>
    </contour>
    <component base="C" yOffset="-4"/>
  </outline>
</glyph>
<glyph name="uni0244" format="2">
  <advance width="2088"/>
  <unicode hex="0244"/>
  <guideline x="1036" y="148" angle="90" identifier="GRGaxvC7Z4"/>
  <anchor x="1044" y="2304" name="top"/>
  <anchor x="1044" y="0" name="bottom"/>
  <anchor x="2016" y="2200" name="top0315"/>
  <outline>
    <contour>
      <point x="2096" y="1188" type="line"/>
      <point x="-8" y="1188" type="line"/>
      <point x="-8" y="1024" type="line"/>
      <point x="2096" y="1024" type="line"/>
    </contour>
    <component base="U"/>
  </outline>
</glyph>
<glyph name="uni024C" format="2">
  <advance width="1792"/>
  <unicode hex="024C"/>
  <anchor x="944" y="2200" name="top"/>
  <anchor x="944" y="16" name="bottom"/>
  <anchor x="1920" y="2200" name="top0315"/>
  <outline>
    <contour>
      <point x="256" y="2048" type="line"/>
      <point x="256" y="0" type="line"/>
      <point x="504" y="0" type="line"/>
      <point x="504" y="1828" type="line"/>
      <point x="940" y="1828" type="line" smooth="yes"/>
      <point x="1304" y="1828"/>
      <point x="1384" y="1612"/>
      <point x="1384" y="1420" type="curve" smooth="yes"/>
      <point x="1384" y="1192"/>
      <point x="1272" y="1024"/>
      <point x="912" y="1024" type="curve" smooth="yes"/>
      <point x="8" y="1024" type="line"/>
      <point x="8" y="796" type="line"/>
      <point x="1076" y="796" type="line"/>
      <point x="1152" y="816" type="line"/>
      <point x="1456" y="896"/>
      <point x="1628" y="1100"/>
      <point x="1628" y="1420" type="curve" smooth="yes"/>
      <point x="1628" y="1760"/>
      <point x="1428" y="2048"/>
      <point x="940" y="2048" type="curve"/>
    </contour>
    <contour>
      <point x="1412" y="0" type="line"/>
      <point x="1700" y="0" type="line"/>
      <point x="1232" y="900" type="line"/>
      <point x="952" y="900" type="line"/>
    </contour>
  </outline>
</glyph>
<glyph name="uni024E" format="2">
  <advance width="1856"/>
  <unicode hex="024E"/>
  <guideline x="932" y="1188" angle="90" identifier="gUoCXNXFSN"/>
  <anchor x="928" y="2304" name="top"/>
  <anchor x="928" y="0" name="bottom"/>
  <anchor x="1856" y="2200" name="top0315"/>
  <outline>
    <contour>
      <point x="1860" y="1628" type="line"/>
      <point x="-4" y="1628" type="line"/>
      <point x="-4" y="1464" type="line"/>
      <point x="1860" y="1464" type="line"/>
    </contour>
    <component base="Y" xOffset="-12"/>
  </outline>
</glyph>
<glyph name="uni024F" format="2">
  <advance width="1520"/>
  <unicode hex="024F"/>
  <anchor x="656" y="1776" name="top"/>
  <anchor x="936" y="-216" name="bottom"/>
  <anchor x="1400" y="1776" name="top0315"/>
  <outline>
    <contour>
      <point x="1436" y="1096" type="line"/>
      <point x="92" y="1096" type="line"/>
      <point x="92" y="912" type="line"/>
      <point x="1436" y="912" type="line"/>
    </contour>
    <component base="y"/>
  </outline>
</glyph>
<glyph name="drthook" format="2">
  <advance width="1724"/>
  <unicode hex="0256"/>
  <anchor x="780" y="2200" name="top"/>
  <anchor x="860" y="-616" name="bottom"/>
  <anchor x="1672" y="2200" name="top0315"/>
  <outline>
    <contour>
      <point x="1500" y="292" type="line"/>
      <point x="1264" y="292" type="line"/>
      <point x="1264" y="-164" type="line" smooth="yes"/>
      <point x="1264" y="-428"/>
      <point x="1440" y="-576"/>
      <point x="1664" y="-576" type="curve" smooth="yes"/>
      <point x="1712" y="-576"/>
      <point x="1764" y="-576"/>
      <point x="1800" y="-564" type="curve"/>
      <point x="1800" y="-364" type="line"/>
      <point x="1780" y="-368"/>
      <point x="1752" y="-372"/>
      <point x="1724" y="-372" type="curve" smooth="yes"/>
      <point x="1596" y="-372"/>
      <point x="1500" y="-324"/>
      <point x="1500" y="-164" type="curve" smooth="yes"/>
    </contour>
    <component base="d"/>
  </outline>
</glyph>
<glyph name="Ismallcap" format="2">
  <advance width="1008"/>
  <unicode hex="026A"/>
  <anchor x="500" y="1776" name="top"/>
  <anchor x="500" y="0" name="bottom"/>
  <anchor x="984" y="1776" name="top0315"/>
  <outline>
    <contour>
      <point x="848" y="1488" type="line"/>
      <point x="164" y="1488" type="line"/>
      <point x="164" y="1268" type="line"/>
      <point x="848" y="1268" type="line"/>
    </contour>
    <contour>
      <point x="640" y="1488" type="line"/>
      <point x="364" y="1488" type="line"/>
      <point x="364" y="0" type="line"/>
      <point x="640" y="0" type="line"/>
    </contour>
    <contour>
      <point x="848" y="220" type="line"/>
      <point x="164" y="220" type="line"/>
      <point x="164" y="0" type="line"/>
      <point x="848" y="0" type="line"/>
    </contour>
  </outline>
</glyph>
<glyph name="lrthook" format="2">
  <advance width="668"/>
  <unicode hex="026D"/>
  <anchor x="364" y="2200" name="top"/>
  <anchor x="364" y="-616" name="bottom"/>
  <anchor x="848" y="2200" name="top0315"/>
  <outline>
    <contour>
      <point x="452" y="36" type="line"/>
      <point x="216" y="36" type="line"/>
      <point x="216" y="-164" type="line" smooth="yes"/>
      <point x="216" y="-428"/>
      <point x="392" y="-576"/>
      <point x="616" y="-576" type="curve" smooth="yes"/>
      <point x="664" y="-576"/>
      <point x="716" y="-576"/>
      <point x="752" y="-564" type="curve"/>
      <point x="752" y="-364" type="line"/>
      <point x="732" y="-368"/>
      <point x="704" y="-372"/>
      <point x="676" y="-372" type="curve" smooth="yes"/>
      <point x="548" y="-372"/>
      <point x="452" y="-324"/>
      <point x="452" y="-164" type="curve" smooth="yes"/>
    </contour>
    <component base="l"/>
  </outline>
</glyph>
<glyph name="mturndescend" format="2">
  <advance width="2404"/>
  <unicode hex="0270"/>
  <anchor x="1280" y="1776" name="top"/>
  <anchor x="1280" y="-616" name="bottom"/>
  <anchor x="2504" y="1776" name="top0315"/>
  <outline>
    <contour>
      <point x="1952" y="-576" type="line"/>
      <point x="2188" y="-576" type="line"/>
      <point x="2188" y="24" type="line"/>
      <point x="1952" y="24" type="line"/>
    </contour>
    <component base="m" xScale="-1" yScale="-1" xOffset="2388" yOffset="1536"/>
  </outline>
</glyph>
<glyph name="nlfthook" format="2">
  <advance width="1636"/>
  <unicode hex="0272"/>
  <anchor x="964" y="1776" name="top"/>
  <anchor x="964" y="-616" name="bottom"/>
  <anchor x="1724" y="1776" name="top0315"/>
  <outline>
    <contour>
      <point x="216" y="36" type="line"/>
      <point x="216" y="-164" type="line" smooth="yes"/>
      <point x="216" y="-324"/>
      <point x="120" y="-372"/>
      <point x="-8" y="-372" type="curve" smooth="yes"/>
      <point x="-36" y="-372"/>
      <point x="-64" y="-368"/>
      <point x="-84" y="-364" type="curve"/>
      <point x="-84" y="-564" type="line"/>
      <point x="-48" y="-576"/>
      <point x="4" y="-576"/>
      <point x="52" y="-576" type="curve" smooth="yes"/>
      <point x="276" y="-576"/>
      <point x="452" y="-428"/>
      <point x="452" y="-164" type="curve" smooth="yes"/>
      <point x="452" y="36" type="line"/>
    </contour>
    <component base="n"/>
  </outline>
</glyph>
<glyph name="nrthook" format="2">
  <advance width="1636"/>
  <unicode hex="0273"/>
  <anchor x="796" y="1776" name="top"/>
  <anchor x="796" y="-616" name="bottom"/>
  <anchor x="1644" y="1776" name="top0315"/>
  <outline>
    <contour>
      <point x="1420" y="36" type="line"/>
      <point x="1184" y="36" type="line"/>
      <point x="1184" y="-164" type="line" smooth="yes"/>
      <point x="1184" y="-428"/>
      <point x="1360" y="-576"/>
      <point x="1584" y="-576" type="curve" smooth="yes"/>
      <point x="1632" y="-576"/>
      <point x="1684" y="-576"/>
      <point x="1720" y="-564" type="curve"/>
      <point x="1720" y="-364" type="line"/>
      <point x="1700" y="-368"/>
      <point x="1672" y="-372"/>
      <point x="1644" y="-372" type="curve" smooth="yes"/>
      <point x="1516" y="-372"/>
      <point x="1420" y="-324"/>
      <point x="1420" y="-164" type="curve" smooth="yes"/>
    </contour>
    <component base="n"/>
  </outline>
</glyph>
<glyph name="Nsmallcap" format="2">
  <advance width="1520"/>
  <unicode hex="0274"/>
  <anchor x="756" y="1776" name="top"/>
  <anchor x="756" y="0" name="bottom"/>
  <anchor x="1552" y="1776" name="top0315"/>
  <outline>
    <contour>
      <point x="432" y="1488" type="line"/>
      <point x="1276" y="132" type="line"/>
      <point x="1092" y="0" type="line"/>
      <point x="252" y="1356" type="line"/>
    </contour>
    <contour>
      <point x="432" y="0" type="line"/>
      <point x="156" y="0" type="line"/>
      <point x="156" y="1488" type="line"/>
      <point x="432" y="1488" type="line"/>
    </contour>
    <contour>
      <point x="1364" y="0" type="line"/>
      <point x="1092" y="0" type="line"/>
      <point x="1092" y="1488" type="line"/>
      <point x="1364" y="1488" type="line"/>
    </contour>
  </outline>
</glyph>
<glyph name="philatin" format="2">
  <advance width="1776"/>
  <unicode hex="0278"/>
  <anchor x="888" y="2200" name="top"/>
  <anchor x="888" y="-616" name="bottom"/>
  <anchor x="1696" y="2200" name="top0315"/>
  <outline>
    <contour>
      <point x="208" y="728" type="line"/>
      <point x="208" y="300"/>
      <point x="468" y="-28"/>
      <point x="888" y="-28" type="curve" smooth="yes"/>
      <point x="1312" y="-28"/>
      <point x="1568" y="300"/>
      <point x="1568" y="728" type="curve" smooth="yes"/>
      <point x="1568" y="760" type="line" smooth="yes"/>
      <point x="1568" y="1188"/>
      <point x="1312" y="1516"/>
      <point x="888" y="1516" type="curve" smooth="yes"/>
      <point x="468" y="1516"/>
      <point x="208" y="1188"/>
      <point x="208" y="760" type="curve" smooth="yes"/>
    </contour>
    <contour>
      <point x="484" y="760" type="line"/>
      <point x="484" y="1044"/>
      <point x="616" y="1296"/>
      <point x="888" y="1296" type="curve" smooth="yes"/>
      <point x="1160" y="1296"/>
      <point x="1292" y="1044"/>
      <point x="1292" y="760" type="curve" smooth="yes"/>
      <point x="1292" y="728" type="line" smooth="yes"/>
      <point x="1292" y="440"/>
      <point x="1160" y="192"/>
      <point x="888" y="192" type="curve" smooth="yes"/>
      <point x="616" y="192"/>
      <point x="484" y="440"/>
      <point x="484" y="728" type="curve" smooth="yes"/>
    </contour>
    <contour>
      <point x="752" y="-572" type="line"/>
      <point x="1024" y="-572" type="line"/>
      <point x="1024" y="2112" type="line"/>
      <point x="752" y="2112" type="line"/>
    </contour>
  </outline>
</glyph>
<glyph name="rdescend" format="2">
  <advance width="1088"/>
  <unicode hex="027C"/>
  <anchor x="592" y="1792" name="top"/>
  <anchor x="600" y="-616" name="bottom"/>
  <anchor x="900" y="1792" name="top0315"/>
  <outline>
    <contour>
      <point x="216" y="-576" type="line"/>
      <point x="452" y="-576" type="line"/>
      <point x="452" y="100" type="line"/>
      <point x="216" y="100" type="line"/>
    </contour>
    <component base="r"/>
  </outline>
</glyph>
<glyph name="rrthook" format="2">
  <advance width="1088"/>
  <unicode hex="027D"/>
  <anchor x="368" y="-424" name="parenthesses.w1"/>
  <anchor x="576" y="1792" name="top"/>
  <anchor x="488" y="-576" name="bottom"/>
  <anchor x="888" y="1792" name="top0315"/>
  <outline>
    <contour>
      <point x="452" y="36" type="line"/>
      <point x="216" y="36" type="line"/>
      <point x="216" y="-164" type="line" smooth="yes"/>
      <point x="216" y="-428"/>
      <point x="392" y="-576"/>
      <point x="616" y="-576" type="curve" smooth="yes"/>
      <point x="664" y="-576"/>
      <point x="716" y="-576"/>
      <point x="752" y="-564" type="curve"/>
      <point x="752" y="-364" type="line"/>
      <point x="732" y="-368"/>
      <point x="704" y="-372"/>
      <point x="676" y="-372" type="curve" smooth="yes"/>
      <point x="548" y="-372"/>
      <point x="452" y="-324"/>
      <point x="452" y="-164" type="curve" smooth="yes"/>
    </contour>
    <component base="r"/>
  </outline>
</glyph>
<glyph name="rfishhook" format="2">
  <advance width="860"/>
  <unicode hex="027E"/>
  <anchor x="372" y="1776" name="top"/>
  <anchor x="372" y="0" name="bottom"/>
  <anchor x="828" y="1776" name="top0315"/>
  <outline>
    <contour>
      <point x="452" y="0" type="line"/>
      <point x="452" y="1132" type="line" smooth="yes"/>
      <point x="452" y="1288"/>
      <point x="568" y="1336"/>
      <point x="696" y="1336" type="curve" smooth="yes"/>
      <point x="720" y="1336"/>
      <point x="748" y="1332"/>
      <point x="772" y="1328" type="curve"/>
      <point x="772" y="1536" type="line"/>
      <point x="736" y="1548"/>
      <point x="676" y="1556"/>
      <point x="636" y="1556" type="curve" smooth="yes"/>
      <point x="412" y="1556"/>
      <point x="216" y="1412"/>
      <point x="216" y="1148" type="curve" smooth="yes"/>
      <point x="216" y="0" type="line"/>
    </contour>
  </outline>
</glyph>
<glyph name="ubar" format="2">
  <advance width="1724"/>
  <unicode hex="0289"/>
  <anchor x="752" y="1776" name="top"/>
  <anchor x="752" y="0" name="bottom"/>
  <anchor x="1652" y="1776" name="top0315"/>
  <outline>
    <contour>
      <point x="1728" y="996" type="line"/>
      <point x="-4" y="996" type="line"/>
      <point x="-4" y="796" type="line"/>
      <point x="1728" y="796" type="line"/>
    </contour>
    <component base="u" xOffset="44"/>
  </outline>
</glyph>
<glyph name="vscript" format="2">
  <advance width="1520"/>
  <unicode hex="028B"/>
  <anchor x="760" y="1776" name="top"/>
  <anchor x="760" y="0" name="bottom"/>
  <anchor x="1520" y="1776" name="top0315"/>
  <outline>
    <contour>
      <point x="760" y="200" type="line"/>
      <point x="592" y="200"/>
      <point x="460" y="280"/>
      <point x="460" y="608" type="curve" smooth="yes"/>
      <point x="460" y="1488" type="line"/>
      <point x="188" y="1488" type="line"/>
      <point x="188" y="608" type="line" smooth="yes"/>
      <point x="188" y="156"/>
      <point x="424" y="-28"/>
      <point x="760" y="-28" type="curve"/>
    </contour>
    <contour>
      <point x="760" y="-28" type="line"/>
      <point x="1100" y="-28"/>
      <point x="1336" y="156"/>
      <point x="1336" y="608" type="curve" smooth="yes"/>
      <point x="1336" y="1092" type="line" smooth="yes"/>
      <point x="1336" y="1296"/>
      <point x="1320" y="1516"/>
      <point x="1052" y="1516" type="curve" smooth="yes"/>
      <point x="944" y="1516"/>
      <point x="828" y="1484"/>
      <point x="740" y="1456" type="curve"/>
      <point x="772" y="1244" type="line"/>
      <point x="840" y="1260"/>
      <point x="884" y="1268"/>
      <point x="940" y="1268" type="curve" smooth="yes"/>
      <point x="1020" y="1268"/>
      <point x="1060" y="1220"/>
      <point x="1060" y="1096" type="curve" smooth="yes"/>
      <point x="1060" y="608" type="line" smooth="yes"/>
      <point x="1060" y="280"/>
      <point x="932" y="200"/>
      <point x="760" y="200" type="curve"/>
    </contour>
  </outline>
</glyph>
<glyph name="Ysmallcap" format="2">
  <advance width="1520"/>
  <unicode hex="028F"/>
  <anchor x="760" y="1776" name="top"/>
  <anchor x="760" y="0" name="bottom"/>
  <anchor x="1496" y="1776" name="top0315"/>
  <outline>
    <contour>
      <point x="676" y="588" type="line"/>
      <point x="720" y="480" type="line"/>
      <point x="884" y="480" type="line"/>
      <point x="1480" y="1488" type="line"/>
      <point x="1172" y="1488" type="line"/>
    </contour>
    <contour>
      <point x="348" y="1488" type="line"/>
      <point x="40" y="1488" type="line"/>
      <point x="636" y="480" type="line"/>
      <point x="800" y="480" type="line"/>
      <point x="852" y="580" type="line"/>
    </contour>
    <contour>
      <point x="892" y="712" type="line"/>
      <point x="620" y="712" type="line"/>
      <point x="620" y="0" type="line"/>
      <point x="892" y="0" type="line"/>
    </contour>
  </outline>
</glyph>
<glyph name="jcrosstail" format="2">
  <advance width="976"/>
  <unicode hex="029D"/>
  <anchor x="664" y="2200" name="top"/>
  <anchor x="640" y="-616" name="bottom"/>
  <anchor x="1084" y="2200" name="top0315"/>
  <outline>
    <contour>
      <point x="1056" y="156" type="line"/>
      <point x="372" y="156" type="line" smooth="yes"/>
      <point x="152" y="156"/>
      <point x="-36" y="16"/>
      <point x="-36" y="-212" type="curve" smooth="yes"/>
      <point x="-36" y="-416"/>
      <point x="116" y="-576"/>
      <point x="364" y="-576" type="curve" smooth="yes"/>
      <point x="616" y="-576"/>
      <point x="760" y="-412"/>
      <point x="760" y="-180" type="curve" smooth="yes"/>
      <point x="760" y="336" type="line"/>
      <point x="524" y="336" type="line"/>
      <point x="524" y="-204" type="line" smooth="yes"/>
      <point x="524" y="-292"/>
      <point x="472" y="-368"/>
      <point x="360" y="-368" type="curve" smooth="yes"/>
      <point x="276" y="-368"/>
      <point x="212" y="-296"/>
      <point x="212" y="-212" type="curve" smooth="yes"/>
      <point x="212" y="-132"/>
      <point x="280" y="-64"/>
      <point x="376" y="-64" type="curve" smooth="yes"/>
      <point x="1056" y="-64" type="line"/>
    </contour>
    <component base="i" xOffset="308"/>
  </outline>
</glyph>
<glyph name="Lsmallcap" format="2">
  <advance width="1264"/>
  <unicode hex="029F"/>
  <anchor x="280" y="1776" name="top"/>
  <anchor x="696" y="0" name="bottom"/>
  <anchor x="1188" y="1776" name="top0315"/>
  <outline>
    <contour>
      <point x="1132" y="216" type="line"/>
      <point x="348" y="216" type="line"/>
      <point x="348" y="0" type="line"/>
      <point x="1132" y="0" type="line"/>
    </contour>
    <contour>
      <point x="412" y="1488" type="line"/>
      <point x="136" y="1488" type="line"/>
      <point x="136" y="0" type="line"/>
      <point x="412" y="0" type="line"/>
    </contour>
  </outline>
</glyph>
<glyph name="finalmem" format="2">
  <advance width="1520"/>
  <unicode hex="02AD"/>
  <anchor x="756" y="2200" name="top"/>
  <anchor x="756" y="0" name="bottom"/>
  <anchor x="1428" y="2200" name="top0315"/>
  <outline>
    <contour>
      <point x="1132" y="800" type="line"/>
      <point x="384" y="800" type="line"/>
      <point x="384" y="632" type="line"/>
      <point x="1132" y="632" type="line"/>
    </contour>
    <contour>
      <point x="412" y="800" type="line"/>
      <point x="204" y="800" type="line"/>
      <point x="204" y="0" type="line"/>
      <point x="412" y="0" type="line"/>
    </contour>
    <contour>
      <point x="1320" y="800" type="line"/>
      <point x="1112" y="800" type="line"/>
      <point x="1112" y="0" type="line"/>
      <point x="1320" y="0" type="line"/>
    </contour>
    <contour>
      <point x="1132" y="2000" type="line"/>
      <point x="384" y="2000" type="line"/>
      <point x="384" y="1832" type="line"/>
      <point x="1132" y="1832" type="line"/>
    </contour>
    <contour>
      <point x="412" y="2000" type="line"/>
      <point x="204" y="2000" type="line"/>
      <point x="204" y="1204" type="line"/>
      <point x="412" y="1204" type="line"/>
    </contour>
    <contour>
      <point x="1320" y="2000" type="line"/>
      <point x="1112" y="2000" type="line"/>
      <point x="1112" y="1204" type="line"/>
      <point x="1320" y="1204" type="line"/>
    </contour>
  </outline>
</glyph>
<glyph name="ringhalfright" format="2">
  <advance width="496"/>
  <unicode hex="02BE"/>
  <anchor x="148" y="1584" name="_top"/>
  <anchor x="220" y="1584" name="_rhalfring"/>
  <outline>
    <contour>
      <point x="108" y="1528" type="line"/>
      <point x="264" y="1528"/>
      <point x="392" y="1636"/>
      <point x="392" y="1796" type="curve" smooth="yes"/>
      <point x="392" y="1960"/>
      <point x="264" y="2076"/>
      <point x="108" y="2076" type="curve"/>
      <point x="108" y="1948" type="line"/>
      <point x="184" y="1948"/>
      <point x="248" y="1884"/>
      <point x="248" y="1796" type="curve" smooth="yes"/>
      <point x="248" y="1716"/>
      <point x="184" y="1652"/>
      <point x="108" y="1652" type="curve"/>
    </contour>
  </outline>
</glyph>
<glyph name="arrowheadrightmod" format="2">
  <advance width="1264"/>
  <unicode hex="02C3"/>
  <outline>
    <contour>
      <point x="756" y="1296" type="line"/>
      <point x="1132" y="1396" type="line"/>
      <point x="1132" y="1232" type="line"/>
      <point x="132" y="820" type="line"/>
      <point x="132" y="1060" type="line"/>
    </contour>
    <contour>
      <point x="132" y="1588" type="line"/>
      <point x="132" y="1828" type="line"/>
      <point x="1132" y="1420" type="line"/>
      <point x="1132" y="1252" type="line"/>
      <point x="756" y="1348" type="line"/>
    </contour>
  </outline>
</glyph>
<glyph name="arrowheaddownmod" format="2">
  <advance width="1264"/>
  <unicode hex="02C5"/>
  <outline>
    <contour>
      <point x="604" y="1180" type="line"/>
      <point x="704" y="804" type="line"/>
      <point x="540" y="804" type="line"/>
      <point x="128" y="1800" type="line"/>
      <point x="368" y="1800" type="line"/>
    </contour>
    <contour>
      <point x="896" y="1800" type="line"/>
      <point x="1136" y="1800" type="line"/>
      <point x="728" y="804" type="line"/>
      <point x="560" y="804" type="line"/>
      <point x="656" y="1180" type="line"/>
    </contour>
  </outline>
</glyph>
<glyph name="caron" format="2">
  <advance width="1296"/>
  <unicode hex="02C7"/>
  <anchor x="648" y="1724" name="_top"/>
  <anchor x="632" y="2180" name="mkmktop_acc"/>
  <outline>
    <contour>
      <point x="408" y="2048" type="line"/>
      <point x="216" y="2048" type="line"/>
      <point x="216" y="2032" type="line"/>
      <point x="580" y="1656" type="line"/>
      <point x="716" y="1656" type="line"/>
      <point x="1084" y="2032" type="line"/>
      <point x="1084" y="2048" type="line"/>
      <point x="892" y="2048" type="line"/>
      <point x="648" y="1808" type="line"/>
    </contour>
  </outline>
</glyph>
<glyph name="ringhalfleftcentered" format="2">
  <advance width="496"/>
  <unicode hex="02D3"/>
  <outline>
    <contour>
      <point x="392" y="304" type="line"/>
      <point x="312" y="304"/>
      <point x="252" y="364"/>
      <point x="252" y="448" type="curve" smooth="yes"/>
      <point x="252" y="532"/>
      <point x="312" y="596"/>
      <point x="392" y="596" type="curve"/>
      <point x="392" y="724" type="line"/>
      <point x="236" y="724"/>
      <point x="108" y="608"/>
      <point x="108" y="448" type="curve" smooth="yes"/>
      <point x="108" y="284"/>
      <point x="236" y="176"/>
      <point x="392" y="176" type="curve"/>
    </contour>
  </outline>
</glyph>
<glyph name="uptackmod" format="2">
  <advance width="1008"/>
  <unicode hex="02D4"/>
  <outline>
    <contour>
      <point x="608" y="700" type="line"/>
      <point x="400" y="700" type="line"/>
      <point x="400" y="236" type="line"/>
      <point x="608" y="236" type="line"/>
    </contour>
    <contour>
      <point x="224" y="428" type="line"/>
      <point x="224" y="236" type="line"/>
      <point x="784" y="236" type="line"/>
      <point x="784" y="428" type="line"/>
    </contour>
  </outline>
</glyph>
<glyph name="downtackmod" format="2">
  <advance width="1008"/>
  <unicode hex="02D5"/>
  <outline>
    <contour>
      <point x="608" y="236" type="line"/>
      <point x="400" y="236" type="line"/>
      <point x="400" y="740" type="line"/>
      <point x="608" y="740" type="line"/>
    </contour>
    <contour>
      <point x="224" y="548" type="line"/>
      <point x="224" y="740" type="line"/>
      <point x="784" y="740" type="line"/>
      <point x="784" y="548" type="line"/>
    </contour>
  </outline>
</glyph>
<glyph name="minusmod" format="2">
  <advance width="752"/>
  <unicode hex="02D7"/>
  <outline>
    <contour>
      <point x="68" y="580" type="line"/>
      <point x="68" y="388" type="line"/>
      <point x="684" y="388" type="line"/>
      <point x="684" y="580" type="line"/>
    </contour>
  </outline>
</glyph>
<glyph name="breve" format="2">
  <advance width="1264"/>
  <unicode hex="02D8"/>
  <anchor x="632" y="1776" name="_top"/>
  <anchor x="632" y="2220" name="mkmktop_acc"/>
  <outline>
    <contour>
      <point x="828" y="2056" type="line"/>
      <point x="828" y="1952"/>
      <point x="772" y="1860"/>
      <point x="632" y="1860" type="curve" smooth="yes"/>
      <point x="492" y="1860"/>
      <point x="440" y="1952"/>
      <point x="440" y="2056" type="curve"/>
      <point x="220" y="2056" type="line"/>
      <point x="220" y="1840"/>
      <point x="380" y="1688"/>
      <point x="632" y="1688" type="curve" smooth="yes"/>
      <point x="888" y="1688"/>
      <point x="1048" y="1840"/>
      <point x="1048" y="2056" type="curve"/>
    </contour>
  </outline>
</glyph>
<glyph name="dotaccent" format="2">
  <advance width="752"/>
  <unicode hex="02D9"/>
  <anchor x="376" y="1796" name="_top"/>
  <anchor x="240" y="1872" name="_dot"/>
  <anchor x="376" y="2188" name="mkmktop_acc"/>
  <outline>
    <contour>
      <point x="220" y="1920" type="curve" smooth="yes"/>
      <point x="220" y="1836"/>
      <point x="272" y="1772"/>
      <point x="376" y="1772" type="curve" smooth="yes"/>
      <point x="480" y="1772"/>
      <point x="536" y="1836"/>
      <point x="536" y="1920" type="curve" smooth="yes"/>
      <point x="536" y="2008"/>
      <point x="480" y="2076"/>
      <point x="376" y="2076" type="curve" smooth="yes"/>
      <point x="272" y="2076"/>
      <point x="220" y="2008"/>
    </contour>
  </outline>
</glyph>
<glyph name="ring" format="2">
  <advance width="880"/>
  <unicode hex="02DA"/>
  <anchor x="440" y="1800" name="_top"/>
  <anchor x="452" y="2764" name="mkmktop_acc"/>
  <outline>
    <contour>
      <point x="76" y="2072" type="curve"/>
      <point x="76" y="1880"/>
      <point x="236" y="1732"/>
      <point x="440" y="1732" type="curve" smooth="yes"/>
      <point x="644" y="1732"/>
      <point x="800" y="1880"/>
      <point x="800" y="2072" type="curve" smooth="yes"/>
      <point x="800" y="2264"/>
      <point x="644" y="2424"/>
      <point x="440" y="2424" type="curve" smooth="yes"/>
      <point x="236" y="2424"/>
      <point x="76" y="2264"/>
    </contour>
    <contour>
      <point x="248" y="2072" type="curve"/>
      <point x="248" y="2172"/>
      <point x="328" y="2268"/>
      <point x="440" y="2268" type="curve" smooth="yes"/>
      <point x="552" y="2268"/>
      <point x="632" y="2172"/>
      <point x="632" y="2072" type="curve" smooth="yes"/>
      <point x="632" y="1976"/>
      <point x="552" y="1884"/>
      <point x="440" y="1884" type="curve" smooth="yes"/>
      <point x="328" y="1884"/>
      <point x="248" y="1976"/>
    </contour>
  </outline>
</glyph>
<glyph name="ogonek" format="2">
  <advance width="752"/>
  <unicode hex="02DB"/>
  <anchor x="600" y="0" name="_ogonek"/>
  <anchor x="600" y="0" name="_right"/>
  <anchor x="488" y="0" name="_bottom"/>
  <anchor x="488" y="-600" name="mkmkbottom_acc"/>
  <outline>
    <contour>
      <point x="492" y="84" type="line"/>
      <point x="228" y="-36"/>
      <point x="128" y="-188"/>
      <point x="128" y="-336" type="curve" smooth="yes"/>
      <point x="128" y="-508"/>
      <point x="248" y="-600"/>
      <point x="400" y="-600" type="curve" smooth="yes"/>
      <point x="512" y="-600"/>
      <point x="580" y="-568"/>
      <point x="624" y="-540" type="curve"/>
      <point x="608" y="-364" type="line"/>
      <point x="580" y="-380"/>
      <point x="532" y="-400"/>
      <point x="472" y="-400" type="curve" smooth="yes"/>
      <point x="392" y="-400"/>
      <point x="368" y="-364"/>
      <point x="368" y="-304" type="curve" smooth="yes"/>
      <point x="368" y="-184"/>
      <point x="480" y="-88"/>
      <point x="600" y="0" type="curve"/>
    </contour>
  </outline>
</glyph>
<glyph name="tilde" format="2">
  <advance width="1264"/>
  <unicode hex="02DC"/>
  <anchor x="632" y="1792" name="_top"/>
  <anchor x="632" y="2208" name="mkmktop_acc"/>
  <outline>
    <contour>
      <point x="944" y="2100" type="line"/>
      <point x="944" y="2016"/>
      <point x="884" y="1948"/>
      <point x="808" y="1948" type="curve" smooth="yes"/>
      <point x="664" y="1948"/>
      <point x="596" y="2076"/>
      <point x="444" y="2076" type="curve" smooth="yes"/>
      <point x="272" y="2076"/>
      <point x="140" y="1932"/>
      <point x="140" y="1728" type="curve"/>
      <point x="324" y="1720" type="line"/>
      <point x="324" y="1804"/>
      <point x="380" y="1872"/>
      <point x="456" y="1872" type="curve" smooth="yes"/>
      <point x="608" y="1872"/>
      <point x="636" y="1744"/>
      <point x="820" y="1744" type="curve" smooth="yes"/>
      <point x="992" y="1744"/>
      <point x="1124" y="1876"/>
      <point x="1124" y="2084" type="curve"/>
    </contour>
  </outline>
</glyph>
<glyph name="hungarumlaut" format="2">
  <advance width="1040"/>
  <unicode hex="02DD"/>
  <anchor x="484" y="1776" name="_top"/>
  <anchor x="484" y="2228" name="mkmktop_acc"/>
  <outline>
    <contour>
      <point x="544" y="1688" type="line"/>
      <point x="752" y="1688" type="line"/>
      <point x="1116" y="2112" type="line"/>
      <point x="852" y="2112" type="line"/>
    </contour>
    <contour>
      <point x="132" y="1688" type="line"/>
      <point x="320" y="1688" type="line"/>
      <point x="616" y="2112" type="line"/>
      <point x="356" y="2112" type="line"/>
    </contour>
  </outline>
</glyph>
<glyph name="qofdagesh" format="2">
  <advance width="1008"/>
  <unicode hex="02DF"/>
  <anchor x="504" y="1648" name="_top"/>
  <outline>
    <contour>
      <point x="304" y="1596" type="line"/>
      <point x="840" y="2136" type="line"/>
      <point x="704" y="2272" type="line"/>
      <point x="168" y="1732" type="line"/>
    </contour>
    <contour>
      <point x="704" y="1592" type="line"/>
      <point x="840" y="1732" type="line"/>
      <point x="308" y="2276" type="line"/>
      <point x="172" y="2136" type="line"/>
    </contour>
  </outline>
</glyph>
<glyph name="tonebarextralowmod" format="2">
  <advance width="1008"/>
  <unicode hex="02E9"/>
  <outline>
    <contour>
      <point x="820" y="2004" type="line"/>
      <point x="544" y="2004" type="line"/>
      <point x="544" y="0" type="line"/>
      <point x="820" y="0" type="line"/>
    </contour>
    <contour>
      <point x="752" y="220" type="line"/>
      <point x="188" y="220" type="line"/>
      <point x="188" y="0" type="line"/>
      <point x="752" y="0" type="line"/>
    </contour>
  </outline>
</glyph>
<glyph name="uni02EA" format="2">
  <advance width="1008"/>
  <unicode hex="02EA"/>
  <outline>
    <contour>
      <point x="896" y="220" type="line"/>
      <point x="276" y="220" type="line"/>
      <point x="276" y="0" type="line"/>
      <point x="896" y="0" type="line"/>
    </contour>
    <contour>
      <point x="388" y="1248" type="line"/>
      <point x="116" y="1248" type="line"/>
      <point x="116" y="0" type="line"/>
      <point x="388" y="0" type="line"/>
    </contour>
  </outline>
</glyph>
<glyph name="uni02EB" format="2">
  <advance width="1008"/>
  <unicode hex="02EB"/>
  <outline>
    <contour>
      <point x="852" y="740" type="line"/>
      <point x="316" y="740" type="line"/>
      <point x="316" y="520" type="line"/>
      <point x="852" y="520" type="line"/>
    </contour>
    <contour>
      <point x="432" y="1248" type="line"/>
      <point x="156" y="1248" type="line"/>
      <point x="156" y="0" type="line"/>
      <point x="432" y="0" type="line"/>
    </contour>
  </outline>
</glyph>
<glyph name="uni02F3" format="2">
  <advance width="752"/>
  <unicode hex="02F3"/>
  <anchor x="404" y="0" name="_bottom"/>
  <outline>
    <contour>
      <point x="132" y="-336" type="curve" smooth="yes"/>
      <point x="132" y="-476"/>
      <point x="240" y="-568"/>
      <point x="376" y="-568" type="curve" smooth="yes"/>
      <point x="504" y="-568"/>
      <point x="620" y="-476"/>
      <point x="620" y="-336" type="curve" smooth="yes"/>
      <point x="620" y="-200"/>
      <point x="504" y="-104"/>
      <point x="376" y="-104" type="curve" smooth="yes"/>
      <point x="240" y="-104"/>
      <point x="132" y="-200"/>
    </contour>
    <contour>
      <point x="256" y="-336" type="curve" smooth="yes"/>
      <point x="256" y="-268"/>
      <point x="308" y="-216"/>
      <point x="376" y="-216" type="curve" smooth="yes"/>
      <point x="436" y="-216"/>
      <point x="496" y="-268"/>
      <point x="496" y="-336" type="curve" smooth="yes"/>
      <point x="496" y="-404"/>
      <point x="436" y="-456"/>
      <point x="376" y="-456" type="curve" smooth="yes"/>
      <point x="308" y="-456"/>
      <point x="256" y="-404"/>
    </contour>
  </outline>
</glyph>
<glyph name="uni02FB" format="2">
  <advance width="752"/>
  <unicode hex="02FB"/>
  <outline>
    <contour>
      <point x="308" y="-656" type="line"/>
      <point x="104" y="-656" type="line"/>
      <point x="104" y="-124" type="line"/>
      <point x="308" y="-124" type="line"/>
    </contour>
    <contour>
      <point x="104" y="-656" type="line"/>
      <point x="104" y="-464" type="line"/>
      <point x="652" y="-464" type="line"/>
      <point x="652" y="-656" type="line"/>
    </contour>
  </outline>
</glyph>
<glyph name="uni02FE" format="2">
  <advance width="1264"/>
  <unicode hex="02FE"/>
  <outline>
    <contour>
      <point x="1100" y="-488" type="line"/>
      <point x="348" y="-488" type="line"/>
      <point x="348" y="-656" type="line"/>
      <point x="1100" y="-656" type="line"/>
    </contour>
    <contour>
      <point x="372" y="-124" type="line"/>
      <point x="164" y="-124" type="line"/>
      <point x="164" y="-656" type="line"/>
      <point x="372" y="-656" type="line"/>
    </contour>
  </outline>
</glyph>
<glyph name="gravecomb" format="2">
  <unicode hex="0300"/>
  <anchor x="-726" y="1774" name="_top"/>
  <anchor x="-726" y="1774" name="_marktop"/>
  <anchor x="-726" y="2269" name="mkmktop"/>
  <anchor x="-897" y="1909" name="parent_top"/>
  <outline>
    <contour>
      <point x="-865" y="2112" type="line"/>
      <point x="-1196" y="2112" type="line"/>
      <point x="-832" y="1705" type="line"/>
      <point x="-598" y="1705" type="line"/>
    </contour>
  </outline>
</glyph>
<glyph name="acutecomb" format="2">
  <unicode hex="0301"/>
  <anchor x="-784" y="1774" name="_top"/>
  <anchor x="-784" y="1774" name="_marktop"/>
  <anchor x="-784" y="2269" name="mkmktop"/>
  <anchor x="-617" y="1909" name="parent_top"/>
  <outline>
    <contour>
      <point x="-917" y="1705" type="line"/>
      <point x="-699" y="1705" type="line"/>
      <point x="-319" y="2112" type="line"/>
      <point x="-650" y="2112" type="line"/>
    </contour>
  </outline>
</glyph>
<glyph name="macroncomb" format="2">
  <unicode hex="0304"/>
  <anchor x="-799" y="1763" name="_marktop"/>
  <anchor x="-799" y="2173" name="mkmktop"/>
  <anchor x="-809" y="1899" name="parent_top"/>
  <outline>
    <contour>
      <point x="-340" y="1988" type="line"/>
      <point x="-1279" y="1988" type="line"/>
      <point x="-1279" y="1782" type="line"/>
      <point x="-340" y="1782" type="line"/>
    </contour>
  </outline>
</glyph>
<glyph name="brevenosp" format="2">
  <unicode hex="0306"/>
  <anchor x="-813" y="1642" name="_marktop"/>
  <anchor x="-813" y="2206" name="mkmktop"/>
  <anchor x="-809" y="1871" name="parent_top"/>
  <outline>
    <contour>
      <point x="-616" y="2057" type="line"/>
      <point x="-616" y="1951"/>
      <point x="-670" y="1858"/>
      <point x="-809" y="1858" type="curve" smooth="yes"/>
      <point x="-950" y="1858"/>
      <point x="-1002" y="1951"/>
      <point x="-1002" y="2057" type="curve"/>
      <point x="-1224" y="2057" type="line"/>
      <point x="-1224" y="1840"/>
      <point x="-1064" y="1687"/>
      <point x="-809" y="1687" type="curve" smooth="yes"/>
      <point x="-553" y="1687"/>
      <point x="-395" y="1840"/>
      <point x="-395" y="2057" type="curve"/>
    </contour>
  </outline>
</glyph>
<glyph name="dotnosp" format="2">
  <unicode hex="0307"/>
  <anchor x="-809" y="1774" name="_marktop"/>
  <anchor x="-809" y="2118" name="mkmktop"/>
  <anchor x="-807" y="1878" name="parent_top"/>
  <outline>
    <contour>
      <point x="-967" y="1877" type="curve" smooth="yes"/>
      <point x="-967" y="1793"/>
      <point x="-913" y="1727"/>
      <point x="-809" y="1727" type="curve" smooth="yes"/>
      <point x="-704" y="1727"/>
      <point x="-649" y="1793"/>
      <point x="-649" y="1877" type="curve" smooth="yes"/>
      <point x="-649" y="1962"/>
      <point x="-704" y="2030"/>
      <point x="-809" y="2030" type="curve" smooth="yes"/>
      <point x="-913" y="2030"/>
      <point x="-967" y="1962"/>
    </contour>
  </outline>
</glyph>
<glyph name="hook" format="2">
  <unicode hex="0309"/>
  <anchor x="-814" y="1755" name="_top"/>
  <anchor x="-814" y="1755" name="_marktop"/>
  <anchor x="-814" y="2373" name="mkmktop"/>
  <anchor x="-814" y="2373" name="mkmktop_acc"/>
  <anchor x="-718" y="1994" name="parent_top"/>
  <outline>
    <contour>
      <point x="-711" y="1709" type="line"/>
      <point x="-710" y="1808" type="line"/>
      <point x="-608" y="1823"/>
      <point x="-503" y="1878"/>
      <point x="-503" y="2017" type="curve" smooth="yes"/>
      <point x="-503" y="2174"/>
      <point x="-646" y="2278"/>
      <point x="-923" y="2278" type="curve"/>
      <point x="-932" y="2126" type="line"/>
      <point x="-810" y="2126"/>
      <point x="-715" y="2097"/>
      <point x="-715" y="2023" type="curve" smooth="yes"/>
      <point x="-715" y="1954"/>
      <point x="-774" y="1933"/>
      <point x="-908" y="1925" type="curve"/>
      <point x="-906" y="1709" type="line"/>
    </contour>
  </outline>
</glyph>
<glyph name="caroncmb" format="2">
  <unicode hex="030C"/>
  <anchor x="-803" y="1774" name="_top"/>
  <anchor x="-803" y="1774" name="_marktop"/>
  <anchor x="-803" y="2248" name="mkmktop"/>
  <anchor x="-811" y="1918" name="parent_top"/>
  <outline>
    <contour>
      <point x="-730" y="1722" type="line"/>
      <point x="-895" y="1722" type="line"/>
      <point x="-1235" y="2100" type="line"/>
      <point x="-1235" y="2115" type="line"/>
      <point x="-1012" y="2115" type="line"/>
      <point x="-813" y="1885" type="line"/>
      <point x="-612" y="2115" type="line"/>
      <point x="-388" y="2115" type="line"/>
      <point x="-388" y="2101" type="line"/>
    </contour>
  </outline>
</glyph>
<glyph name="dblgravecmb" format="2">
  <unicode hex="030F"/>
  <anchor x="-622" y="1781" name="_top"/>
  <anchor x="-622" y="1781" name="_marktop"/>
  <anchor x="-622" y="2207" name="mkmktop"/>
  <anchor x="-622" y="2207" name="mkmktop_acc"/>
  <anchor x="-840" y="1904" name="parent_top"/>
  <outline>
    <contour>
      <point x="-689" y="1722" type="line"/>
      <point x="-936" y="1722" type="line"/>
      <point x="-1357" y="2087" type="line"/>
      <point x="-1026" y="2087" type="line"/>
    </contour>
    <contour>
      <point x="-325" y="1722" type="line"/>
      <point x="-543" y="1722" type="line"/>
      <point x="-880" y="2087" type="line"/>
      <point x="-576" y="2087" type="line"/>
    </contour>
  </outline>
</glyph>
<glyph name="candrabindunosp" format="2">
  <unicode hex="0310"/>
  <anchor x="-809" y="1646" name="_top"/>
  <anchor x="-809" y="1646" name="_marktop"/>
  <anchor x="-809" y="2402" name="mkmktop"/>
  <anchor x="-809" y="1984" name="parent_top"/>
  <outline>
    <contour>
      <point x="-616" y="2043" type="line"/>
      <point x="-616" y="1937"/>
      <point x="-670" y="1844"/>
      <point x="-809" y="1844" type="curve" smooth="yes"/>
      <point x="-950" y="1844"/>
      <point x="-1002" y="1937"/>
      <point x="-1002" y="2043" type="curve"/>
      <point x="-1224" y="2043" type="line"/>
      <point x="-1224" y="1826"/>
      <point x="-1064" y="1673"/>
      <point x="-809" y="1673" type="curve" smooth="yes"/>
      <point x="-553" y="1673"/>
      <point x="-395" y="1826"/>
      <point x="-395" y="2043" type="curve"/>
    </contour>
    <contour>
      <point x="-965" y="2144" type="curve" smooth="yes"/>
      <point x="-965" y="2060"/>
      <point x="-912" y="1994"/>
      <point x="-807" y="1994" type="curve" smooth="yes"/>
      <point x="-703" y="1994"/>
      <point x="-648" y="2060"/>
      <point x="-648" y="2144" type="curve" smooth="yes"/>
      <point x="-648" y="2229"/>
      <point x="-703" y="2296"/>
      <point x="-807" y="2296" type="curve" smooth="yes"/>
      <point x="-912" y="2296"/>
      <point x="-965" y="2229"/>
    </contour>
  </outline>
</glyph>
<glyph name="breveinvnosp" format="2">
  <unicode hex="0311"/>
  <anchor x="-809" y="1646" name="_top"/>
  <anchor x="-809" y="1646" name="_marktop"/>
  <anchor x="-809" y="2113" name="mkmktop"/>
  <anchor x="-809" y="2113" name="mkmktop_acc"/>
  <anchor x="-807" y="1816" name="parent_top"/>
  <outline>
    <contour>
      <point x="-393" y="1632" type="line"/>
      <point x="-393" y="1849"/>
      <point x="-551" y="2002"/>
      <point x="-807" y="2002" type="curve" smooth="yes"/>
      <point x="-1063" y="2002"/>
      <point x="-1222" y="1849"/>
      <point x="-1222" y="1632" type="curve"/>
      <point x="-1001" y="1632" type="line"/>
      <point x="-1001" y="1738"/>
      <point x="-949" y="1832"/>
      <point x="-807" y="1832" type="curve" smooth="yes"/>
      <point x="-668" y="1832"/>
      <point x="-615" y="1738"/>
      <point x="-615" y="1632" type="curve"/>
    </contour>
  </outline>
</glyph>
<glyph name="commaturnsupnosp" format="2">
  <unicode hex="0312"/>
  <anchor x="-811" y="1464" name="_marktop"/>
  <anchor x="-811" y="2316" name="mkmktop"/>
  <anchor x="-745" y="1749" name="parent_top"/>
  <outline>
    <contour>
      <point x="-949" y="1356" type="line"/>
      <point x="-677" y="1356" type="line"/>
      <point x="-677" y="1613" type="line" smooth="yes"/>
      <point x="-677" y="1772"/>
      <point x="-630" y="1909"/>
      <point x="-543" y="2039" type="curve"/>
      <point x="-699" y="2144" type="line"/>
      <point x="-858" y="2009"/>
      <point x="-949" y="1785"/>
      <point x="-949" y="1609" type="curve" smooth="yes"/>
    </contour>
  </outline>
</glyph>
<glyph name="commasuprevnosp" format="2">
  <unicode hex="0314"/>
  <anchor x="-773" y="1464" name="_marktop"/>
  <anchor x="-771" y="2316" name="mkmktop"/>
  <anchor x="-807" y="1749" name="parent_top"/>
  <outline>
    <contour>
      <point x="-1011" y="2144" type="line"/>
      <point x="-738" y="2144" type="line"/>
      <point x="-738" y="1887" type="line" smooth="yes"/>
      <point x="-738" y="1727"/>
      <point x="-692" y="1591"/>
      <point x="-605" y="1460" type="curve"/>
      <point x="-760" y="1356" type="line"/>
      <point x="-920" y="1491"/>
      <point x="-1011" y="1715"/>
      <point x="-1011" y="1891" type="curve" smooth="yes"/>
    </contour>
  </outline>
</glyph>
<glyph name="tackleftsubnosp" format="2">
  <unicode hex="0318"/>
  <anchor x="-780" y="0" name="_markbottom"/>
  <anchor x="-780" y="-613" name="mkmkbottom_acc"/>
  <outline>
    <contour>
      <point x="-550" y="-83" type="line"/>
      <point x="-756" y="-83" type="line"/>
      <point x="-756" y="-613" type="line"/>
      <point x="-550" y="-613" type="line"/>
    </contour>
    <contour>
      <point x="-1097" y="-252" type="line"/>
      <point x="-1097" y="-444" type="line"/>
      <point x="-564" y="-444" type="line"/>
      <point x="-564" y="-252" type="line"/>
    </contour>
  </outline>
</glyph>
<glyph name="tackrightsubnosp" format="2">
  <unicode hex="0319"/>
  <anchor x="-806" y="0" name="_markbottom"/>
  <anchor x="-804" y="-613" name="mkmkbottom_acc"/>
  <outline>
    <contour>
      <point x="-1081" y="-83" type="line"/>
      <point x="-875" y="-83" type="line"/>
      <point x="-875" y="-613" type="line"/>
      <point x="-1081" y="-613" type="line"/>
    </contour>
    <contour>
      <point x="-534" y="-252" type="line"/>
      <point x="-534" y="-444" type="line"/>
      <point x="-1067" y="-444" type="line"/>
      <point x="-1067" y="-252" type="line"/>
    </contour>
  </outline>
</glyph>
<glyph name="anglesupnosp" format="2">
  <unicode hex="031A"/>
  <anchor x="-550" y="1737" name="_marktop"/>
  <anchor x="-550" y="2338" name="mkmktop"/>
  <outline>
    <contour>
      <point x="-1019" y="2112" type="line"/>
      <point x="-264" y="2112" type="line"/>
      <point x="-264" y="2281" type="line"/>
      <point x="-1019" y="2281" type="line"/>
    </contour>
    <contour>
      <point x="-290" y="1764" type="line"/>
      <point x="-83" y="1764" type="line"/>
      <point x="-83" y="2281" type="line"/>
      <point x="-290" y="2281" type="line"/>
    </contour>
  </outline>
</glyph>
<glyph name="hornnosp" format="2">
  <unicode hex="031B"/>
  <outline>
    <contour>
      <point x="-128" y="2144" type="curve" smooth="yes"/>
      <point x="-400" y="2144" type="line"/>
      <point x="-400" y="1727"/>
      <point x="-447" y="1591"/>
      <point x="-534" y="1460" type="curve"/>
      <point x="-378" y="1356" type="line"/>
      <point x="-219" y="1491"/>
      <point x="-128" y="1715"/>
    </contour>
  </outline>
</glyph>
<glyph name="ringlefthalfsubnosp" format="2">
  <unicode hex="031C"/>
  <anchor x="-690" y="-14" name="_markbottom"/>
  <anchor x="-690" y="-672" name="mkmkbottom_acc"/>
  <outline>
    <contour>
      <point x="-579" y="-660" type="line"/>
      <point x="-734" y="-660"/>
      <point x="-862" y="-551"/>
      <point x="-862" y="-389" type="curve" smooth="yes"/>
      <point x="-862" y="-228"/>
      <point x="-734" y="-113"/>
      <point x="-579" y="-113" type="curve"/>
      <point x="-579" y="-241" type="line"/>
      <point x="-657" y="-241"/>
      <point x="-719" y="-304"/>
      <point x="-719" y="-389" type="curve" smooth="yes"/>
      <point x="-719" y="-472"/>
      <point x="-657" y="-534"/>
      <point x="-579" y="-534" type="curve"/>
    </contour>
  </outline>
</glyph>
<glyph name="tackdownsubnosp" format="2">
  <unicode hex="031E"/>
  <anchor x="-811" y="0" name="_markbottom"/>
  <anchor x="-811" y="-590" name="mkmkbottom_acc"/>
  <outline>
    <contour>
      <point x="-705" y="-590" type="line"/>
      <point x="-912" y="-590" type="line"/>
      <point x="-912" y="-125" type="line"/>
      <point x="-705" y="-125" type="line"/>
    </contour>
    <contour>
      <point x="-1089" y="-318" type="line"/>
      <point x="-1089" y="-125" type="line"/>
      <point x="-528" y="-125" type="line"/>
      <point x="-528" y="-318" type="line"/>
    </contour>
  </outline>
</glyph>
<glyph name="minussubnosp" format="2">
  <unicode hex="0320"/>
  <anchor x="-806" y="0" name="_markbottom"/>
  <anchor x="-806" y="-452" name="mkmkbottom_acc"/>
  <outline>
    <contour>
      <point x="-1114" y="-260" type="line"/>
      <point x="-1114" y="-452" type="line"/>
      <point x="-498" y="-452" type="line"/>
      <point x="-498" y="-260" type="line"/>
    </contour>
  </outline>
</glyph>
<glyph name="hooksubpalatnosp" format="2">
  <unicode hex="0321"/>
  <outline>
    <contour>
      <point x="-550" y="209" type="line"/>
      <point x="-550" y="-122" type="line" smooth="yes"/>
      <point x="-550" y="-309"/>
      <point x="-616" y="-373"/>
      <point x="-736" y="-373" type="curve" smooth="yes"/>
      <point x="-759" y="-373"/>
      <point x="-796" y="-370"/>
      <point x="-824" y="-362" type="curve"/>
      <point x="-824" y="-578" type="line"/>
      <point x="-781" y="-591"/>
      <point x="-711" y="-601"/>
      <point x="-664" y="-601" type="curve" smooth="yes"/>
      <point x="-402" y="-601"/>
      <point x="-275" y="-432"/>
      <point x="-275" y="-122" type="curve" smooth="yes"/>
      <point x="-275" y="209" type="line"/>
    </contour>
  </outline>
</glyph>
<glyph name="hooksubretronosp" format="2">
  <unicode hex="0322"/>
  <outline>
    <contour>
      <point x="-150" y="209" type="line"/>
      <point x="-150" y="-122" type="line" smooth="yes"/>
      <point x="-150" y="-309"/>
      <point x="-84" y="-373"/>
      <point x="36" y="-373" type="curve" smooth="yes"/>
      <point x="59" y="-373"/>
      <point x="96" y="-370"/>
      <point x="124" y="-362" type="curve"/>
      <point x="124" y="-578" type="line"/>
      <point x="81" y="-591"/>
      <point x="11" y="-601"/>
      <point x="-36" y="-601" type="curve" smooth="yes"/>
      <point x="-298" y="-601"/>
      <point x="-425" y="-432"/>
      <point x="-425" y="-122" type="curve" smooth="yes"/>
      <point x="-425" y="209" type="line"/>
    </contour>
  </outline>
</glyph>
<glyph name="dotbelow" format="2">
  <unicode hex="0323"/>
  <anchor x="-825" y="0" name="_bottom"/>
  <anchor x="-825" y="0" name="_markbottom"/>
  <anchor x="-825" y="-495" name="mkmkbottom_acc"/>
  <anchor x="-825" y="0" name="_bottomu"/>
  <outline>
    <contour>
      <point x="-991" y="-341" type="curve" smooth="yes"/>
      <point x="-991" y="-425"/>
      <point x="-938" y="-491"/>
      <point x="-833" y="-491" type="curve" smooth="yes"/>
      <point x="-729" y="-491"/>
      <point x="-674" y="-425"/>
      <point x="-674" y="-341" type="curve" smooth="yes"/>
      <point x="-674" y="-256"/>
      <point x="-729" y="-188"/>
      <point x="-833" y="-188" type="curve" smooth="yes"/>
      <point x="-938" y="-188"/>
      <point x="-991" y="-256"/>
    </contour>
  </outline>
</glyph>
<glyph name="dotdblsubnosp" format="2">
  <unicode hex="0324"/>
  <anchor x="-939" y="0" name="_bottom"/>
  <anchor x="-939" y="0" name="_markbottom"/>
  <anchor x="-939" y="-494" name="mkmkbottom_acc"/>
  <outline>
    <contour>
      <point x="-1393" y="-341" type="curve" smooth="yes"/>
      <point x="-1393" y="-425"/>
      <point x="-1339" y="-491"/>
      <point x="-1235" y="-491" type="curve" smooth="yes"/>
      <point x="-1130" y="-491"/>
      <point x="-1075" y="-425"/>
      <point x="-1075" y="-341" type="curve" smooth="yes"/>
      <point x="-1075" y="-256"/>
      <point x="-1130" y="-188"/>
      <point x="-1235" y="-188" type="curve" smooth="yes"/>
      <point x="-1339" y="-188"/>
      <point x="-1393" y="-256"/>
    </contour>
    <contour>
      <point x="-803" y="-344" type="curve" smooth="yes"/>
      <point x="-803" y="-428"/>
      <point x="-749" y="-494"/>
      <point x="-645" y="-494" type="curve" smooth="yes"/>
      <point x="-540" y="-494"/>
      <point x="-485" y="-428"/>
      <point x="-485" y="-344" type="curve" smooth="yes"/>
      <point x="-485" y="-259"/>
      <point x="-540" y="-191"/>
      <point x="-645" y="-191" type="curve" smooth="yes"/>
      <point x="-749" y="-191"/>
      <point x="-803" y="-259"/>
    </contour>
  </outline>
</glyph>
<glyph name="commabelowcmb" format="2">
  <unicode hex="0326"/>
  <anchor x="-770" y="0" name="_markbottom"/>
  <anchor x="-770" y="-762" name="mkmkbottom_acc"/>
  <outline>
    <contour>
      <point x="-619" y="-201" type="line"/>
      <point x="-880" y="-201" type="line"/>
      <point x="-880" y="-314" type="line" smooth="yes"/>
      <point x="-880" y="-441"/>
      <point x="-914" y="-551"/>
      <point x="-983" y="-657" type="curve"/>
      <point x="-828" y="-762" type="line"/>
      <point x="-686" y="-648"/>
      <point x="-619" y="-455"/>
      <point x="-619" y="-309" type="curve" smooth="yes"/>
    </contour>
  </outline>
</glyph>
<glyph name="cedillanosp" format="2">
  <unicode hex="0327"/>
  <anchor x="-844" y="0" name="_markbottom"/>
  <outline>
    <contour>
      <point x="-932" y="0" type="line"/>
      <point x="-976" y="-187" type="line"/>
      <point x="-824" y="-199"/>
      <point x="-759" y="-224"/>
      <point x="-759" y="-314" type="curve" smooth="yes"/>
      <point x="-759" y="-407"/>
      <point x="-853" y="-444"/>
      <point x="-976" y="-444" type="curve"/>
      <point x="-967" y="-598" type="line"/>
      <point x="-690" y="-598"/>
      <point x="-547" y="-481"/>
      <point x="-547" y="-308" type="curve" smooth="yes"/>
      <point x="-547" y="-150"/>
      <point x="-650" y="-88"/>
      <point x="-754" y="-70" type="curve"/>
      <point x="-737" y="0" type="line"/>
    </contour>
  </outline>
</glyph>
<glyph name="ogoneknosp" format="2">
  <unicode hex="0328"/>
  <anchor x="-781" y="0" name="_markbottom"/>
  <outline>
    <contour>
      <point x="-760" y="83" type="line"/>
      <point x="-1023" y="-34"/>
      <point x="-1132" y="-186"/>
      <point x="-1132" y="-334" type="curve" smooth="yes"/>
      <point x="-1132" y="-509"/>
      <point x="-1012" y="-601"/>
      <point x="-861" y="-601" type="curve" smooth="yes"/>
      <point x="-749" y="-601"/>
      <point x="-681" y="-568"/>
      <point x="-635" y="-540" type="curve"/>
      <point x="-653" y="-364" type="line"/>
      <point x="-681" y="-378"/>
      <point x="-730" y="-400"/>
      <point x="-789" y="-400" type="curve" smooth="yes"/>
      <point x="-866" y="-400"/>
      <point x="-894" y="-363"/>
      <point x="-894" y="-303" type="curve" smooth="yes"/>
      <point x="-894" y="-184"/>
      <point x="-778" y="-87"/>
      <point x="-661" y="0" type="curve"/>
    </contour>
  </outline>
</glyph>
<glyph name="bridgesubnosp" format="2">
  <unicode hex="032A"/>
  <anchor x="-809" y="0" name="_markbottom"/>
  <anchor x="-809" y="-639" name="mkmkbottom_acc"/>
  <outline>
    <contour>
      <point x="-528" y="-319" type="line"/>
      <point x="-1096" y="-319" type="line"/>
      <point x="-1096" y="-150" type="line"/>
      <point x="-528" y="-150" type="line"/>
    </contour>
    <contour>
      <point x="-1070" y="-639" type="line"/>
      <point x="-1277" y="-639" type="line"/>
      <point x="-1277" y="-150" type="line"/>
      <point x="-1070" y="-150" type="line"/>
    </contour>
    <contour>
      <point x="-341" y="-639" type="line"/>
      <point x="-549" y="-639" type="line"/>
      <point x="-549" y="-150" type="line"/>
      <point x="-341" y="-150" type="line"/>
    </contour>
  </outline>
</glyph>
<glyph name="archdblsubnosp" format="2">
  <unicode hex="032B"/>
  <anchor x="-809" y="0" name="_markbottom"/>
  <anchor x="-809" y="-458" name="mkmkbottom_acc"/>
  <outline>
    <contour>
      <point x="-1354" y="-154" type="line"/>
      <point x="-1354" y="-349"/>
      <point x="-1228" y="-485"/>
      <point x="-1052" y="-485" type="curve" smooth="yes"/>
      <point x="-850" y="-485"/>
      <point x="-741" y="-349"/>
      <point x="-741" y="-155" type="curve"/>
      <point x="-873" y="-155" type="line"/>
      <point x="-873" y="-260"/>
      <point x="-930" y="-327"/>
      <point x="-1052" y="-327" type="curve" smooth="yes"/>
      <point x="-1147" y="-327"/>
      <point x="-1221" y="-260"/>
      <point x="-1221" y="-154" type="curve"/>
    </contour>
    <contour>
      <point x="-873" y="-155" type="line"/>
      <point x="-873" y="-349"/>
      <point x="-765" y="-485"/>
      <point x="-562" y="-485" type="curve" smooth="yes"/>
      <point x="-386" y="-485"/>
      <point x="-260" y="-349"/>
      <point x="-260" y="-154" type="curve"/>
      <point x="-393" y="-154" type="line"/>
      <point x="-393" y="-260"/>
      <point x="-468" y="-327"/>
      <point x="-562" y="-327" type="curve" smooth="yes"/>
      <point x="-685" y="-327"/>
      <point x="-741" y="-260"/>
      <point x="-741" y="-155" type="curve"/>
    </contour>
  </outline>
</glyph>
<glyph name="caronbelowcmb" format="2">
  <unicode hex="032C"/>
  <anchor x="-803" y="0" name="_markbottom"/>
  <anchor x="-803" y="0" name="_bottom"/>
  <anchor x="-803" y="-572" name="mkmkbottom_acc"/>
  <outline>
    <contour>
      <point x="-727" y="-571" type="line"/>
      <point x="-892" y="-571" type="line"/>
      <point x="-1232" y="-193" type="line"/>
      <point x="-1232" y="-177" type="line"/>
      <point x="-1009" y="-177" type="line"/>
      <point x="-810" y="-407" type="line"/>
      <point x="-609" y="-177" type="line"/>
      <point x="-385" y="-177" type="line"/>
      <point x="-385" y="-191" type="line"/>
    </contour>
  </outline>
</glyph>
<glyph name="brevesubnosp" format="2">
  <unicode hex="032E"/>
  <anchor x="-809" y="0" name="_bottom"/>
  <anchor x="-809" y="0" name="_markbottom"/>
  <anchor x="-809" y="-502" name="mkmkbottom_acc"/>
  <outline>
    <contour>
      <point x="-615" y="-132" type="line"/>
      <point x="-615" y="-238"/>
      <point x="-668" y="-331"/>
      <point x="-807" y="-331" type="curve" smooth="yes"/>
      <point x="-949" y="-331"/>
      <point x="-1001" y="-238"/>
      <point x="-1001" y="-132" type="curve"/>
      <point x="-1222" y="-132" type="line"/>
      <point x="-1222" y="-349"/>
      <point x="-1063" y="-502"/>
      <point x="-807" y="-502" type="curve" smooth="yes"/>
      <point x="-551" y="-502"/>
      <point x="-393" y="-349"/>
      <point x="-393" y="-132" type="curve"/>
    </contour>
  </outline>
</glyph>
<glyph name="breveinvsubnosp" format="2">
  <unicode hex="032F"/>
  <anchor x="-804" y="0" name="_markbottom"/>
  <anchor x="-804" y="-512" name="mkmkbottom_acc"/>
  <outline>
    <contour>
      <point x="-393" y="-512" type="line"/>
      <point x="-393" y="-294"/>
      <point x="-551" y="-142"/>
      <point x="-807" y="-142" type="curve" smooth="yes"/>
      <point x="-1063" y="-142"/>
      <point x="-1222" y="-294"/>
      <point x="-1222" y="-512" type="curve"/>
      <point x="-1001" y="-512" type="line"/>
      <point x="-1001" y="-406"/>
      <point x="-949" y="-312"/>
      <point x="-807" y="-312" type="curve" smooth="yes"/>
      <point x="-668" y="-312"/>
      <point x="-615" y="-406"/>
      <point x="-615" y="-512" type="curve"/>
    </contour>
  </outline>
</glyph>
<glyph name="underscoredblnosp" format="2">
  <unicode hex="0333"/>
  <anchor x="-809" y="0" name="_markbottom"/>
  <anchor x="-807" y="-689" name="mkmkbottom_acc"/>
  <outline>
    <contour>
      <point x="-172" y="-116" type="line"/>
      <point x="-1452" y="-116" type="line"/>
      <point x="-1452" y="-336" type="line"/>
      <point x="-172" y="-336" type="line"/>
    </contour>
    <contour>
      <point x="-172" y="-468" type="line"/>
      <point x="-1452" y="-468" type="line"/>
      <point x="-1452" y="-688" type="line"/>
      <point x="-172" y="-688" type="line"/>
    </contour>
  </outline>
</glyph>
<glyph name="barmidlongnosp" format="2">
  <unicode hex="0336"/>
  <outline>
    <contour>
      <point x="45" y="850" type="line"/>
      <point x="-1662" y="850" type="line"/>
      <point x="-1662" y="630" type="line"/>
      <point x="45" y="630" type="line"/>
    </contour>
  </outline>
</glyph>
<glyph name="slashshortnosp" format="2">
  <unicode hex="0337"/>
  <outline>
    <contour>
      <point x="-276" y="1661" type="line"/>
      <point x="-455" y="1661" type="line"/>
      <point x="-1367" y="-184" type="line"/>
      <point x="-1188" y="-184" type="line"/>
    </contour>
  </outline>
</glyph>
<glyph name="slashlongnosp" format="2">
  <unicode hex="0338"/>
  <outline>
    <contour>
      <point x="-116" y="2088" type="line"/>
      <point x="-256" y="2088" type="line"/>
      <point x="-1640" y="-132" type="line"/>
      <point x="-1500" y="-132" type="line"/>
    </contour>
  </outline>
</glyph>
<glyph name="squaresubnosp" format="2">
  <unicode hex="033B"/>
  <anchor x="-807" y="0" name="_markbottom"/>
  <anchor x="-807" y="-666" name="mkmkbottom_acc"/>
  <outline>
    <contour>
      <point x="-1085" y="-666" type="line"/>
      <point x="-529" y="-666" type="line"/>
      <point x="-529" y="-110" type="line"/>
      <point x="-1085" y="-110" type="line"/>
    </contour>
    <contour>
      <point x="-935" y="-260" type="line"/>
      <point x="-679" y="-260" type="line"/>
      <point x="-679" y="-516" type="line"/>
      <point x="-935" y="-516" type="line"/>
    </contour>
  </outline>
</glyph>
<glyph name="seagullsubnosp" format="2">
  <unicode hex="033C"/>
  <anchor x="-807" y="0" name="_markbottom"/>
  <anchor x="-807" y="-457" name="mkmkbottom_acc"/>
  <outline>
    <contour>
      <point x="-1354" y="-485" type="line"/>
      <point x="-1354" y="-292"/>
      <point x="-1228" y="-154"/>
      <point x="-1052" y="-154" type="curve" smooth="yes"/>
      <point x="-850" y="-154"/>
      <point x="-741" y="-292"/>
      <point x="-741" y="-484" type="curve"/>
      <point x="-873" y="-484" type="line"/>
      <point x="-873" y="-380"/>
      <point x="-930" y="-312"/>
      <point x="-1052" y="-312" type="curve" smooth="yes"/>
      <point x="-1147" y="-312"/>
      <point x="-1221" y="-380"/>
      <point x="-1221" y="-485" type="curve"/>
    </contour>
    <contour>
      <point x="-873" y="-484" type="line"/>
      <point x="-873" y="-292"/>
      <point x="-765" y="-154"/>
      <point x="-562" y="-154" type="curve" smooth="yes"/>
      <point x="-386" y="-154"/>
      <point x="-260" y="-292"/>
      <point x="-260" y="-485" type="curve"/>
      <point x="-393" y="-485" type="line"/>
      <point x="-393" y="-380"/>
      <point x="-468" y="-312"/>
      <point x="-562" y="-312" type="curve" smooth="yes"/>
      <point x="-685" y="-312"/>
      <point x="-741" y="-380"/>
      <point x="-741" y="-484" type="curve"/>
    </contour>
  </outline>
</glyph>
<glyph name="xsupnosp" format="2">
  <unicode hex="033D"/>
  <anchor x="-683" y="1609" name="_marktop"/>
  <anchor x="-683" y="2500" name="mkmktop"/>
  <outline>
    <contour>
      <point x="-884" y="1706" type="line"/>
      <point x="-347" y="2247" type="line"/>
      <point x="-483" y="2386" type="line"/>
      <point x="-1020" y="1845" type="line"/>
    </contour>
    <contour>
      <point x="-485" y="1704" type="line"/>
      <point x="-349" y="1843" type="line"/>
      <point x="-881" y="2387" type="line"/>
      <point x="-1018" y="2248" type="line"/>
    </contour>
  </outline>
</glyph>
<glyph name="tildevertsupnosp" format="2">
  <unicode hex="033E"/>
  <anchor x="-803" y="1507" name="_marktop"/>
  <anchor x="-803" y="2369" name="mkmktop"/>
  <outline>
    <contour>
      <point x="-953" y="1550" type="line"/>
      <point x="-769" y="1550"/>
      <point x="-664" y="1631"/>
      <point x="-664" y="1759" type="curve" smooth="yes"/>
      <point x="-664" y="1867"/>
      <point x="-749" y="1973"/>
      <point x="-749" y="2038" type="curve" smooth="yes"/>
      <point x="-749" y="2087"/>
      <point x="-708" y="2104"/>
      <point x="-664" y="2104" type="curve"/>
      <point x="-664" y="2269" type="line"/>
      <point x="-839" y="2269"/>
      <point x="-953" y="2196"/>
      <point x="-953" y="2072" type="curve" smooth="yes"/>
      <point x="-953" y="1965"/>
      <point x="-857" y="1866"/>
      <point x="-857" y="1794" type="curve" smooth="yes"/>
      <point x="-857" y="1757"/>
      <point x="-891" y="1715"/>
      <point x="-953" y="1715" type="curve"/>
    </contour>
  </outline>
</glyph>
<glyph name="overscoredblnosp" format="2">
  <unicode hex="033F"/>
  <anchor x="-807" y="2013" name="_marktop"/>
  <anchor x="-807" y="2797" name="mkmktop"/>
  <outline>
    <contour>
      <point x="-172" y="2259" type="line"/>
      <point x="-1442" y="2259" type="line"/>
      <point x="-1442" y="2039" type="line"/>
      <point x="-172" y="2039" type="line"/>
    </contour>
    <contour>
      <point x="-173" y="2611" type="line"/>
      <point x="-1444" y="2611" type="line"/>
      <point x="-1444" y="2391" type="line"/>
      <point x="-173" y="2391" type="line"/>
    </contour>
  </outline>
</glyph>
<glyph name="iotasubnosp" format="2">
  <unicode hex="0345"/>
  <anchor x="-811" y="0" name="_markbottom"/>
  <anchor x="-811" y="-723" name="mkmkbottom_acc"/>
  <outline>
    <contour>
      <point x="-917" y="-96" type="line"/>
      <point x="-917" y="-469" type="line" smooth="yes"/>
      <point x="-917" y="-649"/>
      <point x="-822" y="-723"/>
      <point x="-685" y="-723" type="curve" smooth="yes"/>
      <point x="-635" y="-723"/>
      <point x="-602" y="-715"/>
      <point x="-582" y="-708" type="curve"/>
      <point x="-582" y="-567" type="line"/>
      <point x="-593" y="-569"/>
      <point x="-620" y="-573"/>
      <point x="-641" y="-573" type="curve" smooth="yes"/>
      <point x="-682" y="-573"/>
      <point x="-708" y="-545"/>
      <point x="-708" y="-462" type="curve" smooth="yes"/>
      <point x="-708" y="-96" type="line"/>
    </contour>
  </outline>
</glyph>
<glyph name="uni0346" format="2">
  <unicode hex="0346"/>
  <anchor x="-806" y="1664" name="_marktop"/>
  <anchor x="-806" y="2354" name="mkmktop"/>
  <outline>
    <contour>
      <point x="-528" y="2052" type="line"/>
      <point x="-1096" y="2052" type="line"/>
      <point x="-1096" y="2221" type="line"/>
      <point x="-528" y="2221" type="line"/>
    </contour>
    <contour>
      <point x="-1070" y="1690" type="line"/>
      <point x="-1277" y="1690" type="line"/>
      <point x="-1277" y="2221" type="line"/>
      <point x="-1070" y="2221" type="line"/>
    </contour>
    <contour>
      <point x="-341" y="1690" type="line"/>
      <point x="-549" y="1690" type="line"/>
      <point x="-549" y="2221" type="line"/>
      <point x="-341" y="2221" type="line"/>
    </contour>
  </outline>
</glyph>
<glyph name="uni0347" format="2">
  <unicode hex="0347"/>
  <anchor x="-806" y="0" name="_markbottom"/>
  <anchor x="-806" y="-645" name="mkmkbottom_acc"/>
  <outline>
    <contour>
      <point x="-1114" y="-150" type="line"/>
      <point x="-1114" y="-342" type="line"/>
      <point x="-498" y="-342" type="line"/>
      <point x="-498" y="-150" type="line"/>
    </contour>
    <contour>
      <point x="-1114" y="-452" type="line"/>
      <point x="-1114" y="-645" type="line"/>
      <point x="-498" y="-645" type="line"/>
      <point x="-498" y="-452" type="line"/>
    </contour>
  </outline>
</glyph>
<glyph name="uni0349" format="2">
  <unicode hex="0349"/>
  <anchor x="-782" y="0" name="_markbottom"/>
  <anchor x="-782" y="-697" name="mkmkbottom_acc"/>
  <outline>
    <contour>
      <point x="-715" y="-166" type="line"/>
      <point x="-509" y="-166" type="line"/>
      <point x="-509" y="-697" type="line"/>
      <point x="-715" y="-697" type="line"/>
    </contour>
    <contour>
      <point x="-509" y="-166" type="line"/>
      <point x="-509" y="-359" type="line"/>
      <point x="-1056" y="-359" type="line"/>
      <point x="-1056" y="-166" type="line"/>
    </contour>
  </outline>
</glyph>
<glyph name="uni034A" format="2">
  <unicode hex="034A"/>
  <anchor x="-807" y="1727" name="_marktop"/>
  <anchor x="-807" y="2263" name="mkmktop"/>
  <outline>
    <contour>
      <point x="-741" y="2164" type="line"/>
      <point x="-1002" y="1715" type="line"/>
      <point x="-869" y="1631" type="line"/>
      <point x="-611" y="2080" type="line"/>
    </contour>
    <component base="tilde" xOffset="-1474"/>
  </outline>
</glyph>
<glyph name="uni034B" format="2">
  <unicode hex="034B"/>
  <anchor x="-869" y="1543" name="_marktop"/>
  <anchor x="-869" y="2610" name="mkmktop"/>
  <outline>
    <contour>
      <point x="-561" y="2243" type="line"/>
      <point x="-561" y="2157"/>
      <point x="-620" y="2090"/>
      <point x="-696" y="2090" type="curve" smooth="yes"/>
      <point x="-840" y="2090"/>
      <point x="-909" y="2218"/>
      <point x="-1062" y="2218" type="curve" smooth="yes"/>
      <point x="-1232" y="2218"/>
      <point x="-1363" y="2075"/>
      <point x="-1363" y="1870" type="curve"/>
      <point x="-1181" y="1860" type="line"/>
      <point x="-1181" y="1944"/>
      <point x="-1123" y="2012"/>
      <point x="-1048" y="2012" type="curve" smooth="yes"/>
      <point x="-897" y="2012"/>
      <point x="-868" y="1885"/>
      <point x="-682" y="1885" type="curve" smooth="yes"/>
      <point x="-513" y="1885"/>
      <point x="-380" y="2019"/>
      <point x="-380" y="2225" type="curve"/>
    </contour>
    <contour>
      <point x="-1027" y="2399" type="curve" smooth="yes"/>
      <point x="-1027" y="2316"/>
      <point x="-974" y="2250"/>
      <point x="-869" y="2250" type="curve" smooth="yes"/>
      <point x="-765" y="2250"/>
      <point x="-710" y="2316"/>
      <point x="-710" y="2399" type="curve" smooth="yes"/>
      <point x="-710" y="2485"/>
      <point x="-765" y="2552"/>
      <point x="-869" y="2552" type="curve" smooth="yes"/>
      <point x="-974" y="2552"/>
      <point x="-1027" y="2485"/>
    </contour>
    <contour>
      <point x="-1027" y="1712" type="curve" smooth="yes"/>
      <point x="-1027" y="1628"/>
      <point x="-974" y="1562"/>
      <point x="-869" y="1562" type="curve" smooth="yes"/>
      <point x="-765" y="1562"/>
      <point x="-710" y="1628"/>
      <point x="-710" y="1712" type="curve" smooth="yes"/>
      <point x="-710" y="1797"/>
      <point x="-765" y="1865"/>
      <point x="-869" y="1865" type="curve" smooth="yes"/>
      <point x="-974" y="1865"/>
      <point x="-1027" y="1797"/>
    </contour>
  </outline>
</glyph>
<glyph name="uni034D" format="2">
  <unicode hex="034D"/>
  <anchor x="-807" y="0" name="_markbottom"/>
  <anchor x="-807" y="-759" name="mkmkbottom_acc"/>
  <outline>
    <contour>
      <point x="-366" y="-382" type="line"/>
      <point x="-1242" y="-382" type="line"/>
      <point x="-1242" y="-521" type="line"/>
      <point x="-366" y="-521" type="line"/>
    </contour>
    <contour>
      <point x="-903" y="-758" type="line"/>
      <point x="-1268" y="-374" type="line"/>
      <point x="-1361" y="-452" type="line"/>
      <point x="-1071" y="-758" type="line"/>
    </contour>
    <contour>
      <point x="-1071" y="-147" type="line"/>
      <point x="-1361" y="-452" type="line"/>
      <point x="-1264" y="-525" type="line"/>
      <point x="-903" y="-147" type="line"/>
    </contour>
    <contour>
      <point x="-545" y="-758" type="line"/>
      <point x="-254" y="-452" type="line"/>
      <point x="-348" y="-374" type="line"/>
      <point x="-712" y="-758" type="line"/>
    </contour>
    <contour>
      <point x="-712" y="-147" type="line"/>
      <point x="-352" y="-525" type="line"/>
      <point x="-254" y="-452" type="line"/>
      <point x="-545" y="-147" type="line"/>
    </contour>
  </outline>
</glyph>
<glyph name="uni034E" format="2">
  <unicode hex="034E"/>
  <anchor x="-809" y="0" name="_markbottom"/>
  <anchor x="-809" y="-755" name="mkmkbottom_acc"/>
  <outline>
    <contour>
      <point x="-740" y="-755" type="line"/>
      <point x="-740" y="-250" type="line"/>
      <point x="-876" y="-250" type="line"/>
      <point x="-876" y="-755" type="line"/>
    </contour>
    <contour>
      <point x="-1141" y="-589" type="line"/>
      <point x="-723" y="-223" type="line"/>
      <point x="-809" y="-131" type="line"/>
      <point x="-1141" y="-421" type="line"/>
    </contour>
    <contour>
      <point x="-476" y="-421" type="line"/>
      <point x="-809" y="-131" type="line"/>
      <point x="-888" y="-228" type="line"/>
      <point x="-476" y="-589" type="line"/>
    </contour>
  </outline>
</glyph>
<glyph name="uni0350" format="2">
  <unicode hex="0350"/>
  <anchor x="-738" y="1636" name="_marktop"/>
  <anchor x="-738" y="2684" name="mkmktop"/>
  <outline>
    <contour>
      <point x="-616" y="2098" type="line"/>
      <point x="-239" y="2196" type="line"/>
      <point x="-239" y="2032" type="line"/>
      <point x="-1239" y="1621" type="line"/>
      <point x="-1239" y="1862" type="line"/>
    </contour>
    <contour>
      <point x="-1239" y="2390" type="line"/>
      <point x="-1239" y="2629" type="line"/>
      <point x="-239" y="2219" type="line"/>
      <point x="-239" y="2054" type="line"/>
      <point x="-616" y="2149" type="line"/>
    </contour>
  </outline>
</glyph>
<glyph name="uni0351" format="2">
  <unicode hex="0351"/>
  <anchor x="-666" y="1513" name="_marktop"/>
  <anchor x="-666" y="2129" name="mkmktop"/>
  <outline>
    <contour>
      <point x="-583" y="1526" type="curve"/>
      <point x="-583" y="1653" type="line"/>
      <point x="-661" y="1653"/>
      <point x="-723" y="1715"/>
      <point x="-723" y="1797" type="curve" smooth="yes"/>
      <point x="-723" y="1882"/>
      <point x="-661" y="1946"/>
      <point x="-583" y="1946" type="curve"/>
      <point x="-583" y="2074" type="line"/>
      <point x="-738" y="2074"/>
      <point x="-866" y="1958"/>
      <point x="-866" y="1797" type="curve" smooth="yes"/>
      <point x="-866" y="1635"/>
      <point x="-738" y="1526"/>
    </contour>
  </outline>
</glyph>
<glyph name="uni0352" format="2">
  <unicode hex="0352"/>
  <anchor x="-810" y="1654" name="_marktop"/>
  <anchor x="-810" y="2428" name="mkmktop"/>
  <outline>
    <contour>
      <point x="-395" y="1948" type="line"/>
      <point x="-395" y="2166"/>
      <point x="-553" y="2318"/>
      <point x="-809" y="2318" type="curve" smooth="yes"/>
      <point x="-1064" y="2318"/>
      <point x="-1224" y="2166"/>
      <point x="-1224" y="1948" type="curve"/>
      <point x="-1002" y="1948" type="line"/>
      <point x="-1002" y="2054"/>
      <point x="-950" y="2148"/>
      <point x="-809" y="2148" type="curve" smooth="yes"/>
      <point x="-670" y="2148"/>
      <point x="-616" y="2054"/>
      <point x="-616" y="1948" type="curve"/>
    </contour>
    <contour>
      <point x="-968" y="1759" type="curve" smooth="yes"/>
      <point x="-968" y="1675"/>
      <point x="-914" y="1609"/>
      <point x="-810" y="1609" type="curve" smooth="yes"/>
      <point x="-705" y="1609"/>
      <point x="-650" y="1675"/>
      <point x="-650" y="1759" type="curve" smooth="yes"/>
      <point x="-650" y="1844"/>
      <point x="-705" y="1911"/>
      <point x="-810" y="1911" type="curve" smooth="yes"/>
      <point x="-914" y="1911"/>
      <point x="-968" y="1844"/>
    </contour>
  </outline>
</glyph>
<glyph name="uni0353" format="2">
  <unicode hex="0353"/>
  <anchor x="-700" y="0" name="_markbottom"/>
  <anchor x="-700" y="-759" name="mkmkbottom_acc"/>
  <outline>
    <contour>
      <point x="-891" y="-725" type="line"/>
      <point x="-380" y="-210" type="line"/>
      <point x="-509" y="-78" type="line"/>
      <point x="-1020" y="-593" type="line"/>
    </contour>
    <contour>
      <point x="-512" y="-727" type="line"/>
      <point x="-382" y="-595" type="line"/>
      <point x="-888" y="-77" type="line"/>
      <point x="-1018" y="-209" type="line"/>
    </contour>
  </outline>
</glyph>
<glyph name="uni0359" format="2">
  <unicode hex="0359"/>
  <anchor x="-817" y="0" name="_markbottom"/>
  <anchor x="-817" y="-718" name="mkmkbottom_acc"/>
  <outline>
    <contour>
      <point x="-1041" y="-646" type="line"/>
      <point x="-943" y="-716" type="line"/>
      <point x="-815" y="-514" type="line"/>
      <point x="-685" y="-722" type="line"/>
      <point x="-587" y="-650" type="line"/>
      <point x="-727" y="-455" type="line"/>
      <point x="-507" y="-391" type="line"/>
      <point x="-543" y="-274" type="line"/>
      <point x="-756" y="-352" type="line"/>
      <point x="-748" y="-99" type="line"/>
      <point x="-868" y="-99" type="line"/>
      <point x="-861" y="-348" type="line"/>
      <point x="-1077" y="-268" type="line"/>
      <point x="-1112" y="-384" type="line"/>
      <point x="-897" y="-447" type="line"/>
    </contour>
  </outline>
</glyph>
<glyph name="uni035A" format="2">
  <unicode hex="035A"/>
  <anchor x="-785" y="50" name="_markbottom"/>
  <anchor x="-785" y="-656" name="mkmkbottom_acc"/>
  <outline>
    <contour>
      <point x="-1323" y="-370" type="curve"/>
      <point x="-1323" y="-532"/>
      <point x="-1192" y="-655"/>
      <point x="-1020" y="-655" type="curve" smooth="yes"/>
      <point x="-850" y="-655"/>
      <point x="-718" y="-532"/>
      <point x="-718" y="-370" type="curve" smooth="yes"/>
      <point x="-718" y="-209"/>
      <point x="-850" y="-80"/>
      <point x="-1020" y="-80" type="curve" smooth="yes"/>
      <point x="-1192" y="-80"/>
      <point x="-1323" y="-209"/>
    </contour>
    <contour>
      <point x="-1180" y="-370" type="curve"/>
      <point x="-1180" y="-285"/>
      <point x="-1114" y="-208"/>
      <point x="-1020" y="-208" type="curve" smooth="yes"/>
      <point x="-927" y="-208"/>
      <point x="-861" y="-285"/>
      <point x="-861" y="-370" type="curve" smooth="yes"/>
      <point x="-861" y="-452"/>
      <point x="-927" y="-528"/>
      <point x="-1020" y="-528" type="curve" smooth="yes"/>
      <point x="-1114" y="-528"/>
      <point x="-1180" y="-450"/>
    </contour>
    <contour>
      <point x="-853" y="-370" type="curve"/>
      <point x="-853" y="-532"/>
      <point x="-722" y="-655"/>
      <point x="-550" y="-655" type="curve" smooth="yes"/>
      <point x="-380" y="-655"/>
      <point x="-248" y="-532"/>
      <point x="-248" y="-370" type="curve" smooth="yes"/>
      <point x="-248" y="-209"/>
      <point x="-380" y="-80"/>
      <point x="-550" y="-80" type="curve" smooth="yes"/>
      <point x="-722" y="-80"/>
      <point x="-853" y="-209"/>
    </contour>
    <contour>
      <point x="-710" y="-370" type="curve"/>
      <point x="-710" y="-285"/>
      <point x="-644" y="-208"/>
      <point x="-550" y="-208" type="curve" smooth="yes"/>
      <point x="-457" y="-208"/>
      <point x="-391" y="-285"/>
      <point x="-391" y="-370" type="curve" smooth="yes"/>
      <point x="-391" y="-452"/>
      <point x="-457" y="-528"/>
      <point x="-550" y="-528" type="curve" smooth="yes"/>
      <point x="-644" y="-528"/>
      <point x="-710" y="-450"/>
    </contour>
  </outline>
</glyph>
<glyph name="uni035B" format="2">
  <unicode hex="035B"/>
  <anchor x="-820" y="1678" name="_marktop"/>
  <anchor x="-820" y="2394" name="mkmktop"/>
  <outline>
    <contour>
      <point x="-892" y="2284" type="line"/>
      <point x="-1030" y="1871" type="line"/>
      <point x="-737" y="1871" type="line"/>
      <point x="-820" y="1624" type="line"/>
      <point x="-655" y="1624" type="line"/>
      <point x="-517" y="2036" type="line"/>
      <point x="-810" y="2036" type="line"/>
      <point x="-727" y="2284" type="line"/>
    </contour>
  </outline>
</glyph>
<glyph name="uni035D" format="2">
  <unicode hex="035D"/>
  <anchor x="0" y="1595" name="_marktop_dd"/>
  <outline>
    <contour>
      <point x="743" y="2043" type="line"/>
      <point x="633" y="1937"/>
      <point x="318" y="1803"/>
      <point x="0" y="1803" type="curve" smooth="yes"/>
      <point x="-320" y="1803"/>
      <point x="-634" y="1937"/>
      <point x="-744" y="2043" type="curve"/>
      <point x="-965" y="2043" type="line"/>
      <point x="-814" y="1826"/>
      <point x="-448" y="1632"/>
      <point x="0" y="1632" type="curve" smooth="yes"/>
      <point x="448" y="1632"/>
      <point x="813" y="1826"/>
      <point x="964" y="2043" type="curve"/>
    </contour>
  </outline>
</glyph>
<glyph name="uni035E" format="2">
  <unicode hex="035E"/>
  <anchor x="0" y="1705" name="_marktop_dd"/>
  <outline>
    <contour>
      <point x="813" y="1975" type="line"/>
      <point x="-814" y="1975" type="line"/>
      <point x="-814" y="1768" type="line"/>
      <point x="813" y="1768" type="line"/>
    </contour>
  </outline>
</glyph>
<glyph name="tildedoublecmb" format="2">
  <unicode hex="0360"/>
  <anchor x="0" y="1746" name="_marktop_dd"/>
  <outline>
    <contour>
      <point x="1152" y="2098" type="line"/>
      <point x="1122" y="1988"/>
      <point x="1013" y="1932"/>
      <point x="876" y="1932" type="curve" smooth="yes"/>
      <point x="466" y="1932"/>
      <point x="-448" y="2074"/>
      <point x="-879" y="2074" type="curve" smooth="yes"/>
      <point x="-1115" y="2074"/>
      <point x="-1277" y="1921"/>
      <point x="-1304" y="1753" type="curve"/>
      <point x="-1154" y="1716" type="line"/>
      <point x="-1112" y="1827"/>
      <point x="-1016" y="1881"/>
      <point x="-879" y="1881" type="curve" smooth="yes"/>
      <point x="-452" y="1881"/>
      <point x="373" y="1741"/>
      <point x="876" y="1741" type="curve" smooth="yes"/>
      <point x="1111" y="1741"/>
      <point x="1275" y="1869"/>
      <point x="1302" y="2053" type="curve"/>
    </contour>
  </outline>
</glyph>
<glyph name="breveinverteddoublecmb" format="2">
  <unicode hex="0361"/>
  <anchor x="0" y="1636" name="_marktop_dd"/>
  <outline>
    <contour>
      <point x="964" y="1632" type="line"/>
      <point x="813" y="1849"/>
      <point x="448" y="2043"/>
      <point x="0" y="2043" type="curve" smooth="yes"/>
      <point x="-448" y="2043"/>
      <point x="-814" y="1849"/>
      <point x="-965" y="1632" type="curve"/>
      <point x="-744" y="1632" type="line"/>
      <point x="-634" y="1738"/>
      <point x="-320" y="1873"/>
      <point x="0" y="1873" type="curve" smooth="yes"/>
      <point x="318" y="1873"/>
      <point x="633" y="1738"/>
      <point x="743" y="1632" type="curve"/>
    </contour>
  </outline>
</glyph>
<glyph name="uni0362" format="2">
  <unicode hex="0362"/>
  <anchor x="0" y="-206" name="_markbottom_dd"/>
  <outline>
    <contour>
      <point x="993" y="-392" type="line"/>
      <point x="-946" y="-392" type="line"/>
      <point x="-946" y="-517" type="line"/>
      <point x="993" y="-517" type="line"/>
    </contour>
    <contour>
      <point x="737" y="-762" type="line"/>
      <point x="1151" y="-454" type="line"/>
      <point x="1019" y="-375" type="line"/>
      <point x="498" y="-762" type="line"/>
    </contour>
    <contour>
      <point x="498" y="-147" type="line"/>
      <point x="1012" y="-529" type="line"/>
      <point x="1151" y="-454" type="line"/>
      <point x="737" y="-147" type="line"/>
    </contour>
  </outline>
</glyph>
<glyph name="uni0363" format="2">
  <unicode hex="0363"/>
  <anchor x="-773" y="1609" name="_marktop"/>
  <anchor x="-773" y="2500" name="_mkmktop"/>
  <outline>
    <contour>
      <point x="-641" y="1808" type="line"/>
      <point x="-641" y="1753"/>
      <point x="-631" y="1700"/>
      <point x="-616" y="1653" type="curve"/>
      <point x="-433" y="1653" type="line"/>
      <point x="-452" y="1711"/>
      <point x="-459" y="1767"/>
      <point x="-459" y="1833" type="curve" smooth="yes"/>
      <point x="-459" y="2145" type="line" smooth="yes"/>
      <point x="-459" y="2327"/>
      <point x="-582" y="2419"/>
      <point x="-756" y="2419" type="curve" smooth="yes"/>
      <point x="-943" y="2419"/>
      <point x="-1064" y="2321"/>
      <point x="-1064" y="2188" type="curve"/>
      <point x="-894" y="2174" type="line"/>
      <point x="-894" y="2237"/>
      <point x="-842" y="2272"/>
      <point x="-756" y="2272" type="curve" smooth="yes"/>
      <point x="-678" y="2272"/>
      <point x="-641" y="2228"/>
      <point x="-641" y="2146" type="curve" smooth="yes"/>
    </contour>
    <contour>
      <point x="-623" y="2096" type="line"/>
      <point x="-777" y="2096" type="line" smooth="yes"/>
      <point x="-993" y="2096"/>
      <point x="-1114" y="2012"/>
      <point x="-1114" y="1866" type="curve" smooth="yes"/>
      <point x="-1114" y="1728"/>
      <point x="-1016" y="1639"/>
      <point x="-858" y="1639" type="curve" smooth="yes"/>
      <point x="-723" y="1639"/>
      <point x="-648" y="1716"/>
      <point x="-617" y="1779" type="curve"/>
      <point x="-635" y="1896" type="line"/>
      <point x="-635" y="1848"/>
      <point x="-734" y="1782"/>
      <point x="-815" y="1782" type="curve" smooth="yes"/>
      <point x="-894" y="1782"/>
      <point x="-932" y="1815"/>
      <point x="-932" y="1870" type="curve" smooth="yes"/>
      <point x="-932" y="1928"/>
      <point x="-877" y="1979"/>
      <point x="-776" y="1979" type="curve" smooth="yes"/>
      <point x="-622" y="1979" type="line"/>
    </contour>
  </outline>
</glyph>
<glyph name="uni0364" format="2">
  <unicode hex="0364"/>
  <anchor x="-777" y="1609" name="_marktop"/>
  <anchor x="-777" y="2500" name="_mkmktop"/>
  <outline>
    <contour>
      <point x="-752" y="1632" type="curve" smooth="yes"/>
      <point x="-598" y="1632"/>
      <point x="-505" y="1706"/>
      <point x="-455" y="1781" type="curve"/>
      <point x="-549" y="1870" type="line"/>
      <point x="-594" y="1810"/>
      <point x="-652" y="1781"/>
      <point x="-744" y="1781" type="curve" smooth="yes"/>
      <point x="-868" y="1781"/>
      <point x="-934" y="1858"/>
      <point x="-934" y="1998" type="curve" smooth="yes"/>
      <point x="-934" y="2028" type="line" smooth="yes"/>
      <point x="-934" y="2186"/>
      <point x="-881" y="2272"/>
      <point x="-769" y="2272" type="curve" smooth="yes"/>
      <point x="-653" y="2272"/>
      <point x="-615" y="2201"/>
      <point x="-608" y="2105" type="curve" smooth="yes"/>
      <point x="-608" y="2096" type="line"/>
      <point x="-1019" y="2096" type="line"/>
      <point x="-1019" y="1979" type="line"/>
      <point x="-440" y="1979" type="line"/>
      <point x="-440" y="2043" type="line" smooth="yes"/>
      <point x="-440" y="2256"/>
      <point x="-546" y="2419"/>
      <point x="-769" y="2419" type="curve" smooth="yes"/>
      <point x="-960" y="2419"/>
      <point x="-1115" y="2284"/>
      <point x="-1115" y="2028" type="curve" smooth="yes"/>
      <point x="-1115" y="1998" type="line" smooth="yes"/>
      <point x="-1115" y="1785"/>
      <point x="-983" y="1632"/>
    </contour>
  </outline>
</glyph>
<glyph name="uni0365" format="2">
  <unicode hex="0365"/>
  <anchor x="-771" y="1609" name="_marktop"/>
  <anchor x="-771" y="2775" name="_mkmktop"/>
  <outline>
    <contour>
      <point x="-679" y="2410" type="line"/>
      <point x="-861" y="2410" type="line"/>
      <point x="-861" y="1651" type="line"/>
      <point x="-679" y="1651" type="line"/>
    </contour>
    <contour>
      <point x="-876" y="2592" type="curve" smooth="yes"/>
      <point x="-876" y="2537"/>
      <point x="-840" y="2494"/>
      <point x="-771" y="2494" type="curve" smooth="yes"/>
      <point x="-704" y="2494"/>
      <point x="-667" y="2537"/>
      <point x="-667" y="2592" type="curve" smooth="yes"/>
      <point x="-667" y="2648"/>
      <point x="-704" y="2692"/>
      <point x="-771" y="2692" type="curve" smooth="yes"/>
      <point x="-840" y="2692"/>
      <point x="-876" y="2648"/>
    </contour>
  </outline>
</glyph>
<glyph name="uni0366" format="2">
  <unicode hex="0366"/>
  <anchor x="-773" y="1609" name="_marktop"/>
  <anchor x="-773" y="2500" name="_mkmktop"/>
  <outline>
    <contour>
      <point x="-773" y="1632" type="curve" smooth="yes"/>
      <point x="-557" y="1632"/>
      <point x="-413" y="1785"/>
      <point x="-413" y="2017" type="curve" smooth="yes"/>
      <point x="-413" y="2032" type="line" smooth="yes"/>
      <point x="-413" y="2266"/>
      <point x="-557" y="2419"/>
      <point x="-774" y="2419" type="curve" smooth="yes"/>
      <point x="-987" y="2419"/>
      <point x="-1133" y="2266"/>
      <point x="-1133" y="2032" type="curve" smooth="yes"/>
      <point x="-1133" y="2017" type="line" smooth="yes"/>
      <point x="-1133" y="1785"/>
      <point x="-987" y="1632"/>
    </contour>
    <contour>
      <point x="-773" y="1779" type="curve" smooth="yes"/>
      <point x="-898" y="1779"/>
      <point x="-952" y="1870"/>
      <point x="-952" y="2017" type="curve" smooth="yes"/>
      <point x="-952" y="2032" type="line" smooth="yes"/>
      <point x="-952" y="2179"/>
      <point x="-898" y="2272"/>
      <point x="-774" y="2272" type="curve" smooth="yes"/>
      <point x="-648" y="2272"/>
      <point x="-594" y="2179"/>
      <point x="-594" y="2032" type="curve" smooth="yes"/>
      <point x="-594" y="2017" type="line" smooth="yes"/>
      <point x="-594" y="1870"/>
      <point x="-648" y="1779"/>
    </contour>
  </outline>
</glyph>
<glyph name="uni0367" format="2">
  <unicode hex="0367"/>
  <anchor x="-781" y="1609" name="_marktop"/>
  <anchor x="-781" y="2500" name="_mkmktop"/>
  <outline>
    <contour>
      <point x="-641" y="1827" type="line"/>
      <point x="-594" y="1651" type="line"/>
      <point x="-459" y="1651" type="line"/>
      <point x="-459" y="2410" type="line"/>
      <point x="-641" y="2410" type="line"/>
    </contour>
    <contour>
      <point x="-616" y="2005" type="line"/>
      <point x="-616" y="1863"/>
      <point x="-668" y="1785"/>
      <point x="-792" y="1785" type="curve" smooth="yes"/>
      <point x="-884" y="1785"/>
      <point x="-923" y="1840"/>
      <point x="-923" y="1961" type="curve" smooth="yes"/>
      <point x="-923" y="2410" type="line"/>
      <point x="-1104" y="2410" type="line"/>
      <point x="-1104" y="1962" type="line" smooth="yes"/>
      <point x="-1104" y="1731"/>
      <point x="-1004" y="1638"/>
      <point x="-842" y="1638" type="curve" smooth="yes"/>
      <point x="-633" y="1638"/>
      <point x="-551" y="1793"/>
      <point x="-551" y="2006" type="curve"/>
    </contour>
  </outline>
</glyph>
<glyph name="uni0368" format="2">
  <unicode hex="0368"/>
  <anchor x="-788" y="1609" name="_marktop"/>
  <anchor x="-788" y="2500" name="_mkmktop"/>
  <outline>
    <contour>
      <point x="-771" y="1632" type="curve" smooth="yes"/>
      <point x="-595" y="1632"/>
      <point x="-457" y="1753"/>
      <point x="-450" y="1887" type="curve"/>
      <point x="-623" y="1887" type="line"/>
      <point x="-635" y="1827"/>
      <point x="-682" y="1779"/>
      <point x="-771" y="1779" type="curve" smooth="yes"/>
      <point x="-888" y="1779"/>
      <point x="-945" y="1882"/>
      <point x="-945" y="2010" type="curve" smooth="yes"/>
      <point x="-945" y="2041" type="line" smooth="yes"/>
      <point x="-945" y="2167"/>
      <point x="-887" y="2272"/>
      <point x="-771" y="2272" type="curve" smooth="yes"/>
      <point x="-670" y="2272"/>
      <point x="-627" y="2203"/>
      <point x="-623" y="2144" type="curve"/>
      <point x="-450" y="2144" type="line"/>
      <point x="-457" y="2298"/>
      <point x="-578" y="2419"/>
      <point x="-771" y="2419" type="curve" smooth="yes"/>
      <point x="-1016" y="2419"/>
      <point x="-1126" y="2243"/>
      <point x="-1126" y="2041" type="curve" smooth="yes"/>
      <point x="-1126" y="2010" type="line" smooth="yes"/>
      <point x="-1126" y="1810"/>
      <point x="-1018" y="1632"/>
    </contour>
  </outline>
</glyph>
